<?xml version="1.0" encoding="utf-8"?>
<!-- Generator: Adobe Illustrator 16.0.0, SVG Export Plug-In . SVG Version: 6.00 Build 0)  -->
<!DOCTYPE svg PUBLIC "-//W3C//DTD SVG 1.1//EN" "http://www.w3.org/Graphics/SVG/1.1/DTD/svg11.dtd">
<svg version="1.1" id="Layer_1" xmlns:svg="http://www.w3.org/2000/svg"
	 xmlns="http://www.w3.org/2000/svg" xmlns:xlink="http://www.w3.org/1999/xlink" x="0px" y="0px" width="1920px" height="501.04px"
	 viewBox="0 -330.739 1920 501.04" enable-background="new 0 -330.739 1920 501.04" xml:space="preserve">
<g>
	<g>
		<g>
			<path id="svg_3" d="M1061.6,165.888c0.2,0,0.4,0,0.7,0c0-0.354,0-0.797,0-1.15C1061.9,165.003,1061.4,165.269,1061.6,165.888z
				 M1013,164.561c-0.2,0.796,1.8,0.53,2.1,0.177c1.2,0,2.801,1.062,3.4,0C1016.9,164.826,1014.7,164.295,1013,164.561z
				 M967.9,162.968c-0.2,1.416,1.8,1.682,2.899,0.797C970.2,162.968,968.9,163.587,967.9,162.968z M1214.7,166.065
				c0.899,0.089,1.3-0.177,1.7-0.354c-0.101-0.354-0.5-0.53-0.9-0.795C1214.9,165.091,1214.7,165.445,1214.7,166.065L1214.7,166.065
				z M1091.9,163.412c-0.5-0.089-1.101-0.266-1.9-0.178C1088.2,164.384,1092.3,165.091,1091.9,163.412z M1265,165.976
				c0.7-0.177,1.2-0.088,1.5,0.354C1267.4,165.976,1264.9,164.826,1265,165.976z M1170,164.296c0,0.176,0,0.354,0,0.619
				c0.6,0.088,0.7-0.178,0.7-0.619C1170.5,164.296,1170.2,164.296,1170,164.296z M1168.1,163.765c0.301,0,0.601,0,0.9,0
				c0,0.088,0,0.266,0,0.354c1.4,0.178-0.1-0.707,1-0.619c0-0.531-1.2-0.266-1.9-0.354C1168.5,163.5,1168,163.323,1168.1,163.765z
				 M1249.2,164.207c0,0.178,0,0.354,0,0.619c0.7-0.265,1.3,0.443,1.7,0C1250.7,164.384,1250.2,164.119,1249.2,164.207z
				 M1318.2,162.792c-0.8,0.354-1.4,0.884-2.2,1.149c0.1,0.177,0.3,0.354,0.4,0.619C1317.9,164.65,1318.3,163.853,1318.2,162.792
				L1318.2,162.792z M1211,162.968c0.7-0.088,0.7,0.354,1.2,0c0-0.176,0-0.266,0-0.354C1211.6,162.527,1210.9,162.261,1211,162.968z
				 M1435.7,164.207c-0.4,0.266-0.3,0.885-0.3,1.328c2-0.619,3.5-0.619,5.6-0.266c-0.3-0.443-1.5-0.354-1.5-0.973
				C1438.4,165.269,1437.7,163.942,1435.7,164.207L1435.7,164.207z M1208.8,162.349c-0.2,0.443,0.601,0.266,0.7,0.619
				c0.6-0.088,1-0.795,0.5-1.149C1209.5,161.819,1209,161.908,1208.8,162.349L1208.8,162.349L1208.8,162.349z M1289.5,162.968
				c0.2,0.266,0.4,0.443,0.5,0.708c0.5,0,0.7-0.177,1-0.177C1290.7,163.146,1290.3,162.968,1289.5,162.968L1289.5,162.968z
				 M1172,162.083c0.4,0.266,0.9,0.09,1.4,0c-0.101-0.176-0.2-0.265-0.2-0.529C1172.5,161.464,1171.9,161.464,1172,162.083
				L1172,162.083z M1297.2,162.88c-0.101,0.354,0.1,0.442,0.199,0.707c0.4-0.088,0.5-0.354,0.5-0.707
				C1297.7,162.88,1297.399,162.88,1297.2,162.88z M1291.899,161.819c0,0.442,0.601,0.53,0.5,0.974c1.2-0.266,0.7,0.619,1.601,0.53
				C1293.699,162.615,1293.1,162.083,1291.899,161.819L1291.899,161.819z M1300.1,161.111c-0.6-0.088-0.7,0.178-0.7,0.619
				c-0.699,0-0.5-0.53-1.199-0.53c0.3,0.442,0,0.796-0.5,1.149c1.199,0.619,3,0.797,4.6,1.063
				C1301.6,162.615,1299.8,162.615,1300.1,161.111L1300.1,161.111L1300.1,161.111z M1369.699,163.676
				c0.101,0.266,0.801,0.089,0.801,0.354c0.1-0.089,0.199-0.178,0.399-0.178c0-0.088,0-0.266,0-0.354
				C1370.3,163.5,1370,163.5,1369.699,163.676L1369.699,163.676z M1306.199,161.376c-0.899,1.238,0.301,2.3,2.101,1.681
				c0-0.265-0.4-0.354-0.9-0.354c0-0.62,1.2-0.442,1.2-1.149C1307.5,161.642,1307.1,161.289,1306.199,161.376L1306.199,161.376z
				 M1324.199,163.234c1.2-0.266,1.7-0.354,2.9,0c0.5-0.266,0.4-0.973,1-1.15c-0.5-0.441-1.2-0.529-1.9-0.176
				c0.601-0.974,2.101-1.15,3.9-1.063c-0.8-0.53,0.4-0.707-0.2-1.326c-1.3,0.354-2,0-2.699,0.619
				c-0.801-0.088-0.301-0.619-0.2-0.973c-0.4,0.088-0.4,0.53-1.2,0.354c0.4,0.442,0.8,1.062-0.2,1.15
				c0.7,0.973-0.699,1.326,0.5,1.857c-0.5-0.089-1.5-0.354-1.899,0C1324.7,162.792,1324.6,162.88,1324.199,163.234L1324.199,163.234
				L1324.199,163.234z M1470.399,163.942c0.4,0.265,1.101,0.354,1.9,0.354C1472.6,163.234,1470.899,163.765,1470.399,163.942z
				 M1525.1,163.942c0,0.177,2,0.354,1.7-0.177C1526,163.676,1525.899,164.031,1525.1,163.942z M1293.899,159.341
				c-1.2,0-1.2,0.797-1.7,1.328c-0.8,0-0.8-0.619-1.899-0.531c0,1.238,1.1,0.619,2.2,0.707c1.8,0.089,4.199,0.178,5.5,0.354
				c0-0.266-0.4-0.354-0.301-0.619c0-0.177,0.4-0.177,0.7-0.177c-0.2-0.442-0.7-0.797-1.399-0.973
				C1296.899,160.669,1293,161.023,1293.899,159.341L1293.899,159.341L1293.899,159.341z M1322.6,161.2
				c0.9-0.177,0.6,0.442,1.4,0.354c-0.2-0.974,0.3-0.974,1-0.974c-0.2-0.442-1-0.619-1-1.149c-0.5,0.088-0.601,0.354-1.4,0.265
				C1324,160.226,1322.199,160.138,1322.6,161.2z M1302.8,160.845c1-0.088,1-0.619,2.2-0.265c-0.5-0.354-1.301-0.53-2.4-0.53
				C1302.399,160.404,1303,160.404,1302.8,160.845L1302.8,160.845L1302.8,160.845z M1337.1,157.927c-1.1-0.089-1.4,0.441-2.2,0.619
				c0,0.266,0.601,0.176,0.4,0.619c0.7-0.089,1.399-0.354,1.6-0.797c0.5,0.266,1.9,0.266,1.601-0.266
				c-0.601,0.089-0.9,0.178-1.5,0.089C1337,158.103,1337.199,158.015,1337.1,157.927z M1244.3,154.742c0.2,0.531-0.3,0.531-1,0.443
				c0.2,0.619,2.6-0.178,2.899,0.707c-0.199,0.442-1.5,0-1.699,0.354c-1-0.53-1.5-0.441-2.9-0.53c1,1.238,3,0.884,4.4,1.149
				c0.399-0.354,0.6-0.885,0.5-1.592C1245.399,155.45,1245.8,154.477,1244.3,154.742L1244.3,154.742L1244.3,154.742z
				 M1677.899,157.308c-0.3-0.709-3-1.063-3.6-0.178C1675.699,157.042,1676.8,157.838,1677.899,157.308z M1723.3,157.484
				c0.3,0.443,1,0.531,1.899,0.531c-0.1-0.619-0.899-0.707-1.199-1.15C1723.5,156.954,1723.699,157.484,1723.3,157.484
				L1723.3,157.484L1723.3,157.484z M1776.5,157.484c0.3,0.708,1.5,0.089,2.399,0.178
				C1778.699,156.599,1777.399,157.573,1776.5,157.484z M1306.6,158.458c-0.5,0.089-1.1-0.442-2.1-0.53
				c-0.2,0.707,1.5,0.265,1.699,0.795C1306.399,158.722,1306.399,158.369,1306.6,158.458L1306.6,158.458z M1279.399,158.546
				c0.101,0,0.2,0,0.3,0c-0.1-0.089-0.199-0.178-0.199-0.266C1279.5,158.369,1279.5,158.458,1279.399,158.546L1279.399,158.546z
				 M1279.399,158.546c-0.2,0-0.5-0.089-0.6,0.088C1279.1,158.634,1279.3,158.634,1279.399,158.546z M1283.399,157.219
				c-0.399,0.442-1.1,0.708-1.5,1.149c-0.899-0.088-1.5,0-2.2,0.178c0.4,0.176,1.301,0.176,1,0.885c1-0.531,1.601-0.354,3.101-0.266
				c0-0.266-0.101-0.531,0.2-0.531C1283.199,158.281,1283.1,158.015,1283.399,157.219z M1268.399,161.73c2.4,0,6.5-0.176,7.7,1.857
				c0.8-0.441,2.1-0.619,3.6-0.619c0.101-0.265-0.1-0.354-0.399-0.354c0.1-0.441,1.3-0.088,1.899-0.177
				c0.2,0.089,0.2,0.354,0.2,0.974c1-0.178,1.2,0.265,1.9,0.354c0.699-0.089,1.399-0.266,1.199-0.973
				c1.9-0.089,1.7,1.238,3.601,0.707c-0.601-0.973,0.5-0.619,0.699-1.326c0.9-0.09,1.601,0,2.2,0.176c0-0.441-1-0.354-1-0.795
				c-4.5,1.857-4.5-2.478-7,0.441c-2.5-0.531-4-0.619-6.5,0.088c-0.6-0.088-0.3-0.707-0.899-0.707
				c0.3-0.619,1.399,0.178,1.699-0.619c-0.8,0.177-2.699,0.088-3.6-0.531c-0.5,0.089-0.6,0.443-1,0.619
				c-1.4-0.795-4.5-0.619-6.5-0.088C1266.999,160.934,1267.999,161.023,1268.399,161.73L1268.399,161.73L1268.399,161.73z
				 M1316.1,161.819c1.8-0.708,4,0.265,5.3-1.062c-0.5-0.266-1.7,0-1.2-0.973c-0.8-0.089-1-0.531-1.899-0.178
				c-0.2-0.088-0.4-0.266-0.4-0.619c1-0.619,2.7-0.354,4.601-0.441c-0.9-0.178-0.7-0.531-0.5-1.15c-0.801,0.177-1.4,0.442-1.9,0.796
				c-1.9-0.796-4.3,0-6-0.354c0.5,0.796,2.5,0.619,3.4,1.149c0.1,0.531-0.801,0.354-0.5,0.974c0.3,0,0.699,0,1,0
				C1317.1,160.404,1317,161.376,1316.1,161.819L1316.1,161.819z M1288.399,157.838c-0.3,0.177-1,0.177-1,0.619
				c-0.399-0.266-1-0.354-1.2-0.708c-0.699-0.088-0.5,0.531-1.399,0.354c-0.2,0.443-0.101,0.619-0.5,1.15
				c1.399-0.441,2.1,0.619,3.3,0.178c0.9,0.53,0.2,0.884,0.5,1.68c0.9-0.177,0.7-1.149,1-1.77c1,0.443,2.2-0.176,2-1.149
				c-1.2,0-1-0.089-2,0c-0.3,0.177-0.1,0.796-0.7,0.796C1287.399,158.812,1288.6,158.458,1288.399,157.838L1288.399,157.838
				L1288.399,157.838z M1459.1,165.888c0.2,0,0.4,0,0.7,0c0-0.354,0-0.797,0-1.15C1459.399,165.003,1458.899,165.269,1459.1,165.888
				z M1410.399,164.561c-0.2,0.796,1.8,0.53,2.101,0.177c1.1,0,2.8,1.062,3.399,0C1414.3,164.826,1412.199,164.296,1410.399,164.561
				z M1612.1,166.065c0.9,0.089,1.3-0.177,1.7-0.354c-0.101-0.354-0.5-0.53-0.9-0.795C1612.3,165.091,1612.1,165.445,1612.1,166.065
				L1612.1,166.065z M1489.399,163.412c-0.5-0.089-1.1-0.266-1.899-0.178C1485.699,164.384,1489.8,165.091,1489.399,163.412z
				 M1662.5,165.976c0.699-0.177,1.199-0.088,1.5,0.354C1664.899,165.976,1662.399,164.826,1662.5,165.976z M1567.399,164.296
				c0,0.176,0,0.354,0,0.619c0.601,0.088,0.7-0.178,0.7-0.619C1567.899,164.296,1567.6,164.296,1567.399,164.296z M1565.5,163.765
				c0.3,0,0.6,0,0.899,0c0,0.088,0,0.266,0,0.354c1.4,0.178-0.1-0.707,1-0.619c0-0.531-1.2-0.266-1.899-0.354
				C1565.899,163.5,1565.5,163.323,1565.5,163.765z M1646.699,164.207c0,0.178,0,0.354,0,0.619c0.7-0.265,1.301,0.443,1.7,0
				C1648.1,164.384,1647.6,164.119,1646.699,164.207z M1715.699,162.792c-0.8,0.354-1.399,0.884-2.199,1.149
				c0.1,0.177,0.3,0.354,0.399,0.619C1715.399,164.65,1715.699,163.853,1715.699,162.792L1715.699,162.792z M1608.5,162.968
				c0.699-0.088,0.699,0.354,1.199,0c0-0.176,0-0.265,0-0.354C1609,162.527,1608.399,162.261,1608.5,162.968z M1833.199,164.207
				c-0.3,0.266-0.199,0.885-0.199,1.328c1.899-0.619,3.399-0.619,5.5-0.266c-0.301-0.443-1.5-0.354-1.5-0.973
				C1835.899,165.269,1835.199,163.942,1833.199,164.207z M1606.3,162.349c-0.2,0.443,0.6,0.266,0.699,0.619
				c0.601-0.088,1-0.795,0.5-1.149C1606.899,161.819,1606.399,161.908,1606.3,162.349L1606.3,162.349z M1686.899,162.968
				c0.2,0.266,0.4,0.443,0.5,0.708c0.5,0,0.7-0.177,1-0.177C1688.199,163.146,1687.699,162.968,1686.899,162.968L1686.899,162.968z
				 M1569.399,162.083c0.4,0.266,0.9,0.09,1.4,0c-0.101-0.176-0.2-0.265-0.2-0.529
				C1569.899,161.464,1569.3,161.464,1569.399,162.083L1569.399,162.083z M1694.699,162.88c-0.1,0.354,0.101,0.442,0.2,0.707
				c0.4-0.088,0.5-0.354,0.5-0.707C1695.1,162.88,1694.899,162.88,1694.699,162.88z M1689.399,161.819c0,0.442,0.6,0.53,0.5,0.974
				c1.2-0.266,0.7,0.619,1.6,0.53C1691.199,162.615,1690.499,162.083,1689.399,161.819L1689.399,161.819z M1697.499,161.111
				c-0.6-0.088-0.699,0.178-0.699,0.619c-0.7,0-0.5-0.53-1.2-0.53c0.3,0.442,0,0.796-0.5,1.149c1.2,0.619,3,0.797,4.6,1.063
				C1699.1,162.615,1697.199,162.615,1697.499,161.111L1697.499,161.111L1697.499,161.111z M1779.899,163.587
				c0,1.238,2.3,0.354,3.6,0.531c-0.1-0.177-1.3-0.354-0.5-0.619C1782.6,163.5,1781.1,164.384,1779.899,163.587z M1766.999,163.677
				c0.101,0.265,0.801,0.088,0.801,0.354c0.199-0.089,0.3-0.178,0.5-0.178c0-0.088,0-0.266,0-0.354
				C1767.8,163.5,1767.399,163.5,1766.999,163.677z M1703.6,161.376c-0.9,1.238,0.3,2.301,2.1,1.681c0-0.265-0.4-0.354-0.9-0.354
				c0-0.62,1.2-0.442,1.2-1.149C1704.899,161.642,1704.499,161.289,1703.6,161.376L1703.6,161.376z M1721.699,163.234
				c1.2-0.266,1.7-0.354,2.9,0c0.5-0.266,0.399-0.973,1-1.15c-0.5-0.441-1.2-0.529-1.9-0.176c0.6-0.973,2.1-1.15,3.9-1.063
				c-0.801-0.53,0.399-0.707-0.2-1.326c-1.3,0.354-2,0-2.7,0.619c-0.8-0.088-0.3-0.619-0.199-0.973c-0.4,0.088-0.4,0.53-1.2,0.354
				c0.399,0.442,0.8,1.062-0.2,1.15c0.7,0.973-0.7,1.326,0.5,1.857c-0.5-0.089-1.5-0.354-1.9,0
				C1722.199,162.792,1722.1,162.88,1721.699,163.234L1721.699,163.234L1721.699,163.234z M1752.699,162.968
				c0,0.266,0.4,0.354,0.3,0.619c0.5,0,0.601-0.088,0.9-0.176C1753.699,163.057,1753.499,162.792,1752.699,162.968L1752.699,162.968
				z M1760.499,161.023c-0.399,0.266-1.199,0.266-1.199,0.796c0.699-0.177,1.5,0,1.899-0.177c1.101,0.354,0.4,0.973,0.2,1.681
				c0.8,0.177,1.7,0.354,2.4,0.177c-0.801-0.619-1.5-1.326-0.7-2.3c-0.8-0.177-1-0.619-1.9-0.708c-0.1-0.441,1.601,0.266,1.2-0.441
				c-1.9,0.441-1.8-0.619-3.1-0.531c0.6,0.442-0.4,0.088-0.301,0.619C1760.1,160.05,1759.899,160.845,1760.499,161.023z
				 M1742.999,161.996c0,0.531,0.801,0.619,0.9,1.15c0.6-0.442,1.1,0.177,1.5-0.178c-0.6-0.973,1.3-0.885,1.5-1.769
				c-1.4-0.619-1.9,0.796-3.6,0.442C1743.399,161.819,1743.3,161.908,1742.999,161.996L1742.999,161.996z M1867.899,163.942
				c0.4,0.265,1.1,0.354,1.9,0.354C1869.999,163.234,1868.399,163.765,1867.899,163.942z M1732.8,161.111
				c0.199,0.266,0.6,0.354,0.699,0.708c0.601-0.089,1.5-0.265,1.101,0.53c1.8-0.441,3.5-0.885,4-2.123c0.6,0.619,3.6,1.15,4.3,0.354
				c0-0.53-1.1-0.266-1-0.796c-0.8-0.089-0.1,0.796-1,0.619c-0.8,0.177-0.3-0.531-0.7-0.619c-1.699,0.354-4.8,0.796-5.6,1.592
				C1734.1,161.289,1733.6,161.111,1732.8,161.111L1732.8,161.111z M1775.8,161.996c0,0.619,1,0.619,1.699,0.708
				c0.4-0.53,0.601-1.062,0.301-1.327c-0.801,0-0.2,0.266-0.5,0.797C1776.499,162.261,1776.6,161.819,1775.8,161.996L1775.8,161.996
				z M1913.3,163.676c0.199,0.62,2.1,0.266,2.699,0.177c-0.5-0.354-1.199-0.53-2.199-0.53
				C1913.699,163.412,1913.6,163.587,1913.3,163.676z M1691.399,159.341c-1.2,0-1.2,0.797-1.7,1.328c-0.8,0-0.8-0.619-1.899-0.531
				c0,1.238,1.1,0.619,2.199,0.707c1.801,0.089,4.2,0.178,5.5,0.354c0-0.266-0.399-0.354-0.3-0.619c0-0.177,0.4-0.177,0.7-0.177
				c-0.2-0.442-0.7-0.797-1.4-0.973C1694.299,160.669,1690.399,161.023,1691.399,159.341L1691.399,159.341L1691.399,159.341z
				 M1719.999,161.2c0.9-0.177,0.601,0.442,1.4,0.354c-0.2-0.974,0.3-0.974,1-0.974c-0.2-0.442-1-0.619-1-1.149
				c-0.5,0.088-0.6,0.354-1.4,0.265C1721.399,160.226,1719.699,160.138,1719.999,161.2z M1700.199,160.845
				c1-0.088,1-0.619,2.2-0.265c-0.5-0.354-1.3-0.53-2.4-0.53C1699.899,160.404,1700.499,160.404,1700.199,160.845L1700.199,160.845
				L1700.199,160.845z M1752.699,161.111c-0.5-0.177-1.1,0-1.9-0.354c0,0.266,0.4,0.354,0.301,0.619c0.899,0,0.6-0.177,1.399,0
				C1752.499,161.2,1752.6,161.111,1752.699,161.111z M1819.399,161.819c0.2,0,0.2-0.089,0.2-0.177s0-0.266,0-0.442
				c-0.4,0.354-1.101,0.089-1.101-0.354c-1-0.176-1.1,0.266-1.7,0.443C1817.1,161.996,1818.999,161.554,1819.399,161.819z
				 M1773.699,160.845c0.3,0.443,1.2,0.178,1.9,0c-0.4-0.176-0.301-0.707-0.7-0.973C1774.1,159.785,1774.6,160.845,1773.699,160.845
				L1773.699,160.845z M1902.899,161.376c-0.3,0.178-1,0.178-1,0.619c1,0,1.3-0.266,1.899,0.178
				C1904.6,161.819,1902.899,161.642,1902.899,161.376L1902.899,161.376z M1894.6,161.289c0.1,0,0.1-0.089,0.199-0.089
				c-0.3,0.089-0.5,0-0.8,0C1894.199,161.2,1894.399,161.289,1894.6,161.289L1894.6,161.289z M1896.799,161.289
				c-0.6-0.885-1.1-0.178-2-0.089C1895.499,161.111,1896.299,161.464,1896.799,161.289z M1893.999,161.2
				c-2.5-0.266-5.7-1.415-7.8-0.354C1888.299,161.73,1891.299,161.464,1893.999,161.2z M1764.999,160.05
				c0.4-0.885-1.6-1.238-1.399-0.178C1764.299,159.785,1764.299,160.138,1764.999,160.05z M1746.799,158.9
				c0.101-0.797-1.1-0.619-1-1.327c-0.699,0.708-1.1-0.089-2.399,0c0.3,0.442,0.6,0.796,1,1.149
				C1745.399,158.546,1745.799,158.9,1746.799,158.9z M1735.899,158.103c-0.8,0.178-0.9,0.354-1.9,0.178
				C1733.899,158.812,1736.299,158.722,1735.899,158.103z M1903.999,159.431c-1-0.178-1.7,0-2.6-0.531
				c-0.3,0.266-1.3,0.177-1.2,0.796C1901.6,159.607,1903.699,160.757,1903.999,159.431L1903.999,159.431L1903.999,159.431z
				 M1907.899,159.961c0.2-1.149-3-1.062-2.9,0C1905.899,160.315,1906.699,159.873,1907.899,159.961z M1909.299,159.519
				c2,1.326,6.101,0.177,8.7,0.707c0.5-0.885-1.5-1.149-1.7-0.53C1913.699,158.988,1911.999,159.341,1909.299,159.519
				L1909.299,159.519z M1880.299,158.369c-1.699,0.354-5.399-0.53-7,0.443c1.4,1.061,4.301,0.354,6.7,0.529
				C1880.1,158.722,1880.699,158.9,1880.299,158.369z M1915.6,158.458c-0.101-0.177-0.301-0.266-0.2-0.53
				c-0.9,0.088-2.101-0.531-2.4,0.176c-0.2,0.443,0.8,0.178,0.7,0.619C1914.399,158.281,1914.999,158.634,1915.6,158.458z
				 M1780.799,157.308C1780.699,157.308,1780.699,157.308,1780.799,157.308C1780.699,157.308,1780.799,157.308,1780.799,157.308
				C1780.699,157.308,1780.699,157.308,1780.799,157.308z M1780.699,157.308c-0.1-0.178-0.1-0.443-0.6-0.354
				C1779.999,157.308,1780.299,157.218,1780.699,157.308z M1704.1,158.458c-0.5,0.089-1.101-0.442-2.101-0.53
				c-0.2,0.707,1.5,0.265,1.7,0.795C1703.899,158.722,1703.799,158.369,1704.1,158.458L1704.1,158.458z M1863.199,161.908
				c-0.5,0.441-0.5,0.885,0,1.326c3.6-0.619,7.7,0.178,11.1-0.531c0.2,0.178,0.4,0.354,0.5,0.531c7.101,0,15.5,0.619,23.101,0.266
				c3.399,0.885,10.5,0.354,14.399,0.619c-1.8-1.681-7.1-0.531-9.399-0.885c-0.7,0-1.2,0.178-1.7,0.442
				c-2.4-0.53-4.3-0.53-6.2-1.238c-4.899,0.619-8.899-1.238-12.5,0c-0.8,0-0.1-0.974-1.2-0.708c-0.3-0.441,0.5-0.973,0-0.973
				c-1,0.354-1.6,0.354-2.1-0.354c-1.1,0-1.6,0.441-2.9,0.266c-0.3,0.441-0.199,0.53,0.2,0.973c-0.7,0.088-1.399,0.266-1.899,0.619
				c-0.5-0.266-0.7-0.707-1.601-0.707c0.5-0.62,1.3-0.266,2.601-0.266c-0.9-0.708,0.899-0.531,0.5-1.327
				c-2.101,0.53-3.4,0.177-5.801-0.089c-0.199,1.062-1.699,0.885-2.699,0.973c-0.301,0.531,0,0.354,0,0.974
				C1866.1,162.083,1865.6,161.642,1863.199,161.908z M1676.799,158.546c0.101,0,0.2,0,0.301,0c-0.101-0.089-0.2-0.178-0.2-0.266
				C1676.999,158.369,1676.899,158.458,1676.799,158.546L1676.799,158.546z M1676.799,158.546c-0.199,0-0.5-0.089-0.6,0.088
				C1676.499,158.634,1676.699,158.634,1676.799,158.546z M1680.899,157.219c-0.4,0.442-1.101,0.708-1.5,1.149
				c-0.9-0.088-1.5,0-2.2,0.178c0.4,0.176,1.3,0.176,1,0.885c1-0.531,1.6-0.354,3.1-0.266c0-0.266-0.1-0.531,0.2-0.531
				C1680.699,158.281,1680.6,158.015,1680.899,157.219z M1865.699,155.361c-0.3-0.619-0.7,0.089-1.2,0.178
				c0.7,1.592-2,0.354-2.7,0.796c0,0.708,0.9,0.885,1.601,1.149c0.7-0.53,1.399-0.619,2.399-0.619
				C1865.399,156.689,1864.199,155.273,1865.699,155.361L1865.699,155.361z M1665.799,161.73c2.4,0,6.5-0.176,7.7,1.857
				c0.8-0.441,2.101-0.619,3.601-0.619c0.199-0.265-0.101-0.354-0.4-0.354c0.1-0.441,1.3-0.088,1.9-0.177
				c0.199,0.089,0.199,0.354,0.199,0.974c1-0.178,1.2,0.265,1.9,0.354c0.7-0.089,1.4-0.266,1.2-0.973
				c1.899-0.089,1.699,1.238,3.6,0.707c-0.6-0.973,0.5-0.619,0.7-1.326c0.899-0.09,1.6,0,2.199,0.176c0-0.441-1-0.354-1-0.795
				c-4.5,1.857-4.5-2.478-7,0.441c-2.5-0.531-4-0.619-6.5,0.088c-0.6-0.088-0.3-0.707-0.899-0.707c0.3-0.619,1.399,0.178,1.7-0.619
				c-0.801,0.177-2.7,0.088-3.601-0.531c-0.5,0.089-0.6,0.443-1,0.619c-1.399-0.795-4.5-0.619-6.5-0.088
				C1664.499,160.934,1665.499,161.023,1665.799,161.73L1665.799,161.73L1665.799,161.73z M1713.6,161.819
				c1.8-0.708,4,0.265,5.3-1.062c-0.5-0.266-1.7,0-1.2-0.973c-0.8-0.089-1-0.531-1.9-0.178c-0.199-0.088-0.399-0.266-0.399-0.619
				c1-0.619,2.7-0.354,4.6-0.441c-0.899-0.178-0.7-0.531-0.5-1.15c-0.8,0.177-1.399,0.442-1.899,0.797c-1.9-0.797-4.301,0-6-0.354
				c0.5,0.796,2.5,0.619,3.399,1.149c0.101,0.531-0.8,0.354-0.5,0.974c0.3,0,0.7,0,1,0
				C1714.499,160.404,1714.399,161.376,1713.6,161.819L1713.6,161.819z M1856.299,162.083c1-0.354,1.4,0,1.2,0.797
				c2.3-0.354,2.8,0.796,4.3-0.088c-0.399-1.416,0.9-1.682,1.5-2.301c-1.199-0.441-3.6,0.178-5.3-0.266
				c-0.2,0.531-0.6,0.797-1.5,0.797C1856.699,161.554,1856.299,161.642,1856.299,162.083L1856.299,162.083z M1764.999,161.642
				c-0.1,0.266-0.399,0.441-0.7,0.531c0.601,0.354,2.101,0.088,1.9,0.884c0.4-0.442,0.2-0.53,1.2-0.354
				c-1.5-0.795,1.399-1.592-0.2-1.68c0.2-0.266,1.4,0,2-0.089c0.3,0.177,0.3,0.62,0.7,0.796c-0.2,0.354-0.9,0.354-1.2,0.531
				c0,0.266,0.7,0.177,0.5,0.619c1.1,0.088,2,0.088,2.6-0.266c0.5,0.089,0.601,0.354,0.5,0.708c0.2,0,0.601,0,0.9,0
				c0-0.266,0.1-0.354,0.3-0.354c-1-0.795,0.2-1.414-0.899-1.857c0.399-0.088,0.5-0.53,1-0.619c-0.2-0.354-0.9-0.354-1.2-0.53
				c0.6-1.504,1.899-0.53,3.399-0.796c-1.3-1.504-3.6-0.354-5.6-0.089c-0.3-0.089-0.4-0.354-0.5-0.619
				c-0.5,0.265-1.5,0.265-0.9-0.354c-0.3,0.178-0.699,0.266-1.199,0.178c-0.101-0.354,0.199-0.354,0.5-0.354
				c-0.2-0.178-0.601-0.178-0.5-0.531c-1.5,0-1.601,0.973-2.5,1.416c0.8,0.441,1.5,0.795,2.399,0.707c-0.1,0.885-2.5,0.088-2,1.415
				c0.301,0,0.601,0,0.9,0c0,0.089,0,0.266,0,0.354c-0.6,0.354-1.8-0.266-2.1-0.708c-0.4,0.089-0.7,0.177-0.7,0.619
				C1764.399,161.023,1764.6,161.376,1764.999,161.642L1764.999,161.642L1764.999,161.642z M1685.799,157.838
				c-0.3,0.177-1,0.177-1,0.619c-0.399-0.266-1-0.354-1.199-0.708c-0.7-0.088-0.5,0.531-1.4,0.354c-0.1,0.443-0.1,0.619-0.5,1.15
				c1.4-0.441,2.1,0.619,3.3,0.178c0.9,0.53,0.2,0.884,0.5,1.68c0.9-0.177,0.7-1.149,1-1.77c1,0.443,2.2-0.176,2-1.149
				c-1.2,0-1-0.089-2,0c-0.3,0.177-0.1,0.796-0.7,0.796C1684.799,158.812,1685.999,158.458,1685.799,157.838L1685.799,157.838
				L1685.799,157.838z M839.799,164.738c0,0.354,0,0.797,0,1.15c0.301,0,0.5,0,0.7,0C840.6,165.269,840.1,165.003,839.799,164.738z
				 M883.6,164.738c0.6,1.062,2.199,0,3.399,0c0.2,0.354,2.3,0.619,2.101-0.177C887.299,164.296,885.1,164.826,883.6,164.738z
				 M931.199,163.765c1.1,0.973,3.1,0.707,2.9-0.797C933.1,163.587,931.799,162.968,931.199,163.765z M685.499,165.71
				c0.4,0.266,0.8,0.443,1.7,0.354c0.1-0.619-0.1-1.062-0.7-1.149C686.1,165.18,685.699,165.357,685.499,165.71L685.499,165.71z
				 M810.1,163.412c-0.4,1.68,3.699,0.973,1.899-0.178C811.199,163.234,810.6,163.323,810.1,163.412z M635.399,166.33
				c0.3-0.53,0.8-0.53,1.5-0.354C637.1,164.826,634.6,165.976,635.399,166.33z M731.999,164.296c-0.2,0-0.5,0-0.7,0
				c-0.1,0.441,0,0.707,0.7,0.619C731.999,164.738,731.999,164.472,731.999,164.296z M732.999,164.119c0-0.088,0-0.266,0-0.354
				c0.2,0,0.6,0,0.9,0c0.1-0.442-0.4-0.266,0-0.619c-0.7,0.088-1.9-0.178-1.9,0.354
				C733.099,163.412,731.699,164.207,732.999,164.119z M651.099,164.826c0.4,0.531,1-0.176,1.7,0c0-0.176,0-0.354,0-0.619
				C651.799,164.119,651.299,164.384,651.099,164.826z M583.899,162.792c-0.2,1.061,0.199,1.857,1.699,1.769
				c0.101-0.265,0.301-0.354,0.4-0.619C585.199,163.676,584.599,163.146,583.899,162.792L583.899,162.792z M689.799,162.615
				c0,0.089,0,0.266,0,0.354c0.5,0.354,0.5-0.088,1.2,0C691.099,162.261,690.399,162.527,689.799,162.615z M460.999,165.357
				c2.1-0.354,3.7-0.354,5.6,0.266c-0.1-0.531,0.101-1.062-0.3-1.326c-2-0.354-2.7,0.973-3.8,0
				C462.499,164.916,461.299,164.738,460.999,165.357L460.999,165.357z M691.999,161.73c-0.5,0.354-0.2,1.063,0.5,1.15
				c0.1-0.266,0.9-0.088,0.7-0.619C692.999,161.908,692.499,161.819,691.999,161.73L691.999,161.73z M610.999,163.5
				c0.3,0.088,0.5,0.266,1,0.177c0.1-0.265,0.3-0.442,0.5-0.708C611.799,162.968,611.299,163.146,610.999,163.5L610.999,163.5z
				 M728.599,162.083c0.5,0.09,1,0.354,1.4,0c0.1-0.529-0.5-0.529-1.2-0.529C728.799,161.819,728.699,161.908,728.599,162.083z
				 M604.099,162.88c-0.1,0.442,0.101,0.619,0.5,0.707c0.101-0.265,0.301-0.354,0.2-0.707
				C604.599,162.88,604.299,162.88,604.099,162.88z M607.999,163.323c0.8,0.089,0.4-0.796,1.6-0.53c0-0.443,0.601-0.531,0.5-0.974
				C608.899,162.083,608.299,162.615,607.999,163.323L607.999,163.323z M599.699,163.412c1.7-0.266,3.4-0.531,4.6-1.063
				c-0.5-0.354-0.8-0.707-0.5-1.149c-0.7,0-0.5,0.53-1.2,0.53c0.101-0.441-0.1-0.707-0.699-0.619
				C602.299,162.615,600.399,162.615,599.699,163.412L599.699,163.412L599.699,163.412z M515.899,164.207
				c1.3-0.176,3.6,0.709,3.6-0.529c-1.2,0.707-2.6-0.178-3.1-0.178C517.299,163.765,515.999,164.031,515.899,164.207
				L515.899,164.207L515.899,164.207z M531.199,163.5c0,0.178,0,0.266,0,0.354c0.2,0,0.2,0.178,0.4,0.178
				c0-0.266,0.699-0.089,0.8-0.354C531.999,163.5,531.699,163.5,531.199,163.5z M593.499,161.554c-0.1,0.707,1.1,0.53,1.2,1.149
				c-0.5,0-0.9,0.089-0.9,0.354c1.8,0.62,3-0.53,2.101-1.681C594.899,161.289,594.499,161.642,593.499,161.554L593.499,161.554z
				 M571.499,161.023c1.8-0.178,3.3,0.088,3.9,1.062c-0.7-0.354-1.4-0.266-1.9,0.177c0.6,0.266,0.5,0.885,1,1.15
				c1.2-0.354,1.7-0.266,2.9,0c-0.2-0.443-0.3-0.531,0.2-0.797c-0.4-0.354-1.4-0.088-1.9,0c1.2-0.619-0.1-0.973,0.5-1.857
				c-1-0.088-0.5-0.707-0.2-1.15c-0.7,0.089-0.8-0.265-1.2-0.354c0.2,0.354,0.601,0.885-0.2,0.973
				c-0.699-0.619-1.399-0.265-2.6-0.619C571.299,160.315,572.599,160.404,571.499,161.023L571.499,161.023z M545.599,163.323
				c0.301,0.089,0.4,0.265,0.9,0.177c0-0.266,0.3-0.354,0.3-0.619C545.999,162.792,545.799,163.057,545.599,163.323z
				 M535.699,163.412c0.7,0.266,1.6,0,2.399-0.178c-0.199-0.707-0.8-1.326,0.2-1.68c0.4,0.265,1.2,0,1.9,0.176
				c0-0.53-0.8-0.53-1.2-0.795c0.6-0.178,0.4-0.885,1.5-0.797c0.1-0.531-0.9-0.177-0.3-0.619c-1.3-0.088-1.2,0.973-3.1,0.531
				c-0.4,0.619,1.199,0,1.199,0.441c-0.899,0.089-1.1,0.531-1.899,0.708C537.199,162.173,536.499,162.792,535.699,163.412
				L535.699,163.412z M552.399,161.2c0.199,0.884,2.1,0.796,1.5,1.769c0.399,0.354,0.899-0.176,1.5,0.178
				c0.1-0.531,0.899-0.619,0.899-1.15c-0.1-0.088-0.3-0.177-0.2-0.354C554.399,161.908,553.899,160.492,552.399,161.2L552.399,161.2
				z M429.699,164.296c0.8,0,1.5-0.09,1.899-0.354C431.099,163.765,429.499,163.234,429.699,164.296z M556.599,160.669
				c0.601,0.885,3.7,0.266,4.301-0.354c0.5,1.327,2.3,1.681,4,2.123c-0.4-0.884,0.5-0.708,1.1-0.53c0.1-0.354,0.4-0.443,0.7-0.708
				c-0.8-0.089-1.4,0.089-1.9,0.177c-0.8-0.885-3.899-1.326-5.6-1.592c-0.4,0.088,0.1,0.796-0.7,0.619c-0.9,0.177-0.2-0.708-1-0.619
				C557.699,160.315,556.499,160.138,556.599,160.669L556.599,160.669z M521.699,161.376c-0.2,0.266-0.101,0.885,0.3,1.327
				c0.7-0.177,1.7-0.089,1.7-0.708c-0.8-0.088-0.7,0.266-1.5,0.178C521.899,161.642,522.499,161.376,521.699,161.376
				L521.699,161.376z M608.099,159.431c0.9,1.592-3,1.238-3.1,0c-0.7,0.176-1.2,0.441-1.4,0.973c0.301,0,0.601,0,0.7,0.177
				c0,0.265-0.3,0.354-0.3,0.619c1.2-0.177,3.7-0.265,5.5-0.354c1.1-0.088,2.2,0.443,2.2-0.707c-1.1-0.088-1.1,0.531-1.9,0.531
				C609.299,160.226,609.399,159.341,608.099,159.431L608.099,159.431z M577.999,161.554c0.8,0.088,0.5-0.531,1.4-0.354
				c0.3-1.062-1.4-0.974,0-1.504c-0.7,0.177-0.9-0.177-1.4-0.265c-0.1,0.53-0.8,0.707-1,1.149
				C577.799,160.581,578.299,160.581,577.999,161.554z M599.399,160.05c-1.101,0-1.9,0.176-2.4,0.53c1.2-0.354,1.2,0.089,2.2,0.265
				C598.999,160.404,599.6,160.404,599.399,160.05L599.399,160.05z M546.899,161.289c0.7-0.178,0.5,0,1.399,0
				c0-0.266,0.301-0.354,0.301-0.619c-0.7,0.266-1.4,0.176-1.9,0.354C546.899,161.111,546.999,161.2,546.899,161.289z
				 M523.799,160.845c0.601,0.178,1.601,0.531,1.9,0c-0.9,0.09-0.3-0.973-1.2-0.973C524.1,160.05,524.299,160.669,523.799,160.845z
				 M535.799,159.873c0.301-1.061-1.8-0.707-1.399,0.178C535.1,160.138,535.1,159.785,535.799,159.873z M555.1,158.722
				c0.399-0.354,0.699-0.707,1-1.149c-1.301-0.089-1.7,0.62-2.4,0c0.1,0.708-1.1,0.62-1,1.327
				C553.699,158.9,553.999,158.546,555.1,158.722z M565.399,158.281c-1,0.177-1.101,0-1.9-0.178
				C563.199,158.722,565.599,158.812,565.399,158.281z M655.6,155.892c0.3-0.885,2.699-0.088,2.899-0.707
				c-0.7,0.088-1.2,0.088-1-0.443c-1.3-0.265-0.899,0.709-2.1,0.531c-0.101,0.707,0.1,1.238,0.5,1.592
				c1.5-0.265,3.399,0.089,4.399-1.149c-1.399,0.089-1.899,0.089-2.899,0.53C657.199,155.892,655.899,156.334,655.6,155.892
				L655.6,155.892L655.6,155.892z M224.099,157.308c1.1,0.53,2.2-0.354,3.6-0.178C226.999,156.246,224.399,156.6,224.099,157.308z
				 M518.799,157.308c0.301,0,0.7,0,0.601-0.354C518.899,156.865,518.799,157.042,518.799,157.308z M518.799,157.308
				C518.699,157.308,518.699,157.308,518.799,157.308L518.799,157.308C518.699,157.308,518.699,157.308,518.799,157.308z
				 M597.499,157.838c-1,0.089-1.6,0.619-2.1,0.53c0.2,0,0.2,0.266,0.399,0.354C595.999,158.193,597.699,158.722,597.499,157.838
				L597.499,157.838z M622.699,158.546c0.1,0.088,0.3,0.088,0.6,0.088C623.199,158.458,622.899,158.458,622.699,158.546z
				 M622.299,158.546c0.101,0,0.2,0,0.301,0c-0.101-0.089-0.101-0.178-0.101-0.266C622.499,158.369,622.399,158.458,622.299,158.546
				z M618.699,157.042c0.2,0.885,0.1,1.15-0.7,1.504c0.2,0.088,0.2,0.266,0.2,0.53c1.5-0.089,2-0.265,3.1,0.265
				c-0.3-0.707,0.601-0.619,1-0.884c-0.699-0.089-1.399-0.265-2.199-0.177C619.699,157.838,619.1,157.573,618.699,157.042
				L618.699,157.042L618.699,157.042z M611.1,162.261c0.6-0.178,1.3-0.266,2.199-0.178c0.101,0.709,1.301,0.443,0.7,1.328
				c1.9,0.53,1.7-0.797,3.601-0.708c-0.2,0.708,0.5,0.884,1.199,0.974c0.7-0.09,0.9-0.531,1.9-0.354c0-0.53,0-0.885,0.2-0.974
				c0.6,0.089,1.7-0.176,1.899,0.178c-0.199,0.088-0.5,0.088-0.399,0.354c1.6,0,2.8,0.088,3.6,0.531c1.2-1.947,5.3-1.77,7.7-1.857
				c0.2-0.619,1.3-0.709,2.1-0.885c-2-0.443-5.1-0.708-6.5,0.088c-0.399-0.088-0.5-0.531-1-0.619c-0.899,0.619-2.8,0.707-3.6,0.531
				c0.3,0.795,1.4,0,1.7,0.619c-0.601,0.088-0.3,0.707-0.9,0.707c-2.399-0.619-3.899-0.619-6.5-0.088c-2.5-2.92-2.5,1.415-7-0.443
				C611.999,161.996,610.999,161.819,611.1,162.261L611.1,162.261L611.1,162.261z M583.899,159.077c0,0.265-0.101,0.53-0.4,0.619
				c-0.899-0.354-1.1,0.089-1.899,0.177c0.399,0.885-0.7,0.708-1.2,0.973c1.3,1.328,3.5,0.354,5.3,1.063
				c-0.8-0.531-0.9-1.504-1.8-1.946c0.3,0,0.7,0,1,0c0.3-0.62-0.601-0.442-0.5-0.974c0.899-0.53,2.899-0.266,3.399-1.149
				c-1.699,0.354-4-0.442-6,0.354c-0.5-0.354-1.1-0.709-1.899-0.797c0.1,0.619,0.399,0.973-0.5,1.15
				C581.299,158.634,582.999,158.458,583.899,159.077L583.899,159.077L583.899,159.077z M613.499,158.988
				c-0.6,0-0.399-0.619-0.7-0.795c-1-0.178-0.8,0-2,0c-0.3,0.973,1,1.592,2,1.148c0.301,0.62,0.101,1.594,1,1.77
				c0.301-0.796-0.3-1.238,0.5-1.68c1.2,0.441,1.9-0.619,3.301-0.178c-0.4-0.531-0.301-0.707-0.5-1.15
				c-0.801,0.178-0.601-0.441-1.4-0.354c-0.2,0.354-0.8,0.443-1.2,0.708c0.1-0.442-0.6-0.354-0.9-0.619
				C613.399,158.458,614.599,158.812,613.499,158.988L613.499,158.988L613.499,158.988z M402.6,164.738c0,0.354,0,0.797,0,1.15
				c0.3,0,0.5,0,0.699,0C403.499,165.269,402.999,165.003,402.6,164.738z M446.499,164.738c0.601,1.062,2.2,0,3.4,0
				c0.2,0.354,2.3,0.619,2.1-0.177C450.199,164.296,447.999,164.826,446.499,164.738z M248.399,165.71
				c0.4,0.266,0.8,0.443,1.7,0.354c0.1-0.619-0.1-1.062-0.7-1.149C248.999,165.18,248.599,165.357,248.399,165.71L248.399,165.71z
				 M198.299,166.33c0.3-0.53,0.8-0.53,1.5-0.354C199.999,164.826,197.499,165.976,198.299,166.33z M294.899,164.296
				c-0.2,0-0.5,0-0.7,0c-0.1,0.441,0,0.707,0.7,0.619C294.899,164.738,294.899,164.472,294.899,164.296z M295.899,164.119
				c0-0.088,0-0.266,0-0.354c0.2,0,0.6,0,0.9,0c0.1-0.442-0.4-0.266,0-0.619c-0.7,0.088-1.9-0.178-1.9,0.354
				C295.999,163.412,294.499,164.207,295.899,164.119z M213.999,164.826c0.4,0.531,1-0.176,1.7,0c0-0.176,0-0.354,0-0.619
				C214.699,164.119,214.199,164.384,213.999,164.826z M146.799,162.792c-0.2,1.061,0.2,1.857,1.7,1.769
				c0.1-0.265,0.3-0.354,0.4-0.619C148.099,163.677,147.499,163.146,146.799,162.792L146.799,162.792z M252.699,162.615
				c0,0.089,0,0.266,0,0.354c0.5,0.354,0.5-0.088,1.2,0C253.999,162.261,253.299,162.527,252.699,162.615z M23.899,165.357
				c2.1-0.354,3.7-0.354,5.6,0.266c-0.1-0.531,0.1-1.062-0.3-1.326c-2-0.354-2.7,0.973-3.8,0
				C25.299,164.916,24.199,164.738,23.899,165.357z M254.899,161.73c-0.5,0.354-0.2,1.063,0.5,1.15c0.1-0.266,0.9-0.088,0.7-0.619
				C255.899,161.908,255.399,161.819,254.899,161.73L254.899,161.73z M173.899,163.5c0.3,0.088,0.5,0.266,1,0.178
				c0.1-0.266,0.3-0.443,0.5-0.709C174.599,162.968,174.199,163.146,173.899,163.5L173.899,163.5z M291.499,162.084
				c0.5,0.089,1,0.354,1.4,0c0.1-0.53-0.5-0.53-1.2-0.53C291.699,161.819,291.599,161.908,291.499,162.084L291.499,162.084z
				 M166.999,162.88c-0.1,0.354,0,0.619,0.5,0.707c0.1-0.265,0.3-0.354,0.2-0.707C167.499,162.88,167.199,162.88,166.999,162.88z
				 M170.899,163.323c0.8,0.089,0.4-0.796,1.6-0.53c0-0.443,0.6-0.531,0.5-0.974C171.799,162.084,171.199,162.615,170.899,163.323
				L170.899,163.323z M162.599,163.412c1.7-0.266,3.4-0.531,4.6-1.063c-0.5-0.354-0.8-0.707-0.5-1.149c-0.7,0-0.5,0.53-1.2,0.53
				c0.1-0.441-0.1-0.707-0.7-0.619C165.099,162.615,163.299,162.615,162.599,163.412L162.599,163.412L162.599,163.412z
				 M78.799,164.207c1.3-0.176,3.6,0.709,3.6-0.529c-1.2,0.707-2.6-0.178-3.1-0.178C80.099,163.765,78.899,164.031,78.799,164.207
				L78.799,164.207z M93.999,163.5c0,0.178,0,0.266,0,0.354c0.2,0,0.2,0.178,0.4,0.178c0-0.266,0.7-0.089,0.8-0.354
				C94.899,163.5,94.599,163.5,93.999,163.5z M523.899,158.9c1.6,0.266,2.899-0.707,3.399,0.796c-0.3,0.177-1,0.266-1.199,0.53
				c0.5,0.09,0.6,0.443,1,0.619c-1,0.443,0.199,1.063-0.9,1.858c0.2,0.089,0.4,0.177,0.3,0.354c0.3,0,0.6,0,0.9,0
				c0-0.443,0.1-0.709,0.5-0.709c0.5,0.266,1.5,0.354,2.6,0.266c-0.2-0.441,0.5-0.266,0.5-0.619c-0.3-0.266-1-0.266-1.2-0.531
				c0.4-0.176,0.4-0.619,0.7-0.795c0.6,0.088,1.8-0.266,2,0.088c-1.6,0.088,1.3,0.973-0.2,1.681c1-0.089,0.8-0.089,1.2,0.354
				c-0.2-0.885,1.3-0.619,1.9-0.885c-0.3-0.089-0.601-0.266-0.7-0.531c0.4-0.177,0.6-0.441,1.4-0.354
				c0.1-0.354-0.301-0.442-0.7-0.619c-0.2,0.441-1.4,1.061-2.101,0.707c0-0.088,0-0.266,0-0.354c0.2,0,0.601,0,0.9,0
				c0.5-1.238-1.9-0.531-2-1.415c0.9,0.089,1.6-0.266,2.4-0.708c-0.9-0.354-1-1.415-2.5-1.415c0.1,0.354-0.301,0.354-0.5,0.53
				c0.3,0.089,0.6,0.089,0.5,0.354c-0.5,0-0.9-0.088-1.2-0.176c0.6,0.619-0.4,0.619-0.9,0.354c-0.1,0.266-0.2,0.531-0.5,0.619
				c-0.6,0-1.3-0.177-1.899-0.354c0-0.089,0-0.089,0-0.089c-0.9-0.089-1.101-0.708-2.2-0.619c-0.3,0.354-0.101,0.53,0.1,0.708
				C524.899,158.634,524.199,158.546,523.899,158.9L523.899,158.9z M156.299,161.554c-0.1,0.707,1.1,0.53,1.2,1.149
				c-0.5,0-0.9,0.089-0.9,0.354c1.8,0.619,3-0.531,2.1-1.682C157.799,161.289,157.399,161.642,156.299,161.554L156.299,161.554z
				 M134.399,161.023c1.8-0.178,3.3,0.088,3.9,1.062c-0.7-0.354-1.4-0.266-1.9,0.177c0.6,0.266,0.5,0.885,1,1.15
				c1.2-0.354,1.7-0.266,2.9,0c-0.2-0.443-0.3-0.531,0.2-0.797c-0.4-0.354-1.4-0.088-1.9,0c1.2-0.619-0.1-0.973,0.5-1.857
				c-1-0.088-0.5-0.707-0.2-1.15c-0.7,0.089-0.8-0.265-1.2-0.354c0.2,0.354,0.6,0.885-0.2,0.973c-0.7-0.619-1.4-0.265-2.6-0.619
				C134.199,160.315,135.499,160.404,134.399,161.023L134.399,161.023z M108.499,163.323c0.3,0.089,0.4,0.265,0.9,0.177
				c0-0.266,0.3-0.354,0.3-0.619C108.899,162.792,108.699,163.057,108.499,163.323z M98.499,163.412c0.7,0.266,1.6,0,2.4-0.178
				c-0.2-0.707-0.8-1.326,0.2-1.68c0.4,0.265,1.2,0,1.9,0.176c0-0.53-0.8-0.53-1.2-0.795c0.6-0.178,0.4-0.885,1.5-0.797
				c0.1-0.531-0.9-0.177-0.3-0.619c-1.3-0.088-1.2,0.973-3.1,0.531c-0.4,0.619,1.2,0,1.2,0.441c-0.9,0.089-1.1,0.531-1.9,0.708
				C100.099,162.173,99.399,162.792,98.499,163.412z M115.299,161.2c0.2,0.885,2.1,0.796,1.5,1.769c0.4,0.354,0.9-0.176,1.5,0.178
				c0.1-0.531,0.9-0.619,0.9-1.15c-0.1-0.088-0.3-0.177-0.2-0.354C117.299,161.908,116.799,160.492,115.299,161.2L115.299,161.2z
				 M119.499,160.669c0.6,0.885,3.7,0.266,4.3-0.354c0.5,1.327,2.3,1.681,4,2.123c-0.4-0.884,0.5-0.708,1.1-0.53
				c0.1-0.354,0.4-0.443,0.7-0.708c-0.8-0.089-1.4,0.089-1.9,0.177c-0.8-0.885-3.9-1.326-5.6-1.592c-0.4,0.088,0.1,0.796-0.7,0.619
				c-0.9,0.177-0.2-0.708-1-0.619C120.499,160.316,119.399,160.138,119.499,160.669z M84.499,161.376
				c-0.2,0.266-0.1,0.885,0.3,1.327c0.7-0.177,1.7-0.089,1.7-0.708c-0.8-0.088-0.7,0.266-1.5,0.178
				C84.799,161.642,85.399,161.376,84.499,161.376L84.499,161.376z M170.999,159.431c0.9,1.592-3,1.238-3.1,0
				c-0.7,0.176-1.2,0.441-1.4,0.973c0.3,0,0.6,0,0.7,0.177c0,0.265-0.3,0.354-0.3,0.619c1.2-0.177,3.7-0.265,5.5-0.354
				c1.1-0.088,2.2,0.443,2.2-0.707c-1.1-0.088-1.1,0.531-1.9,0.531C172.199,160.226,172.299,159.342,170.999,159.431
				L170.999,159.431z M140.899,161.554c0.8,0.088,0.5-0.531,1.4-0.354c0.3-1.062-1.4-0.974,0-1.504c-0.7,0.177-0.9-0.177-1.4-0.265
				c-0.1,0.53-0.8,0.707-1,1.149C140.599,160.581,141.099,160.581,140.899,161.554L140.899,161.554z M162.299,160.05
				c-1.1,0-1.9,0.176-2.4,0.53c1.2-0.354,1.2,0.089,2.2,0.265C161.899,160.404,162.399,160.404,162.299,160.05L162.299,160.05z
				 M109.799,161.289c0.7-0.178,0.5,0,1.4,0c0-0.266,0.3-0.354,0.3-0.619c-0.7,0.266-1.4,0.176-1.9,0.354
				C109.799,161.111,109.899,161.2,109.799,161.289z M45.499,161.289c-0.5-0.089-0.7-0.619-1.7-0.443c0,0.443-0.7,0.709-1.1,0.354
				c0,0.089,0,0.265,0,0.442c0,0.088,0,0.177,0.2,0.177C43.299,161.554,45.299,161.996,45.499,161.289z M86.699,160.845
				c0.6,0.178,1.6,0.531,1.9,0c-0.9,0.09-0.3-0.973-1.2-0.973C86.999,160.05,87.099,160.669,86.699,160.845z M98.699,159.873
				c0.3-1.061-1.8-0.707-1.4,0.178C97.999,160.138,97.999,159.785,98.699,159.873z M117.999,158.722c0.4-0.354,0.7-0.707,1-1.148
				c-1.2-0.09-1.7,0.619-2.4,0c0.1,0.707-1.1,0.619-1,1.326C116.599,158.9,116.899,158.546,117.999,158.722z M128.299,158.281
				c-1,0.177-1.1,0-1.9-0.178C125.999,158.722,128.499,158.812,128.299,158.281z M218.499,155.892c0.3-0.885,2.7-0.088,2.9-0.707
				c-0.7,0.088-1.2,0.088-1-0.443c-1.3-0.265-0.9,0.709-2.1,0.531c-0.1,0.707,0.1,1.238,0.5,1.592c1.5-0.265,3.4,0.089,4.4-1.149
				c-1.4,0.089-1.9,0.089-2.9,0.53C220.099,155.892,218.799,156.334,218.499,155.892L218.499,155.892L218.499,155.892z
				 M81.599,157.308L81.599,157.308L81.599,157.308L81.599,157.308z M81.699,157.308c0.3,0,0.7,0,0.6-0.354
				C81.699,156.865,81.699,157.042,81.699,157.308z M160.399,157.838c-1,0.089-1.6,0.619-2.1,0.53c0.2,0,0.2,0.266,0.4,0.354
				C158.899,158.193,160.499,158.722,160.399,157.838L160.399,157.838z M181.599,157.042c0.2,0.885,0.1,1.15-0.7,1.504
				c0.2,0.088,0.2,0.266,0.2,0.53c1.5-0.089,2-0.265,3.1,0.266c-0.3-0.708,0.6-0.62,1-0.885c-0.7-0.089-1.4-0.265-2.2-0.177
				C182.599,157.838,181.899,157.574,181.599,157.042L181.599,157.042L181.599,157.042z M185.199,158.546c0.1,0,0.2,0,0.3,0
				c-0.1-0.089-0.1-0.178-0.1-0.266C185.399,158.369,185.299,158.458,185.199,158.546z M185.499,158.546
				c0.1,0.088,0.3,0.088,0.6,0.088C186.099,158.458,185.799,158.458,185.499,158.546z M-0.001,156.334v0.442
				c0.2-0.177,0.6-0.177,0.6-0.442C0.499,156.246,0.199,156.334-0.001,156.334z M173.999,162.173c0.6-0.178,1.3-0.266,2.2-0.178
				c0.1,0.708,1.3,0.442,0.7,1.327c1.9,0.53,1.7-0.796,3.6-0.708c-0.2,0.708,0.5,0.885,1.2,0.973c0.7-0.088,0.9-0.53,1.9-0.354
				c0-0.53,0-0.885,0.2-0.973c0.6,0.088,1.7-0.177,1.9,0.177c-0.2,0.089-0.5,0.089-0.4,0.354c1.6,0,2.8,0.088,3.6,0.619
				c1.2-1.947,5.3-1.77,7.7-1.857c0.2-0.619,1.3-0.709,2.1-0.885c-2-0.443-5.1-0.708-6.5,0.088c-0.4-0.088-0.5-0.531-1-0.619
				c-0.9,0.619-2.8,0.707-3.6,0.531c0.3,0.795,1.4,0,1.7,0.619c-0.6,0.088-0.3,0.707-0.9,0.707c-2.4-0.619-3.9-0.619-6.5-0.088
				c-2.5-2.92-2.5,1.415-7-0.443C174.899,161.996,173.899,161.819,173.999,162.173L173.999,162.173z M146.799,159.077
				c0,0.266-0.1,0.53-0.4,0.619c-0.9-0.354-1.1,0.089-1.9,0.177c0.4,0.885-0.7,0.708-1.2,0.973c1.3,1.328,3.5,0.354,5.3,1.063
				c-0.8-0.531-0.9-1.504-1.8-1.946c0.3,0,0.7,0,1,0c0.3-0.619-0.6-0.442-0.5-0.974c0.9-0.53,2.9-0.266,3.4-1.149
				c-1.7,0.354-4-0.442-6,0.354c-0.5-0.354-1.1-0.709-1.9-0.797c0.1,0.619,0.4,0.973-0.5,1.15
				C144.199,158.634,145.899,158.458,146.799,159.077L146.799,159.077L146.799,159.077z M-0.001,160.404v1.504
				c0.2,0.266,0.7,0.354,0.5,0.796c1.5,0.974,2-0.177,4.4,0.177c-0.3-0.885,0.2-1.15,1.1-0.885c0-0.354-0.4-0.441-0.2-0.973
				c-0.9,0-1.3-0.266-1.5-0.797C2.899,160.581,1.299,160.316-0.001,160.404L-0.001,160.404z M86.599,158.988
				c1.6,0.266,2.9-0.707,3.4,0.797c-0.3,0.177-1,0.266-1.2,0.531c0.5,0.088,0.6,0.441,1,0.619c-1,0.441,0.2,1.061-0.9,1.857
				c0.2,0.088,0.4,0.176,0.3,0.354c0.3,0,0.6,0,0.9,0c0-0.442,0.1-0.708,0.5-0.708c0.5,0.266,1.5,0.354,2.6,0.266
				c-0.2-0.442,0.5-0.266,0.5-0.619c-0.3-0.266-1-0.266-1.2-0.53c0.4-0.178,0.4-0.619,0.7-0.797c0.6,0.088,1.8-0.266,2,0.088
				c-1.6,0.09,1.3,0.974-0.2,1.682c1-0.089,0.8-0.089,1.2,0.354c-0.2-0.885,1.3-0.619,1.9-0.885c-0.3-0.088-0.6-0.266-0.7-0.531
				c0.4-0.176,0.6-0.441,1.4-0.354c0.1-0.354-0.3-0.441-0.7-0.619c-0.2,0.443-1.4,1.063-2.1,0.708c0-0.089,0-0.265,0-0.354
				c0.2,0,0.6,0,0.9,0c0.5-1.238-1.9-0.53-2-1.414c0.9,0.088,1.6-0.266,2.4-0.709c-0.9-0.354-1-1.414-2.5-1.414
				c0.1,0.354-0.3,0.354-0.5,0.53c0.3,0.089,0.6,0.089,0.5,0.354c-0.5,0-0.9-0.09-1.2-0.178c0.6,0.619-0.4,0.619-0.9,0.354
				c-0.1,0.266-0.2,0.531-0.5,0.619C90.199,158.723,87.999,157.484,86.599,158.988L86.599,158.988L86.599,158.988z M176.899,158.193
				c0.9-0.09,1.6-0.09,1.9-0.531c-0.5-0.089-0.2-0.619-0.7-0.708c-0.3,0.442-1.2,0.53-1.2,1.149c-0.2-0.088-0.3-0.088-0.4-0.176
				c-0.2,0.619,1,0.973,0,1.149c-0.6,0-0.4-0.619-0.7-0.796c-1-0.178-0.8,0-2,0c-0.3,0.973,1,1.592,2,1.15
				c0.3,0.619,0.1,1.592,1,1.769c0.3-0.796-0.3-1.238,0.5-1.681c1.2,0.442,1.9-0.619,3.3-0.177c-0.4-0.53-0.3-0.708-0.5-1.149
				c-0.8,0.176-0.6-0.443-1.4-0.354c-0.2,0.354-0.8,0.442-1.2,0.708C177.499,158.193,177.199,158.103,176.899,158.193
				L176.899,158.193L176.899,158.193z M1919.999,157.396v-5.131h-1920v3.539c2-0.089,4.1,0.619,5.9-0.089
				c0.2,0.177,0.3,0.442,0.2,0.796c-1.7,0-3.5-0.266-3.5,1.504c0.3,0,0.8-0.088,0.9,0.178c-0.2,0.795-2,0.795-3.5,0.441v0.885
				c1.4-0.088,2.6-0.177,4.1,0.088c0.9-0.707,2.7-1.68,4.3-1.149c-0.3,0.619-1.9,0.354-1.9,1.149c2.4-0.619,6,0.531,9.4-0.088
				c-0.6,0,0.9-1.238,0.9-1.238c0.8-0.178,2.4-0.266,2.4,0.973c-0.9,0-1.8,0.089-2.4,0.354c3-0.088,7.3,0.797,10.3-0.088
				c0.2,0,0.4,0,0.6,0.088c0.3,0.354,1.1,0.354,1.6,0.619c-3.3,0.443-8.9,0-12,0.089c-0.3,0.53-0.9,0.796-1.6,1.149
				c-0.2-0.619,0.6-0.441,0.5-0.973c-1.3-0.53-2,0.089-3.9-0.266c-0.5,0.09,0,0.709-0.5,0.797c-0.7-0.178-1.6-1.062-2.4-0.619
				c0.6,0,0,0.707-0.2,0.796c-0.9-0.089-1.2,0.177-1.7,0.354c0-0.531-0.5-0.709-0.3-1.328c-0.4,0-0.8,0-1.2,0
				c0.3,0.797,1,1.239,1.5,1.947c-0.2,0.176-0.8,0.176-1.4,0.176c0.3,1.063,1.9,0,2.6,0.354c0.7,0.974,2.9,0.884,4.4,0.442
				c4.7,0.973,10.2,0.088,13.7,0.354c-0.2-0.441-1.1-0.441-1-1.15c0.7-0.354,1.4,0,2,0.178c0.4-0.442,0.2-1.238,1.1-1.327
				c0.1,0.619,1.8,0.266,2.4,0.619c0.1,0.354,0,0.53-0.4,0.619c-0.9-0.619-2.2,0-3.4,0.177c-0.3,0.354,0.2,0.619-0.5,0.973
				c3.7,0.619,7.2,0,11.3,0.531c0.3,0.531-0.1,0.619-0.4,0.797c0.6-0.178,1.3,0.53,1.7,0c-0.7,0-0.8-0.266-0.8-0.708
				c1-0.885,2-0.62,3.6-0.354c0.2-0.619,1.3-0.707,1.4-1.326c-0.7-0.089-0.3,0.619-0.9,0.531c-0.9-0.62-2.3-0.974-3.6-0.266
				c0-0.797-2-0.089-1.9-0.974c1.3-0.089,3.1,0.177,2.9-0.884c-0.8-0.178-1.4,0.176-2.2-0.266c0-0.266-0.1-0.619,0.2-0.619
				c1.8,0.266,3.2-0.089,4.6-0.531c1.8,0.797,6.1-0.177,7.2,1.062c-1.1,0.265-3,0.089-4.1,0.354c0,0.265,0,0.53,0,0.795
				c0.3,0.443,0.8-0.176,0.9,0.178c-0.3,0.441-1.7,0.266-1.6,0.973c0.7-0.088,0.5,0.354,0.8,0.619c4.6-0.088,10.7-0.088,14.6-0.531
				c-0.3-0.707-0.2-1.238-1-1.149c0.5-0.708,1.4-1.681,0.2-2.122c2.2-0.09,3-0.531,5.3-0.266c-0.4,0.707-1.5,0.885-2.4,1.149
				c0.5,0.708-0.4,0.796,0,1.149c0.1-0.53,1.6-0.265,2.1-0.53c0.3,0.089,0.1,0.619,0.5,0.619c0-0.53,0.7-0.442,1-0.708
				c0.1,0.089,0.5,0.885,0,0.974c-1.7-0.708-2.2,0.619-3.8,0.177c0.7,1.681,4.1-0.177,6.3,0.442c0.4-0.265-0.2-0.885,0-1.504
				c0.4,0.089,1.2-0.177,1.2,0.177c-0.6,0.708-0.4,1.416,0.3,2.123c-0.6,0-0.8,0.266-1,0.531c1.4-0.178,1.7,0,2.9,0.177
				c0.8-3.538,8.7-0.62,11.1-1.415c-1.2-0.089,0.2-0.266,0.4-0.354c0.2-0.442-0.6-0.265-0.1-0.619c0.3,0,0.6,0,0.7-0.177
				c-0.4-0.088-0.9-0.088-0.7-0.619c1.1-0.088,1.2-0.442,2.4-0.178c-0.2-0.795,0.7-0.884,0.4-1.769c-0.7-0.089-1-0.53-1.7-0.619
				c-0.5,0.266-0.1,0.619,0,0.974c-1.2-0.178-0.4,0.707-1.2,0.707c0.2-1.15-1.6,0.178-1.9-0.442c-0.4-0.973,1.5-0.442,1.9-0.973
				c-0.6,0,0.3-0.266,0-0.62c-0.6-0.265-1.3,0.09-1.7-0.441c0,0.088-0.2,0.177-0.5,0.266c-0.9-0.089-0.9-0.089-1.6,0.176
				c0.2-0.265,0.8-0.441,0-0.619c-0.8,0.178-1.6,0.354-2.4,0.531c0,0.354,0.2,0.708,0.7,0.797c-0.1-0.354,0-0.619,0.4-0.619
				c2-0.09,0.9,0.973,1,1.592c-1.4-0.178-2.9,0.707-3.6-0.089c0.5-0.265-1.7-2.3,1.2-2.3c-1.7-1.592,1.8-1.592,3.6-2.035
				c0,0.797,0.8,1.416,1.7,1.15c0.2,0.531,0.5,0.973,1.2,1.15c0.3-0.266,0.9-0.442,0.9-0.973c-1.1,0.176-1.6-1.416-0.3-1.328
				c0.2,0.62,0.7,0.885,1,1.328c4.3,0.088,8.6,0.973,12.1-0.089c-0.4,0.53,0.7,0.089,0.7,0.442c-0.6,0.266-1,0.619-1,1.326
				c0.4,0.089,1-0.441,1.2,0c0.4,0.531-1.1,0-0.7,0.619c0.1,0.089,0.3,0.178,0.2,0.354c1.5-0.177,2.8-0.266,4.1,0.089
				c-0.2-0.974,1.5-0.708,1.9-1.328c0.5,0.354,0.8,1.15,1.9,0.62c-1.3,0.708,0.9,1.149,0.3,1.681c-0.6,0-1.6-0.442-1.9,0.177
				c0.9-0.089,1.5,0.089,1.7,0.442c0.1,0.531-1,0.266-0.9,0.796c0.4,0.442,1.2-0.354,2.1-0.177c0,0.177,0,0.354,0,0.619
				c0.9,0.266,1.4-0.177,2.2-0.354c-0.7-0.266-0.9-1.063-0.6-1.592c0.1,0,0.2,0.088,0.3,0.265c1.6,0.089,2.1-0.619,3.8-0.354
				c-0.1-0.619,0.6-1.149,1.9-0.795c-0.2-0.885-2.2-0.178-1.5-0.974c-0.9,0.53-1.4,0-1.9-0.619c3.4-1.062,8.2-0.442,12.5,0
				c-0.1,0.089-0.3,0-0.3,0.177c0.5-0.088,0.8-0.177,1.2-0.088c0.8,0.088,1.8,0.266,2.5,0.266c-0.3-0.443-0.2-0.797,0.5-0.974
				c0,0.884,1.4,0.796,2.2,1.149c0.2-0.354,0.4-0.707,1.2-0.707c0,1.326-0.5,1.504-0.7,2.919c1.1,0.442,1.8,0.619,3.1,0.265
				c0.6,0.266-0.4,0.531,0.5,0.531c0.3-0.088,0.7,0,0.7-0.177c-0.6-0.089,0.4-0.265,0.3-0.53c-1.1-0.531-2.5-0.443-3.4-0.797
				c0.5-0.796,2.3-1.326,3.6-1.061c0.1-3.539,6-0.531,8.4-2.212c1.7,0.796,7.1,0.53,9.8,0.265c0.1,0.266,0.5,0.354,0.5,0.797
				c-0.7,0.177-1.4,0.354-2.1,0.531c-0.2,1.061,1.8,0.619,1.5,1.769c-1.6-0.089-2.6,0.177-4.1,0.177c1.5,1.062,2.6,2.389,4.2,3.361
				c-0.3-0.707,0-0.885-0.3-1.504c0-0.266,2-0.088,1.2-0.354c-0.7-0.088-1.9,0.177-2.2-0.177c0-0.177,0-0.354,0-0.62
				c1.1-0.441,2.2-0.265,3.1,0.178c0.5-0.442,0.8-0.885,0.7-1.681c1.5-0.354,2.6-0.796,2.9-1.858c0.1-0.53-0.9-0.176-0.7-0.707
				c0.8-0.266,1.8-0.442,2.6,0.177c-0.2,0.177-0.2,0.354-0.2,0.53c-0.1,0-0.1-0.088-0.4,0c0.2,0.531-0.4,0.443-0.5,0.797
				c0.5-0.178,1-0.178,1.2-0.354c0.2,0.176,0.4,0.441-0.1,0.796c1.4-0.089,2.7,0.265,3.9,0.619c-0.6,0.089-1.4,0.089-1.4,0.53
				c0.3,0.885,2,0.619,2.9,0.973c0.4-0.884,1-1.769,1.6-2.477c0.3,0.885,1.5,0.089,1.9,0.178c-0.6,0-0.4-0.708-0.5-1.15
				c-0.5,0-0.8-0.088-0.9-0.354c-0.8-1.15,1.8-1.327,2.1-0.708c-0.2,0.53,0,0.708-0.7,1.149c2-0.354,2.8-1.503,3.8-2.477
				c0.7,0.266,0.6,1.15,1.7,1.15c0.3-0.531,0.2-1.15,1-1.326c1.4-0.266,4.1-0.619,3.9,1.414c-0.6,0-1,0.089-1,0.354
				c1.3,0.177,1.3-0.442,2.2-0.53c0.1-0.266-0.3-0.266-0.5-0.443c1.1-1.149,2.1-2.477,5-2.477c0.3,0.797,1.3,1.238,2.2,1.15
				c-1.5,1.061,2.3,1.15,1.5,1.945c2-0.176,5.4-0.088,6.3,1.416c-0.1,0.266-0.3,0.441-0.5,0.531c-1.3,0.176-1.5-0.354-1.9-0.797
				c-0.9,0.442-2.8,0-4,0.442c0-0.265,0.3-0.354,0.3-0.619c-0.5,0.089-0.3-0.442-1-0.266c-0.1,0.177-0.3,0.354-0.5,0.62
				c0.5,0.088,0.5,0.441,1.1,0.354c-0.5,0.176-0.8,0.53-0.9,1.149c1,0.266,1.7,0.442,2.6,0c0.2,0.708,0.6,0.266,1.7,0.442
				c0.7-0.088,0.6-0.796,1.4-0.796c3.2,1.149,6.4,1.415,10.1,1.503c0,0.443,0.2,0.974,0.5,1.593c-0.2,0.354-0.4,0.619-1.2,0.53
				c-0.3-0.973-0.8-1.769-2-2.123c-0.3,0.531-1.2,0.619-1.9,0.885c0.4,0.089,0.9,0.354,0.5,0.619c-0.8,0.266-0.2-0.441-1-0.265
				c0.6,0.884-0.8,0.53-0.2,1.415c-0.5,0.088-1.8,0.531-1.9,0c-0.1-0.442,1.1,0,0.7-0.531c-0.3-0.176-1.9-0.354-2.2,0
				c0.9-0.088,0.8,0.619,1,0.974c-0.6-0.089-0.8-0.265-1.2,0.177c0.3,0.088,0.7,0.178,0.7,0.619c-0.7,0.266-1.7,0.442-2.1,0.973
				c0.8,0.531,1.4-0.441,2.1-0.53c0.2,0,0.8,0.354,1,0.354c0.5-0.089,0.7-0.531,0.9-0.531c0.3,0,0.9,0.531,1.2,0.531
				c2,0,4.5-1.682,6.3-0.443c0-0.176,0-0.354,0-0.619c0.8,0,1.3-0.354,1.7,0.178c0.4-0.266,0.2-0.885,0.2-1.327
				c0.9,0.265,0.5-0.177,1.2-0.354c0.2,0.443-0.3,0.443-0.2,0.797c0.9,0,1-0.442,0.7-0.973c2.5-0.531,1.6-2.301,3.6-3.273
				c1-0.266,1.2,0.266,1.9,0.266c-0.3-0.708,0.5-1.15,0-1.504c1-0.708,2.8-0.885,3.3-1.857c-0.4-0.089-1,0.441-1.2,0
				c0.4-0.443,0.5-0.973,1-1.327c0.4,0.089,0.3,0.619,1.2,0.442c0.5-1.15,5.3-0.797,5.5,0.088c0.1,0,0.4,0,0.5-0.088
				c0.7,0.266,1.5,0.354,2.5,0.088c0.2-0.441-0.2-0.441-0.4-0.53c0.1-0.089,0.2-0.089,0.3-0.089c0.6,0,1.2,0,1.1,0.443
				c0.5,0,1.1,0,1.4,0.176c0-0.266-0.1-0.53,0.2-0.53c0,0.089,0,0.265,0,0.442c0.5,0.088,0.7-0.088,1-0.088
				c0.1,0.176,0,0.265,0.2,0.354c1,0,1.5-0.266,2.1-0.531c0.1-0.442-0.7-0.796,0.2-0.973c1,0.266,0.2,0.796,0.7,1.326
				c0.8-0.354,2.1-0.441,2,0.619c-0.7,0.178-1.1-0.53-1,0.178c0.9,0.088,1.5,0.088,2.4-0.178c-0.3-0.441-0.3-0.973,0.2-1.326
				c0.9-0.178,0.9,0.266,1.7,0.266c0.1-0.797,1.4-0.885,2-1.416c0.2,0,0.2-0.088,0.4-0.088c0.4,0.266,0.3,0.885,0.2,1.504
				c-0.1,0.088,0,0.266-0.3,0.354c-0.3-0.266-0.6-0.442-0.9-0.619c-0.9,0.707-1.7,1.15-3.1,1.15c0.4,0.795-0.6,0.707-0.6,1.326
				c-0.1,0.088-0.2,0.088-0.4,0.088c0.1-0.088,0.1-0.176,0.2-0.265c-0.4,0-0.4,0.177-0.7,0.265c-0.2-1.149-1.8-0.795-3.1-0.884
				c0.2,0.53-0.9,0.177-0.7,0.796c1.1,0.266,2.2,0.266,3.4,0.266c-0.6,0.266-1.4,0.441-1.8,0.885c-0.2-0.266-0.8-0.266-1.2-0.354
				c0,0.707,0.4,0.884-0.5,1.149c-1.1-0.354-2.4,0.53-4.3,0.177c0-0.354-0.3-0.619-0.2-1.15c-1.6,0-1.9,0.885-3.3,0.973
				c-0.5-1.148-1.7,0.178-2.9,0c-0.7-0.088-0.6-0.707-1.2-0.973c-0.2,0.619-0.9,0.973-2.1,0.973c0.7,1.416-2.3,0.797-1.4,1.858
				c-0.7,0.089-1.2,0.265-1.6,0.53c0.7,1.504-1.6,1.15-1.6,2.301c3.1,0.088,4.6-1.504,7.5-0.089c-0.4,0.53,0.3,0.974,0.3,1.327
				c0.5-0.619,1.7-0.178,2.4,0c-0.1-0.885,1.3-0.708,1.9-0.354c-0.2-0.797,1.1,0.088,1-0.354c-0.3,0-0.5-0.177-0.5-0.442
				c2.1-0.531,0.9-2.654-1-2.654c-0.5,0.266-0.6,0.619-1.5,0.531c-1.4-0.885-3.2-1.504-4.8-0.619c-0.5-2.123,3.8-1.415,5.3-0.531
				c2.3-1.326,5.2-0.707,7-0.884c-0.5,0.884-1.9,1.062-2.4,1.857c1.4,0.265,1.9,0.354,2.9,0.265c-0.2,0.974-2.7,0.443-3.6,0.974
				c0.7,0.089,1,0.53,1.7,0.619c0.1-0.708,1,0.442,2.4-0.354c-0.9-1.946,3-1.327,5.5-1.327c-0.1,0.354,0,0.619,0.2,0.797
				c-1.8,0-2.7,0.53-2.9,1.504c1.7,0.884,3.5,0.265,5.8,0.441c0.3-0.177,0-0.707,0.4-0.707c1.7,0.441,2.9-0.266,4.3-0.178
				c0.5,0.354-0.2,0.531,0.2,0.797c1.9,0.266,3.2-0.266,4.6-0.708c0.1-0.53-0.4-0.53,0-0.796c0.7,0.177,1.5,0.177,2.2,0.266
				c-0.7-0.619,0.6-1.682-0.8-1.77c0,0.354,0.5,0.441,0.3,0.973c-1.9,0.619-2.8-0.088-4.3-0.088c0.6-0.708,0.2-0.885-0.5-1.416
				c0.6-0.266,1.1-0.707,2.1-0.707c0.6,0.266,1.2,0.531,2.4,0.441c-0.1-0.973,1.7,0.178,1.7-0.795c0.6,0.088,1.7-0.178,1.9,0.176
				c0.1,0.619-1,0.354-1,0.974c0.5,0.53,1.4,0.796,2.7,0.796c0.2-0.354-1-0.441-0.3-0.619c0.3,0,0.3-0.177,0.5-0.177
				c1.2,0.265,0.4,1.062,1.7,1.415c-1,0.619-1.5,0.885-0.7,1.682c0.8-0.09,1.3-0.266,2.1,0c0.8-0.531,1.3-1.15,2.4-1.504
				c-0.7-1.77,2.9-2.478,3.3-0.885c1.3-0.354,2.2,0.088,2.7,0.796c-0.6,0.089-0.9,0.265-1.7,0.177c-0.1,0.885,1.9,0.354,2.2,0.973
				c0,0.266-0.3,0.354-0.2,0.708c-0.6,0-1.2,0-1.2,0.354c2.6-0.885,6.3,0,5.6,2.211c1.8-0.266,4.1-0.973,5.5-0.707
				c0.3-0.443,0.8-0.797,1.6-0.974c0.7,0,0.4,0.619,1,0.619c0.7-1.062,2.6-1.239,4.1-1.681c0.7,0.707,0,1.504-0.2,2.123
				c1.7-0.442,1.9-0.178,3.4,0.088c0.1-0.266-0.3-0.266-0.5-0.441c1.8-0.178,1.7-2.566,4-1.857c0-0.531-0.5-0.885-1.4-0.797
				c-1.1,1.062-3.1-0.354-3.7-1.15c0.5-0.266,1.3-0.441,2.4-0.354c-0.6,0.531,0.8,0.797,1.7,0.797c-1.1-0.619-0.7-1.328-2-1.947
				c3.1-1.238,3.7,1.593,6.3,0.266c1.1,0.885,3,0.266,3.4,1.77c0.5,0,1,0,1.4,0c0.4,0.797,1.3,1.15,2.7,1.238
				c0.6,0.973,0,1.416,0.5,2.301c0.9-0.266,0.4,0.088,1.2,0.176c0.4-1.68,0.8-2.918,1.4-4.246c3.9-0.176,10-1.414,12.8,0.708
				c-1,1.327-5.3,0.62-7.5,0.708c0.2,1.238-1.899,1.061-2.8,1.15c0.6,1.592,4.3,0.707,5.8,1.945c0.4-0.177,0-0.973,0.7-0.973
				c1,0.441,1.8-0.178,2.6-0.354c0,0.441,0.801,0.354,1.4,0.441c0.9-0.619,3-0.53,3.4-1.504c-0.101,0.531,0.6-0.088,1.199,0.266
				c0.801-0.796,0.101-1.681,1.7-1.945c0.5,0.176,1.2,0.265,1.2,0.795c1.5-0.441,1.9,0.443,2.7,0.974
				c-3.2,1.062,1.7,2.388,3.2,1.238c-0.5-1.062,0-1.503,1.399-1.681c0,0.354,0,0.619,0,0.973c0.9-0.088,1.9,0.885,2.4,0
				c-0.5-0.266-0.7-0.619-1.9-0.441c0-0.797-0.7-1.15-0.8-1.77c0.6,0.088,0.4-0.354,0.9-0.354c0.3,0.354,0.399,0.796,1.199,0.796
				c0.9-0.177,0.801-1.062,1.9-1.149c1.7,0.619,2.5,0.088,3.2,1.592c-0.7,0.441-0.5,1.415,0.3,1.945c-1.6,0.178-0.7,0.354-0.4,0.708
				c-1-0.177-1.6,0-1.5,0.885c0.2,0,0.4,0,0.7,0c-0.3-0.619,0.7-0.53,0.8-0.885c0.101,0.089,0.4,0.177,0.101,0.354
				c1-0.089,1,0.441,1.899,0.354c0-0.797-0.199-0.797,0.5-1.15c3.5,0.885,5.7,0.178,8.7,0.266c-0.6,0.885,0.601,1.15-0.5,1.681
				c0.8,0.089,1.2-0.089,1.7-0.177c0.2-0.797-0.6-0.797-0.5-1.504c0.9,0.088,0.9,0.797,1.9,0.797c0.8-0.443,0-1.239,1.5-0.709
				c-0.301-0.707-1.9-0.707-1.5-1.592c1.399,0.885,3.3,1.857,6.3,2.035c0.3-0.443,0.6-0.797,1.2-0.974c1.3,0.266,3,1.149,4.6,0.442
				c0.4,0.177,0.5,0.619,1,0.797c1.5,0,1.3-0.354,3-0.354c-0.2-1.238,0.6-1.769,0.4-2.919c-1.801-0.088-0.301-1.416-0.801-1.504
				c1.101,0.177,0,0.973,1,0.973c0.301,0.354,1-0.441,1.4-0.53c0.4,0.265,0.9,0.53,1.7,0.619c0.3-0.53,2.399-0.974,2.6-0.177
				c-0.3,0.177-0.899,0.177-0.899,0.53c0.399,0.089,0.699,0.354,1,0.62c-0.7,0.088-0.9-0.266-1.601-0.178
				c0-0.088-0.1-0.266-0.399-0.442c-0.801-0.089-1.4,0.089-1.9,0.177c-0.3,1.327,2,1.15,2.3,0.531c0.2,0.354,1.5,0.177,1.601,0
				c1,0.707,1.6,1.504,3.1,1.77c0.8-0.089,0.4-0.531,0.7-0.619c2.1,1.061,2.3-0.974,4.2-1.238c0.2,0,0.3,0,0.399,0
				c-0.3,0.088-0.7,0.088-0.399,0.529c1.3,0.885,2.7-0.707,3.8,0.09c0.3-0.09,0.399-0.266,0.6-0.354c1.8,0,3.7-0.089,5.8-0.089
				c0.301,0.089,0.601,0.178,0.801,0.266c0.3-0.354,0.8-0.266,1.199-0.354c1.601-0.088,3.4-0.088,4.5-0.354
				c3.801,0.176,7.5,0,11.4-0.089c0.1,0.265,0.4,0.53,0.3,0.974c1.3,0.088,1.601,0.176,2.9,0c0-0.709,1.1-0.709,1.7-0.974
				c1.699,0.619,3.399,0.796,4.8-0.089c0.5,0,1.2,0,1.8,0c0.3,0.178,0.7,0.354,0.8,0.708c1.101-0.089,1.3-0.619,1.7-1.062
				c2.7,0.266,5.7,0.088,8.5,0.442c1.4,0.089,2.2,0.442,3.8,0.53c0.601,0.354,1,0.885,1.2,1.593c1.2-0.885,2.6-1.593,4-2.389
				c0.5-0.089,1-0.265,1.3-0.089c0.5,0.709,1.8,0.443,3,0.354c0.9,0.089,1.9,0.265,2.4,0.796c1.5-0.441,3.399-0.266,5-0.266
				c2.899,0,5.7-0.176,7.7,0c-0.2-0.354-0.801-0.53-0.9-0.973c0.3,0,0.6-0.088,0.9-0.088c0.3,0.088,0.6,0,0.899,0.088l0.101-0.088
				c0.1,0.088,0.199,0.176,0.199,0.265c-0.199,0-0.399,0-0.6,0c-0.3,0.354,0.2,0.62-0.5,0.974c3.7,0.619,7.2,0,11.3,0.53
				c0.3,0.53-0.1,0.619-0.399,0.796c0.6-0.177,1.3,0.531,1.699,0c-0.699,0-0.8-0.266-0.8-0.707c0.7-0.619,1.601-0.354,2.5-0.266
				v0.088c1.4,0.178,2.9,0.089,3.8-0.53c0.2-0.53-0.6-0.265-0.699-0.619c0.3-0.265,0.199-0.708,0.899-0.708
				c0.101,0.354,0,0.443,0,0.619c0,0.089-0.1,0.089-0.1,0.089c0.1,0,0,0.089,0.1,0.089c0,0.088,0.101,0.088,0,0.266
				c0.2,0,0.2,0,0.4,0c0,0.088,0.1,0.088,0.2,0.176c4.3,0,9.899-0.088,13.8-0.441c-1,0.53-2.3,0-2.8,0.795
				c1.1,0.974,3.1,0.709,2.899-0.795c0.2-0.089,0.601-0.089,0.8-0.089c-0.199-0.442-0.399-0.619-0.699-0.796
				c1.199,0.088,2.3,0.177,3.699-0.178c0.5,0.089,1,0.266,1.7,0.266c-0.8,0.089-1.5,0.531-2.7,0.178
				c0.601,1.414,3.2,0.354,5.301,0.441c0,0.089-0.101,0.266-0.101,0.443c1.101-0.266,1.8,0,2.601,0.176v0.089
				c-0.601,0-0.801,0.265-1,0.53c1.399-0.176,1.699,0,2.899,0.178c0.8-3.539,8.601-0.619,11.101-1.416
				c-1.2-0.088,0.199-0.266,0.399-0.354c0.2-0.442-0.7-0.266-0.5-0.797c0.3,0,0.601,0,0.7-0.176c-0.3-0.089-0.6-0.178-0.6-0.531
				c0,0,0,0,0-0.088c0.899-0.178,1.1-0.443,2.199-0.178c-0.199-0.796,0.7-0.885,0.4-1.769c-0.6-0.089-0.9-0.53-1.6-0.62l0,0l0,0l0,0
				l0,0c-0.5,0-0.9-0.088-1.2-0.265c0-0.089,0.1-0.089,0-0.177c-0.6-0.266-1.3,0.088-1.7-0.442c0,0.089-0.2,0.089-0.3,0.177
				c-0.4,0.354-1.1,0.354-1.6,0.266c-0.101,0-0.101,0-0.2,0c0.7-0.531,1.399-0.531,1.2-1.327c0.899,0.177,0.899-0.265,1.1-0.53
				c0.2,0,0.2,0.177,0.3,0.177c0.2,0.354,0.5,0.53,0.9,0.796c0.1,0.354,0.399,0.531,0.7,0.973c3.1,0.089,5.899-0.973,9.1-0.796
				c1.9,0.177,2.4-0.265,2.8-0.884c0.5,0,1.1,0.088,1.5-0.089c-0.4,0.53,0.7,0.089,0.7,0.442c-0.6,0.266-1,0.619-1,1.326
				c0.4,0.089,1-0.441,1.2,0c0.399,0.531-1.101,0-0.7,0.619c0.1,0.089,0.3,0.178,0.2,0.354c1.5-0.177,2.8-0.266,4.1,0.089
				c-0.2-0.974,1.5-0.709,1.9-1.328c0.5,0.354,0.8,1.15,1.899,0.619c-1.3,0.709,0.9,1.15,0.301,1.682
				c-0.601,0-1.601-0.442-1.9,0.177c0.9-0.089,1.5,0.089,1.7,0.442c0.1,0.531-1,0.266-0.9,0.796c0.4,0.442,1.2-0.354,2.1-0.177
				c0,0.177,0,0.354,0,0.619c0.9,0.266,1.4-0.177,2.2-0.354c-0.7-0.266-0.899-1.063-0.6-1.593c0.1,0,0.2,0.089,0.3,0.266
				c1.6,0.089,2.1-0.619,3.8-0.354c-0.1-0.619,0.601-1.149,1.9-0.795c-0.2-0.885-2.2-0.178-1.5-0.974c-0.9,0.53-1.4,0-1.9-0.619
				c4.4-1.238,11.2,0.177,15.9,0.354c-0.3-0.443-0.2-0.797,0.5-0.974c0,0.884,1.4,0.796,2.2,1.149c0.2-0.354,0.399-0.707,1.2-0.707
				c0,1.326-0.5,1.504-0.7,2.919c1.1,0.442,1.8,0.619,3.1,0.265c0.6,0.266-0.4,0.531,0.5,0.531c0.3-0.088,0.7,0,0.7-0.177
				c-0.6-0.089,0.4-0.265,0.3-0.53c-1.1-0.531-2.5-0.443-3.4-0.797c0.5-0.796,2.301-1.326,3.601-1.061
				c0.1-3.539,6-0.531,8.399-2.212c1.7,0.796,7.101,0.53,9.801,0.265c0.1,0.266,0.5,0.354,0.5,0.797
				c-0.7,0.177-1.4,0.354-2.101,0.531c-0.2,1.061,1.8,0.619,1.5,1.769c-1.6-0.089-2.6,0.177-4.1,0.177
				c1.5,1.062,2.6,2.389,4.2,3.361c-0.3-0.707,0-0.885-0.3-1.504c0-0.266,2-0.088,1.199-0.354c-0.699-0.088-1.899,0.177-2.199-0.178
				c0-0.176,0-0.354,0-0.619c1.1-0.441,2.199-0.265,3.1,0.178c0.5-0.442,0.8-0.885,0.7-1.682c1.5-0.354,2.6-0.795,2.899-1.857
				c0.101-0.53-0.899-0.176-0.699-0.707c0.8-0.266,1.8-0.442,2.6,0.177c-0.8,0.796,1.1,0.974,0,1.769c1.4-0.088,2.7,0.266,3.9,0.619
				c-0.601,0.09-1.4,0.09-1.4,0.531c0.3,0.885,2,0.619,2.9,0.973c0.399-0.884,1-1.769,1.6-2.477c0.3,0.885,1.5,0.089,1.9,0.178
				c-0.601,0-0.4-0.708-0.5-1.15c-0.5,0-0.801-0.088-0.9-0.354c-0.8-1.15,1.8-1.327,2.1-0.708c-0.2,0.53,0,0.708-0.7,1.149
				c2-0.354,2.801-1.504,3.801-2.477c0.699,0.266,0.6,1.15,1.699,1.15c0.301-0.531,0.2-1.15,1-1.327
				c1.4-0.265,4.101-0.619,3.9,1.415c-0.6,0-1,0.089-1,0.354c1.3,0.178,1.3-0.441,2.2-0.529c0.1-0.266-0.3-0.266-0.5-0.443
				c1.1-1.149,2.1-2.477,5-2.477c0.3,0.797,1.3,1.238,2.2,1.15c-1.5,1.061,2.3,1.15,1.5,1.945c2-0.176,5.399-0.088,6.3,1.416
				c-0.1,0.266-0.3,0.441-0.5,0.531c-1.3,0.176-1.5-0.354-1.9-0.797c-1.2,0.619-4.7-0.531-5,1.681c1,0.265,1.7,0.442,2.601,0
				c0.199,0.708,0.6,0.265,1.699,0.442c0.7-0.088,0.601-0.797,1.4-0.797c3.2,1.15,6.4,1.416,10.1,1.504c0,0.443,0.2,0.974,0.5,1.593
				c-0.199,0.354-0.399,0.619-1.199,0.53c-0.301-0.973-0.801-1.769-2-2.123c-0.301,0.531-1.2,0.619-1.9,0.885
				c0.4,0.089,0.9,0.354,0.5,0.619c-0.8,0.266-0.2-0.441-1-0.266c0.6,0.885-0.8,0.531-0.2,1.416c-0.5,0.088-1.8,0.531-1.899,0
				c-0.101-0.442,1.1,0,0.699-0.531c-0.3-0.176-1.899-0.354-2.199,0c0.899-0.088,0.8,0.619,1,0.974
				c-0.601-0.089-0.801-0.266-1.2,0.177c0.3,0.088,0.7,0.177,0.7,0.619c-0.7,0.266-1.7,0.442-2.101,0.973
				c0.8,0.531,1.4-0.441,2.101-0.53c0.199,0,0.8,0.354,1,0.354c0.5-0.09,0.699-0.531,0.899-0.531c0.3,0,0.9,0.531,1.2,0.531
				c2,0,4.5-1.682,6.3-0.443c0-0.176,0-0.354,0-0.619c0.8,0,1.3-0.354,1.7,0.178c0.4-0.266,0.2-0.885,0.2-1.328
				c0.899,0.266,0.5-0.176,1.2-0.354c0.199,0.443-0.301,0.443-0.2,0.797c0.899,0,1-0.443,0.7-0.973c2.5-0.531,1.6-2.301,3.6-3.273
				c1-0.266,1.2,0.266,1.9,0.266c-0.301-0.708,0.5-1.15,0-1.504c1-0.708,2.8-0.885,3.3-1.857c-0.4-0.089-1,0.441-1.2,0
				c0.4-0.443,0.5-0.974,1-1.328c0.4,0.09,0.3,0.62,1.2,0.443c0.6-1.15,5.399-0.797,5.6,0.088c1.601-0.707,4-0.885,6-1.326
				c0.8,0.441,0,0.973,0.8,1.504c1,0,1.5-0.266,2.101-0.531c0.1-0.442-0.7-0.797,0.2-0.973c1,0.266,0.199,0.796,0.699,1.326
				c0.801-0.354,2.101-0.441,2,0.619c-0.699,0.178-1.1-0.53-1,0.178c0.9,0.088,1.5,0.088,2.4-0.178c-0.3-0.441-0.3-0.973,0.2-1.326
				c0.899-0.178,0.899,0.266,1.7,0.266c0.199-0.974,2-0.797,2.399-1.682c0.601,0.266,0.8,1.77,0.3,2.301
				c-0.1-0.443-0.8-0.531-1.199-0.797c-0.9,0.708-1.7,1.15-3.101,1.15c0.4,0.973-0.899,0.707-0.7,1.504
				c1.2-0.089,2.4-0.089,2.7,0.441c-0.7,1.063-2.399,1.593-4,1.238c0.601-0.53,0.7-1.326,1.2-1.945c-1.7,0-2.3,0.707-2.9,1.326
				c-0.199-0.265-0.8-0.265-1.199-0.354c0,0.708,0.399,0.885-0.5,1.15c-1.101-0.354-2.4,0.531-4.301,0.177
				c0-0.354-0.3-0.619-0.199-1.149c-1.601,0-1.9,0.885-3.301,0.973c-0.5-1.15-1.699,0.177-2.899,0c-0.7-0.088-0.601-0.708-1.2-0.973
				c-0.2,0.619-0.9,0.973-2.1,0.973c0.699,1.415-2.301,0.796-1.4,1.857c-0.7,0.088-1.2,0.266-1.6,0.531
				c0.699,1.504-1.601,1.149-1.601,2.299c3.101,0.089,4.601-1.504,7.5-0.088c-0.399,0.531,0.3,0.973,0.3,1.326
				c0.5-0.619,1.7-0.176,2.4,0c-0.1-0.884,1.3-0.707,1.9-0.354c-0.2-0.796,1.1,0.089,1-0.354c-0.3,0-0.5-0.177-0.5-0.442
				c2.1-0.53,0.899-2.653-1-2.653c-0.5,0.266-0.601,0.619-1.5,0.53c-1.4-0.884-3.2-1.503-4.8-0.619c-0.5-2.123,3.8-1.415,5.3-0.53
				c2.3-1.327,5.2-0.708,7-0.885c-0.5,0.885-1.9,1.062-2.4,1.857c1.4,0.266,1.9,0.354,2.9,0.266c-0.2,0.973-2.7,0.441-3.601,0.973
				c0.7,0.088,1,0.531,1.7,0.619c0.101-0.707,1,0.442,2.4-0.354c-0.9-1.946,3-1.327,5.5-1.327c-0.101,0.354,0,0.62,0.2,0.796
				c-1.801,0-2.7,0.531-2.9,1.504c1.7,0.885,3.5,0.266,5.8,0.442c0.3-0.177,0-0.708,0.4-0.708c1.7,0.443,2.899-0.265,4.3-0.176
				c0.5,0.354-0.2,0.53,0.2,0.795c1.899,0.266,3.2-0.265,4.6-0.707c0.101-0.531-0.399-0.531,0-0.797
				c0.601,0.178,1.4,0.178,2.601,0.09c-0.7-0.619,0.6-1.682-0.801-1.77c0,0.354,0.5,0.441,0.301,0.973
				c-1.9,0.619-2.801-0.088-4.301-0.088c0.601-0.708,0.2-0.885-0.5-1.416c0.601-0.266,1.101-0.707,2.101-0.707
				c0.6,0.266,1.2,0.53,2.399,0.441c-0.1-0.973,1.7,0.178,1.7-0.795c0.601,0.088,1.7-0.178,1.9,0.176c0.1,0.619-1,0.354-1,0.974
				c0.5,0.53,1.399,0.796,2.7,0.796c0.3-0.354-1-0.442-0.301-0.619c0.301,0,0.301-0.177,0.5-0.177c1.2,0.265,0.4,1.062,1.7,1.415
				c-1,0.619-1.5,0.885-0.7,1.681c0.801-0.089,1.301-0.265,2.101,0c0.8-0.53,1.3-1.149,2.399-1.503
				c-0.699-1.77,2.9-2.478,3.301-0.885c1.3-0.354,2.199,0.088,2.699,0.795c-0.6,0.09-0.899,0.266-1.699,0.178
				c-0.101,0.885,1.899,0.354,2.199,0.973c0,0.266-0.3,0.354-0.199,0.708c-0.601,0-1.2,0-1.2,0.354c2.6-0.884,6.3,0,5.6,2.212
				c1.8-0.266,4.101-0.973,5.5-0.708c0.3-0.442,0.8-0.796,1.601-0.974c0.699,0,0.399,0.619,1,0.619c0.699-1.061,2.6-1.238,4.1-1.68
				c0.7,0.707,0,1.504-0.2,2.123c1.7-0.443,1.9-0.178,3.4,0.088c0.1-0.266-0.3-0.266-0.5-0.441c1.8-0.178,1.7-2.566,4-1.858
				c0-0.53-0.5-0.884-1.4-0.796c-1.1,1.062-3.1-0.354-3.7-1.15c0.5-0.266,1.3-0.441,2.4-0.354c-0.6,0.531,0.8,0.797,1.7,0.797
				c-1.101-0.619-0.7-1.328-2-1.947c3.1-1.238,3.7,1.593,6.3,0.266c1.1,0.885,3,0.266,3.4,1.77c0.5,0,1,0,1.399,0
				c0.4,0.796,1.3,1.15,2.7,1.238c0.6,0.973,0,1.416,0.5,2.3c0.9-0.265,0.4,0.089,1.2,0.177c0.399-1.681,0.8-2.919,1.399-4.246
				c3.9-0.176,10-1.415,12.801,0.708c-1,1.327-5.301,0.619-7.5,0.708c0.199,1.238-1.9,1.061-2.801,1.149
				c0.601,1.593,4.301,0.708,5.801,1.946c0.399-0.177,0-0.973,0.699-0.973c1,0.441,1.801-0.178,2.601-0.354
				c0,0.441,0.8,0.354,1.399,0.441c0.9-0.619,3-0.531,3.4-1.504c-0.1,0.531,0.6-0.088,1.2,0.266c0.8-0.796,0.1-1.681,1.7-1.945
				c0.5,0.176,1.199,0.265,1.199,0.795c1.5-0.441,1.9,0.443,2.7,0.974c-3.2,1.062,1.7,2.388,3.2,1.238c-0.5-1.062,0-1.504,1.4-1.681
				c0,0.354,0,0.619,0,0.973c0.899-0.088,1.899,0.885,2.399,0c-0.5-0.266-0.8-0.619-1.899-0.441c0-0.797-0.7-1.15-0.801-1.77
				c0.601,0.088,0.4-0.354,0.9-0.354c0.3,0.354,0.4,0.795,1.2,0.795c0.9-0.176,0.8-1.061,1.9-1.149
				c1.699,0.62,2.5,0.089,3.199,1.593c-0.699,0.441-0.5,1.415,0.301,1.945c-1.601,0.178-0.7,0.354-0.4,0.708
				c-1-0.177-1.6,0-1.5,0.885c0.2,0,0.4,0,0.7,0c-0.3-0.62,0.7-0.53,0.8-0.885c0.1,0.089,0.4,0.177,0.1,0.354
				c1-0.09,1,0.441,1.9,0.354c0-0.797-0.2-0.797,0.5-1.15c3.5,0.885,5.7,0.178,8.7,0.266c-0.601,0.885,0.6,1.15-0.5,1.681
				c0.8,0.089,1.2-0.089,1.7-0.177c0.199-0.797-0.601-0.797-0.5-1.504c0.899,0.088,0.899,0.796,1.899,0.796
				c0.8-0.442,0-1.238,1.5-0.708c-0.3-0.707-1.899-0.707-1.5-1.592c1.4,0.885,3.3,1.857,6.3,2.035
				c0.301-0.443,0.601-0.797,1.2-0.974c1.3,0.265,3,1.149,4.601,0.442c0.399,0.177,0.5,0.619,1,0.796c1.5,0,1.3-0.354,2.899-0.177
				c-0.2-1.238,0.601-1.77,0.4-2.919c-1.8-0.089-0.3-1.415-0.8-1.504c1.1,0.177,0,0.974,1,0.974c0.3,0.354,1-0.443,1.399-0.531
				c0.4,0.266,0.9,0.531,1.7,0.619c0.3-0.531,2.4-0.973,2.6-0.178c-0.3,0.178-0.899,0.178-0.899,0.531
				c1.8,0.442,2.1,2.035,4.1,2.389c0.8-0.088,0.4-0.531,0.7-0.619c2.4,1.15,2.1-1.857,4.8-1.504c0.101,0.442-0.899,0.177-0.7,0.707
				c1.301,0.885,2.7-0.707,3.801,0.089c1.5-0.265,1.699-1.149,2.6-1.503c0.8,0.795,3.3,0.707,4.6,1.238c1.3-1.682,3.7-0.266,6-1.063
				c0-0.795,1-0.885,3.3-2.123c1,0.797,2.7,1.238,4.9,1.238c-0.3-0.441-0.2-0.619,0.5-0.795c1.6,0,2.3,0.265,3.6,0
				c0.301,0.53,0.601,1.061,0.5,1.945c1.301,0.088,1.601,0.178,2.9,0c0-0.707,1.1-0.707,1.7-0.973c2,0.707,3.8,1.061,5.3-0.178
				c0.2,0.531,0.7,0.09,1.2,0c0.4,0.178,0.9,0.354,1,0.797c1.7-0.088,2.4-0.707,2.7-1.681c2.7,1.327,6.7,1.327,11.399,1.503
				c0.601,0.354,1,0.885,1.2,1.593c1.5-0.973,3.2-1.857,4.8-2.831c1.4,0.709,4.7,0,6,1.416c3-0.973,5.801-0.707,9.9-0.619
				c0.2-0.973,2.5-0.619,3.8-0.885c0.4,0.177,0,0.973,0.7,0.973c0.7-0.53,2.7-0.619,3.9-0.354c0.1-0.442,0.5-0.707,0.699-1.15
				c-0.5-0.354-0.899-0.266-0.5-0.795c1.601,0.088,4.5-0.266,5.2-1.239c0.9,0.089,2.3-0.265,2.4,0.354
				c-0.7,0.53-1.6,1.061-2.8,1.326c-0.2,0.885,1.399,0.619,1.2,1.592c1.399,0,1.199,0.089,2.399,0.266
				c0,0.354,0.101,0.619,0.3,0.797c1.4,0.176,2.9,0.088,3.801-0.531c0.199-0.531-0.601-0.266-0.7-0.619
				c0.3-0.266,0.2-0.707,0.899-0.707c0.2,0.441,0.2,0.53,0,0.973c1.601,0.177,1.7,0.354,2.601,0c0.2-0.973,0.899-1.77,0.399-2.301
				c1.7-0.265,1.4,0.885,2.9,0.797c0.8-0.531-0.5-0.797-0.5-1.416c0.4-0.441,0.9-0.884,1.9-0.884c0.3,0.089,0.6,0.265,0.699,0.53
				c-0.399,0.619-1.3,0.885-1.399,1.682c5,0.176,7.6,1.414,11.6,0.354c1.2,0.441,3.601,0.088,4.3,0.796
				c0.101,0.265-0.199,0.354-0.199,0.619c1.399-0.265,2.399,0,3.6,0.265c0.8-0.441-0.1-1.149-0.3-1.769c0.2,0,0.6-0.089,0.899-0.089
				c0.601,0.354,1,0.885,2.301,0.797c0.3-0.619,1.399-0.708,2.399-0.797c1,0.089,2.101,0.178,2.4,0.797
				c1.3,0.088,1.7-0.442,2.3-0.797c0.3,0,0.7,0.089,0.9,0.089c-0.2,0.619-1.2,1.327-0.301,1.769c1.2-0.265,2.101-0.529,3.601-0.265
				c0-0.265-0.3-0.354-0.2-0.619c0.7-0.796,3.1-0.354,4.3-0.796c4,1.061,6.7-0.178,11.601-0.354c-0.2-0.797-1-1.063-1.4-1.682
				c0.1-0.266,0.4-0.441,0.7-0.53c1,0,1.5,0.442,1.899,0.884c0.101,0.619-1.3,0.797-0.5,1.416c1.5,0.088,1.2-1.062,2.9-0.797
				c-0.5,0.619,0.1,1.328,0.4,2.301c0.899,0.354,1,0.177,2.6,0c-0.2-0.442-0.2-0.531,0-0.973c0.6,0,0.6,0.53,0.9,0.707
				c0,0.266-0.9,0.088-0.7,0.619c0.8,0.619,2.399,0.707,3.8,0.531c0.2-0.178,0.3-0.443,0.3-0.797c1.101-0.177,1-0.266,2.4-0.266
				c-0.2-0.973,1.399-0.619,1.2-1.592c-1.101-0.266-2-0.796-2.801-1.326c0.101-0.619,1.5-0.266,2.4-0.354
				c0.6,1.062,3.5,1.415,5.2,1.239c0.399,0.529,0,0.441-0.5,0.795c0.2,0.443,0.6,0.708,0.7,1.15c1.199-0.266,3.3-0.266,3.899,0.354
				c0.7,0,0.3-0.796,0.7-0.973c1.2,0.354,3.6-0.088,3.8,0.885c4.101-0.088,6.9-0.266,9.9,0.619c1.3-1.416,4.6-0.707,6-1.416
				c1.6,0.974,3.3,1.857,4.8,2.831c0.2-0.708,0.5-1.238,1.2-1.593c4.7-0.176,8.7-0.088,11.399-1.503
				c0.301,0.974,1.101,1.593,2.7,1.681c0.2-0.354,0.601-0.619,1-0.797c0.5,0.09,1,0.531,1.2,0c1.5,1.238,3.4,0.885,5.3,0.178
				c0.7,0.266,1.7,0.266,1.7,0.973c1.2,0.178,1.6,0,2.9,0c-0.2-0.885,0.199-1.415,0.5-1.945c1.3,0.176,2-0.089,3.6,0
				c0.7,0.176,0.8,0.354,0.5,0.795c2.2,0,3.9-0.354,4.9-1.238c0.8,0.266,1.899,0.354,1.899,1.15c2.4,0.797,4.7-0.619,6,1.062
				c1.3-0.53,3.7-0.354,4.601-1.238c0.899,0.354,1.1,1.238,2.6,1.504c1.1-0.708,2.4,0.796,3.8-0.089c0.2-0.531-0.8-0.266-0.7-0.707
				c2.7-0.354,2.4,2.653,4.801,1.504c0.3,0.088-0.101,0.53,0.699,0.619c2-0.354,2.301-1.947,4.101-2.389
				c0-0.354-0.601-0.354-0.9-0.531c0.2-0.796,2.3-0.354,2.601,0.178c0.8,0,1.3-0.354,1.699-0.619c0.4,0.088,1.101,0.885,1.4,0.53
				c1,0-0.1-0.796,1-0.974c-0.5,0.089,1,1.416-0.7,1.504c-0.2,1.063,0.7,1.682,0.4,2.92c1.6-0.178,1.399,0.176,2.899,0.176
				c0.5-0.176,0.601-0.619,1-0.795c1.601,0.707,3.301-0.178,4.601-0.443c0.6,0.178,0.899,0.531,1.2,0.974
				c3-0.177,4.899-1.062,6.3-2.034c0.399,0.885-1.2,0.796-1.5,1.592c1.6-0.442,0.7,0.266,1.5,0.707c1,0,1-0.707,1.899-0.795
				c0.101,0.707-0.699,0.795-0.5,1.504c0.601,0.088,0.9,0.265,1.7,0.176c-1.2-0.619,0-0.795-0.5-1.68c3-0.089,5.2,0.53,8.7-0.266
				c0.7,0.354,0.6,0.354,0.5,1.15c0.9,0.088,0.9-0.443,1.9-0.354c-0.301-0.177,0-0.265,0.1-0.354c0.1,0.354,1.1,0.266,0.8,0.885
				c0.3,0,0.5,0,0.7,0c0.1-0.885-0.5-1.061-1.5-0.885c0.3-0.354,1.1-0.441-0.4-0.707c0.801-0.531,1-1.504,0.301-1.945
				c0.699-1.504,1.5-0.974,3.199-1.593c1.101,0.089,1,0.973,1.9,1.149c0.8,0,0.9-0.441,1.2-0.796c0.5,0,0.2,0.442,0.899,0.354
				c-0.199,0.619-0.899,0.973-0.8,1.769c-1.1-0.265-1.399,0.177-1.899,0.442c0.5,0.796,1.5-0.088,2.399,0c0-0.354,0-0.619,0-0.973
				c1.4,0.176,1.9,0.619,1.4,1.68c1.6,1.15,6.5-0.176,3.2-1.238c0.8-0.53,1.199-1.415,2.699-0.973c0-0.531,0.7-0.619,1.2-0.796
				c1.6,0.265,0.9,1.062,1.7,1.946c0.6-0.266,1.199,0.354,1.199-0.266c0.4,0.973,2.5,0.796,3.4,1.504c0.5-0.089,1.4,0.088,1.4-0.442
				c0.699,0.177,1.6,0.884,2.6,0.354c0.7,0,0.3,0.708,0.7,0.974c1.5-1.238,5.2-0.354,5.8-1.946c-0.9-0.089-2.9,0.089-2.8-1.149
				c-2.2-0.09-6.5,0.619-7.5-0.709c2.8-2.123,9-0.884,12.8-0.707c0.6,1.326,1.1,2.565,1.4,4.246c0.899-0.088,0.3-0.442,1.199-0.178
				c0.4-0.884-0.1-1.326,0.5-2.299c1.4-0.089,2.301-0.443,2.7-1.238c0.4,0,0.9,0,1.4,0c0.399-1.504,2.3-0.885,3.399-1.77
				c2.601,1.326,3.2-1.504,6.301-0.266c-1.301,0.531-0.9,1.327-2,1.946c0.899,0,2.199-0.266,1.699-0.796
				c1.101-0.089,1.9,0.088,2.4,0.354c-0.7,0.797-2.6,2.211-3.7,1.15c-0.899-0.089-1.3,0.266-1.399,0.795
				c2.3-0.619,2.1,1.682,4,1.858c-0.2,0.089-0.5,0.089-0.5,0.442c1.5-0.178,1.699-0.442,3.399-0.088
				c-0.1-0.619-0.899-1.416-0.199-2.123c1.5,0.441,3.5,0.707,4.1,1.68c0.6,0,0.3-0.619,1-0.619c0.7,0.089,1.3,0.443,1.6,0.973
				c1.4-0.265,3.601,0.443,5.5,0.709c-0.699-2.212,3-3.097,5.601-2.212c0-0.354-0.601-0.354-1.2-0.354
				c0.1-0.354-0.2-0.441-0.2-0.707c0.301-0.619,2.301-0.088,2.2-0.973c-0.8,0.088-1.1-0.089-1.7-0.178c0.4-0.707,1.4-1.15,2.7-0.796
				c0.3-1.504,3.9-0.884,3.3,0.885c1.101,0.354,1.601,0.974,2.4,1.503c0.7-0.265,1.3-0.088,2.1,0
				c0.801-0.795,0.301-1.149-0.699-1.68c1.3-0.266,0.399-1.063,1.699-1.416c0.2,0,0.2,0.178,0.5,0.178
				c0.601,0.088-0.6,0.176-0.3,0.619c1.3,0,2.1-0.266,2.7-0.797c0-0.53-1.2-0.354-1-0.973c0.1-0.442,1.3-0.088,1.899-0.177
				c0,0.974,1.801-0.266,1.7,0.796c1.1,0.088,1.7-0.177,2.4-0.441c1,0,1.399,0.441,2.1,0.707c-0.6,0.531-1.1,0.619-0.5,1.415
				c-1.5-0.089-2.3,0.708-4.3,0.089c-0.2-0.531,0.3-0.619,0.3-0.973c-1.5,0.088-0.1,1.149-0.8,1.769c0.7-0.089,1.5-0.089,2.1-0.265
				c0.4,0.265-0.1,0.265,0,0.795c1.4,0.354,2.7,0.974,4.601,0.708c0.399-0.265-0.4-0.442,0.199-0.796
				c1.4-0.088,2.601,0.619,4.301,0.177c0.399,0.089,0.1,0.619,0.399,0.708c2.2-0.178,4,0.441,5.8-0.443
				c-0.199-0.973-1.1-1.503-2.899-1.503c0.2-0.177,0.3-0.442,0.2-0.796c2.5,0,6.399-0.619,5.5,1.326
				c1.399,0.797,2.3-0.354,2.399,0.354c0.7-0.088,1-0.53,1.7-0.619c-0.9-0.53-3.4,0-3.6-0.973c1,0.178,1.5,0,2.899-0.266
				c-0.5-0.885-1.899-0.973-2.399-1.857c1.899,0.178,4.699-0.441,7,0.885c1.5-0.885,5.8-1.681,5.3,0.531
				c-1.601-0.885-3.4-0.266-4.8,0.619c-0.9,0.088-1.101-0.266-1.5-0.531c-1.9,0.088-3.101,2.123-1,2.654
				c0,0.266-0.2,0.354-0.5,0.441c-0.101,0.443,1.199-0.441,1,0.354c0.5-0.354,2-0.53,1.899,0.354c0.7-0.177,1.9-0.619,2.4,0
				c0.1-0.354,0.8-0.796,0.3-1.327c3-1.415,4.5,0.178,7.5,0.089c0.1-1.149-2.2-0.708-1.6-2.3c-0.4-0.266-0.9-0.442-1.601-0.531
				c0.9-1.061-2.1-0.441-1.399-1.857c-1.101,0-1.9-0.266-2.101-0.973c-0.5,0.266-0.5,0.885-1.199,0.973c-1.2,0.178-2.4-1.061-2.9,0
				c-1.4-0.088-1.7-0.973-3.3-0.973c0.1,0.531-0.101,0.796-0.2,1.15c-1.8,0.354-3.2-0.531-4.3-0.178c-1-0.266-0.5-0.441-0.5-1.15
				c-0.4,0.09-1,0.09-1.2,0.354c-0.7-0.619-1.2-1.327-2.9-1.327c0.5,0.531,0.601,1.416,1.2,1.946c-1.5,0.354-3.3-0.265-4-1.238
				c0.3-0.442,1.5-0.442,2.6-0.442c0.2-0.796-1.199-0.531-0.699-1.504c-1.4,0-2.2-0.441-3.101-1.15
				c-0.399,0.266-1.1,0.354-1.199,0.797c-0.5-0.531-0.2-1.238,0.399-1.504c0.4,0.885,2.2-0.088,2.301,0.885
				c0.8,0.088,0.8-0.354,1.699-0.266c0.5,0.354,0.5,0.885,0.2,1.326c0.9,0.266,1.5,0.266,2.4,0.178c0.1-0.707-0.301,0-1-0.178
				c-0.101-1.061,1.199-0.973,2-0.619c0.399-0.529-0.301-1.061,0.699-1.326c0.9,0.177,0.101,0.442,0.2,0.973
				c0.6,0.266,1.1,0.531,2.1,0.531c0.801-0.531,0-1.062,0.801-1.504c2,0.442,4.399,0.619,6,1.326c0.199-0.884,4.899-1.238,5.5-0.088
				c0.899,0.178,0.8-0.266,1.199-0.441c0.5,0.354,0.7,0.884,1,1.326c-0.199,0.531-0.8-0.088-1.199,0c0.5,1.062,2.3,1.15,3.3,1.857
				c-0.5,0.354,0.3,0.797,0,1.504c0.7,0,0.9-0.442,1.9-0.266c2,0.885,1.1,2.654,3.6,3.273c-0.3,0.441-0.2,0.885,0.7,0.973
				c0.1-0.354-0.4-0.354-0.2-0.796c0.7,0.177,0.3,0.708,1.2,0.354c0,0.442-0.2,1.062,0.199,1.327c0.4-0.531,0.9-0.178,1.7-0.178
				c0,0.178,0,0.354,0,0.62c1.9-1.239,4.3,0.53,6.3,0.442c0.301-0.089,0.9-0.531,1.2-0.531c0.2,0,0.4,0.531,0.9,0.531
				c0.2,0,0.8-0.354,1-0.354c0.6,0.176,1.3,1.061,2.1,0.53c-0.399-0.53-1.399-0.708-2.1-0.974c-0.101-0.354,0.399-0.53,0.7-0.619
				c-0.4-0.354-0.601-0.266-1.2-0.176c0.2-0.354,0.1-1.063,1-0.974c-0.3-0.266-1.9-0.177-2.2,0c-0.4,0.619,0.8,0.177,0.7,0.53
				c0,0.531-1.4,0.089-1.9,0c0.601-0.885-0.8-0.441-0.2-1.415c-0.8-0.265-0.199,0.442-1,0.266c-0.399-0.266,0.101-0.442,0.5-0.62
				c-0.699-0.354-1.6-0.354-1.899-0.884c-1.2,0.354-1.7,1.149-2,2.123c-0.8,0-1-0.266-1.2-0.53c0.3-0.619,0.5-1.15,0.5-1.593
				c3.6-0.089,6.8-0.354,10.1-1.504c0.801,0,0.7,0.708,1.4,0.796c1.1-0.088,1.5,0.266,1.7-0.441c0.8,0.441,1.6,0.265,2.6,0
				c-0.3-2.212-3.8-0.974-5-1.682c-0.3,0.443-0.6,0.974-1.899,0.797c-0.2-0.178-0.4-0.354-0.5-0.531
				c0.899-1.592,4.3-1.592,6.3-1.415c-0.8-0.796,3-0.885,1.5-1.946c0.899,0,2.3,0.354,2.6-0.441c2.9,0,3.5,0.529,4.601,1.769
				c-0.2,0.089-0.5,0.089-0.5,0.442c0.899,0.088,0.899,0.796,2.199,0.531c-0.1-0.266-0.399-0.354-1-0.354
				c-0.199-2.034,2.5-1.681,3.9-1.415c0.9,0.176,0.8,0.796,1,1.326c1.1-0.088,1-0.885,1.7-1.15c1,0.974,1.8,2.123,3.8,2.478
				c-0.7-0.442-0.5-0.619-0.7-1.149c0.3-0.619,2.8-0.443,2.101,0.707c0,0.266-0.301,0.354-0.9,0.354c0,0.443,0.2,1.15-0.5,1.15
				c0.4-0.088,1.5,0.619,1.9-0.177c0.6,0.708,1.1,1.593,1.6,2.477c1-0.354,2.7-0.177,2.9-0.974c0-0.529-0.801-0.441-1.4-0.529
				c1.3-0.354,2.6-0.709,3.9-0.62c-1.101-0.708,0.8-0.884,0-1.769c0.699-0.619,1.699-0.531,2.6-0.178c0.2,0.619-0.7,0.266-0.7,0.708
				c0.3,1.062,1.5,1.504,2.9,1.858c-0.101,0.795,0.3,1.238,0.7,1.68c0.899-0.441,2-0.619,3.1-0.177c0,0.177,0,0.354,0,0.619
				c-0.3,0.442-1.5,0.089-2.2,0.177c-0.8,0.266,1.2,0.089,1.2,0.354c-0.3,0.619,0,0.797-0.3,1.504c1.6-0.973,2.7-2.299,4.2-3.361
				c-1.5,0-2.5-0.266-4.101-0.176c-0.3-1.15,1.7-0.709,1.5-1.77c-0.6-0.266-1.3-0.442-2.1-0.531c-0.101-0.354,0.399-0.531,0.5-0.796
				c2.6,0.265,8,0.53,9.8-0.265c2.4,1.68,8.3-1.416,8.4,2.211c1.3-0.178,3.1,0.266,3.6,1.061c-0.9,0.354-2.2,0.266-3.4,0.797
				c-0.1,0.266,1,0.442,0.301,0.531c0,0.176,0.399,0.176,0.699,0.176c0.9,0-0.1-0.265,0.5-0.53c1.301,0.442,1.9,0.177,3.101-0.265
				c-0.2-1.416-0.7-1.682-0.7-2.92h0.1c0.601,0.089,1,0.266,1.101,0.619c0.399-0.177,0.5-0.354,0.899-0.441
				c0.601,0.088,1.2,0.088,1.801,0.176c0,0.089,0.1,0.089,0.1,0.178c0.2,0,0.6-0.089,0.8-0.089c0.9,0.177,1.8,0.266,2.7,0.266
				c0.2-0.266,0.3-0.354,0.4-0.53c1.1-0.089,2.1-0.178,3.199-0.266c0.301,0.088,0.301,0.354,0.601,0.619
				c-0.601,0.177-1.4,0.088-1.9-0.354c-1.5,0-1.8,0.795-3.2,0.795c0,0.531,0.4,1.15,0.7,1.77c-1.7,0.354-3.6,0.708-4.2,1.327
				c-0.5-0.089-1.1-0.177-1.899-0.177c0.2,0.266,0.6,0.354,0.7,0.707c0.6-0.088,1.5-0.266,1.1,0.531c1.8-0.442,3.5-0.885,4-2.123
				c0,0.088,0.3,0.088,0.4,0.177c0.1,0.266,0.199,0.266,0.3,0.619c1.6,0.354,1.899,1.593,4.3,1.504l0,0
				c0.2,0.089,0.4,0.265,0.4,0.53c0.6-0.441,1.1,0.178,1.5-0.176c-0.5-0.797,0.399-0.974,1-1.416c1.699-0.088,3.6,0.178,5,0.266
				c-0.2,0.619-1.2,1.326-0.301,1.77c0.601-0.089,1.2,0,1.7-0.089l0,0c0.3,0,0.4-0.089,0.5-0.089c0.4,0,0.8-0.177,1.4-0.088
				c0-0.266-0.3-0.354-0.2-0.619c0.7-0.797,3.1-0.354,4.3-0.797c0.9,0.178,1.601,0,2.3,0.089c0.2,0.354,0.301,0.708,0.101,1.238
				c0.6,0.177,1.2,0.177,1.8,0.177c0.4,0.885,1.6,1.063,2.5,0.354c-0.4-0.53-1.2-0.441-2-0.53c-0.3-0.354-0.2-0.708-0.3-1.062
				c0.399-0.088,0.899,0.088,1.3,0c0.6,0.178,1.6,0.088,1.5,0.707c0.4-0.441,0.2-0.529,1.2-0.354c-0.5-0.176-0.2-0.441-0.101-0.619
				c0.7-0.088,1.4-0.176,2.301-0.266c-0.2,0.178-0.7,0.266-1,0.443c0,0.266,0.699,0.176,0.5,0.619c1.1,0.088,2,0.088,2.6-0.266
				c0.5,0.088,0.6,0.354,0.5,0.707c0.2,0,0.6,0,0.9,0c0-0.265,0.1-0.354,0.3-0.354c-0.8-0.531-0.5-1.061-0.7-1.415
				c0.4-0.177,0.7-0.442,1.5-0.354c-0.5,0.619,0.101,1.328,0.4,2.301c0.9,0.354,1,0.177,2.6,0c-0.199-0.354-0.1-0.531,0-0.708
				c0.101,0,0.101,0.089,0.2,0.089c0-0.089,0-0.089,0-0.178c0.3,0.089,0.5,0.266,0.7,0.443c0,0.265-0.9,0.088-0.7,0.619
				c0.7,0.53,1.9,0.53,3.1,0.441c0.7,0.266,1.9,0.089,2.9,0.178c-0.1-0.178-1.3-0.354-0.5-0.619c-0.3,0.088-0.9,0.265-1.6,0.354
				c0.1-0.178,0.199-0.266,0.199-0.531c1.101-0.177,1-0.266,2.4-0.266c-0.1-0.265,0.2-0.354,0.3-0.441
				c2.7-0.266,5.301-0.354,5.7,1.68c1.2-0.176,1.5-0.441,2.9-0.176c-0.2-0.266-0.4-0.531-1-0.531c0.199-0.177,0-0.354,0.1-0.531
				c0.8,0,1.8-0.176,2.1,0.178c0.301,0,0.301-0.266,0.301-0.442c1.3,0,2.399-0.089,3.5-0.089c0.3,0.089,0.8,0.089,0.8,0.354
				c4.1-0.088,6.9-0.265,9.9,0.619c0.3-0.354,0.899-0.265,1.3-0.441c2.2,0.088,4.399,0.088,6.399,0.088l0,0
				c1,0.531,2.101,1.15,3,1.77c0.101-0.531,0.5-0.885,0.9-1.238c1.3-0.178,2.3-0.442,3.2,0.354c0,0.442-0.101,0.707-0.8,0.707
				c0.399,0.443,1.1-0.176,1.699,0c-0.199-0.176-0.6-0.265-0.399-0.795c3.8-0.531,7.1-0.089,10.5-0.531c0.1,0,0,0.088,0.1,0.088
				c0-0.088,0.1-0.088,0.1-0.088c0.2,0,0.4,0,0.601,0c-0.301-0.088-0.2-0.266-0.2-0.354c0.2-0.089,0.2-0.266,0.4-0.354
				c0.199,0,0.3-0.09,0.5,0c-0.301,0.088-0.4,0.354-0.5,0.53c0.8-0.089,1.899,0,2.899,0c0.601,0.089,1.2,0.089,1.801,0
				c0.899,0,1.5,0,2.399,0c0.5,0.089,1.101,0.177,1.101,0.619c1.199,0.177,1.6,0,2.899,0c0-0.354,0.2-0.619,0.3-0.885
				c0.801-0.089,1.601,0,2.4-0.177c0.6,0.177,1.1-0.177,1.8-0.177c0,0.089,0.2,0.089,0.101,0.177c0.5,0,0.699-0.177,1.1-0.266
				c0.5-0.177,1.2,0.089,1.4-0.177c0.6-0.265,2.3,0.796,2.6-0.265c-0.6,0-1.1,0-1.4-0.178c0.101,0,0.101-0.088,0.101-0.088
				c0.3-0.089,0.899-0.089,1.1-0.266c0.2,0.088,0.2,0.177,0.3,0.177c0,0.089,0,0.089,0,0.089c0.9-0.354,1.4,0,1.2,0.796
				c0.101,0,0.2,0,0.3,0c0,0.089,0.2,0,0.2,0.089c2.4,0.795,4.7-0.619,6,1.061c1.2-0.53,3.101-0.53,4.2-1.149c0.2,0,0.4,0,0.6,0
				c0.7,0.442,1,1.149,2.4,1.415c1.1-0.707,2.4,0.797,3.8-0.088c0.2-0.531-0.8-0.266-0.7-0.708c2.7-0.354,2.4,2.653,4.801,1.503
				c0.3,0.09-0.101,0.531,0.699,0.62c2-0.354,2.301-1.946,4.101-2.389c0-0.089-0.101,0-0.2-0.089c1.9,0.089,3.6,0.089,5.5,0.089
				c-0.1,0,0,0.089-0.1,0.089c-0.2,1.061,0.699,1.68,0.399,2.919c1.601-0.177,1.4,0.177,2.9,0.177c0.5-0.177,0.6-0.619,1-0.796
				c1.6,0.708,3.3-0.177,4.6-0.442c0.601,0.177,0.9,0.531,1.2,0.973c3-0.177,4.9-1.061,6.3-2.034c0.4,0.884-1.2,0.796-1.5,1.593
				c1.601-0.443,0.7,0.265,1.5,0.707c1,0,1-0.707,1.9-0.797c0.1,0.709-0.7,0.797-0.5,1.504c0.5,0.09,0.899,0.266,1.7,0.178
				c-1.2-0.619,0-0.797-0.5-1.682c3-0.088,5.199,0.531,8.699-0.265c0.7,0.354,0.601,0.354,0.5,1.149c0.9,0.089,0.9-0.441,1.9-0.354
				c-0.3-0.177,0-0.266,0.1-0.354c0.101,0.354,1.101,0.266,0.801,0.885c0.3,0,0.5,0,0.699,0c0.101-0.885-0.5-1.063-1.5-0.885
				c0.301-0.354,1.101-0.442-0.399-0.707c0.8-0.531,1-1.504,0.3-1.947c0.7-1.504,1.5-0.973,3.2-1.592c1.1,0.088,1,0.973,1.899,1.15
				c0.801,0,0.9-0.443,1.2-0.797c0.5,0,0.2,0.443,0.9,0.354c-0.2,0.62-0.9,0.974-0.8,1.77c-1.101-0.266-1.4,0.178-1.9,0.443
				c0.5,0.795,1.5-0.09,2.4,0c0-0.354,0-0.62,0-0.974c1.399,0.177,1.899,0.619,1.399,1.681c1.601,1.15,6.5-0.178,3.2-1.238
				c0.8-0.531,1.2-1.416,2.7-0.973c0-0.531,0.699-0.619,1.199-0.797c1.601,0.266,0.9,1.062,1.7,1.946c0.6-0.266,1.2,0.354,1.2-0.266
				c0.399,0.974,2.5,0.796,3.399,1.504c0.5-0.089,1.4,0.089,1.4-0.442c0.7,0.178,1.6,0.885,2.6,0.354c0.7,0,0.301,0.708,0.7,0.974
				c1.5-1.239,5.2-0.354,5.8-1.946c-0.899-0.088-2.899,0.088-2.8-1.15c-2.2-0.088-6.5,0.619-7.5-0.707c2.8-2.123,9-0.885,12.8-0.707
				c0.601,1.326,1,2.564,1.4,4.245c0.9-0.089,0.3-0.442,1.2-0.177c0.399-0.885-0.101-1.326,0.5-2.3c1.399-0.089,2.3-0.442,2.7-1.239
				c0.399,0,0.899,0,1.399,0c0.4-1.503,2.3-0.884,3.4-1.769c2.6,1.327,3.2-1.503,6.3-0.265c-1.3,0.53-0.9,1.326-2,1.945
				c0.9,0,2.2-0.266,1.7-0.796c1.1-0.089,1.899,0.089,2.399,0.354c-0.699,0.795-2.6,2.211-3.699,1.149
				c-0.9-0.089-1.301,0.265-1.4,0.796c2.3-0.619,2.1,1.681,4,1.857c-0.2,0.089-0.5,0.089-0.5,0.442c1.5-0.177,1.7-0.442,3.4-0.089
				c-0.101-0.619-0.9-1.414-0.2-2.123c1.6,0.443,3.5,0.709,4.1,1.682c0.601,0,0.301-0.619,1-0.619
				c0.7,0.088,1.301,0.441,1.601,0.973c1.399-0.266,3.6,0.442,5.5,0.707c-0.7-2.211,3-3.096,5.6-2.211c0-0.354-0.6-0.354-1.2-0.354
				c0.101-0.354-0.199-0.442-0.199-0.708c0.3-0.619,2.3-0.089,2.199-0.974c-0.8,0.09-1.1-0.088-1.699-0.176
				c0.399-0.708,1.399-1.15,2.699-0.797c0.301-1.504,3.9-0.885,3.301,0.885c1.1,0.354,1.6,0.973,2.399,1.504
				c0.7-0.266,1.301-0.088,2.101,0c0.8-0.796,0.3-1.15-0.7-1.681c1.3-0.265,0.4-1.062,1.7-1.415c0.199,0,0.199,0.177,0.5,0.177
				c0.6,0.089-0.601,0.177-0.301,0.619c1.301,0,2.101-0.265,2.7-0.796c0-0.531-1.2-0.354-1-0.973c0.1-0.443,1.3-0.09,1.9-0.178
				c0,0.973,1.8-0.266,1.699,0.797c1.101,0.088,1.7-0.178,2.4-0.443c1,0,1.4,0.443,2.1,0.708c-0.6,0.53-1.1,0.62-0.5,1.415
				c-1.5-0.088-2.3,0.708-4.3,0.089c-0.2-0.53,0.3-0.619,0.3-0.974c-1.5,0.09-0.1,1.15-0.8,1.77c0.7-0.088,1.5-0.088,2.101-0.266
				c0.5,0.266-0.101,0.266,0,0.797c1.399,0.354,2.699,0.973,4.6,0.707c0.4-0.266-0.4-0.441,0.2-0.796
				c1.399-0.089,2.6,0.62,4.3,0.177c0.4,0.089,0.1,0.619,0.4,0.708c2.199-0.177,4,0.442,5.8-0.442c-0.2-0.973-1.101-1.504-2.9-1.504
				c0.2-0.177,0.3-0.441,0.2-0.796c2.5,0,6.4-0.619,5.5,1.327c1.4,0.796,2.3-0.354,2.4,0.354c0.699-0.088,1-0.531,1.699-0.619
				c-0.899-0.531-3.399,0-3.6-0.973c1,0.176,1.5,0,2.9-0.266c-0.5-0.885-1.9-0.973-2.4-1.857c1.9,0.176,4.7-0.443,7,0.885
				c1.5-0.885,5.8-1.682,5.3,0.53c-1.6-0.885-3.399-0.266-4.8,0.619c-0.9,0.089-1.1-0.265-1.5-0.53c-1.9,0.088-3.1,2.123-1,2.653
				c0,0.265-0.2,0.354-0.5,0.442c-0.1,0.441,1.2-0.442,1,0.354c0.5-0.354,2-0.531,1.9,0.354c0.699-0.176,1.899-0.619,2.399,0
				c0-0.354,0.7-0.796,0.2-1.326c3-1.416,4.5,0.177,7.5,0.088c0.1-1.15-2.2-0.707-1.6-2.299c-0.4-0.266-0.9-0.443-1.601-0.531
				c0.9-1.063-2.1-0.442-1.399-1.857c-1.101,0-1.9-0.266-2.101-0.974c-0.5,0.266-0.5,0.885-1.2,0.974
				c-1.199,0.176-2.399-1.063-2.899,0c-1.4-0.089-1.7-0.974-3.3-0.974c0.1,0.53-0.101,0.796-0.2,1.149
				c-1.8,0.354-3.2-0.529-4.3-0.176c-1-0.266-0.5-0.443-0.5-1.15c-0.4,0.088-1,0.088-1.2,0.354c-0.7-0.619-1.3-1.326-2.9-1.326
				c0.101,0.088,0.101,0.177,0.2,0.266c-0.2-0.178-0.3-0.354-0.6-0.531l0,0c-0.301-0.178-0.7-0.354-0.4-0.885
				c-1.4,0-2.2-0.442-3.1-1.15c-0.4,0.266-1.101,0.354-1.2,0.797c-0.5-0.531-0.3-2.035,0.3-2.301c0.4,0.885,2.3,0.709,2.4,1.682
				c0.8,0.088,0.8-0.354,1.699-0.266c0.5,0.354,0.5,0.885,0.2,1.326c0.9,0.266,1.5,0.266,2.4,0.178c0.1-0.708-0.3,0-1-0.178
				c-0.101-1.061,1.2-0.973,2-0.619c0.399-0.441,0.1-0.795,0.6-1.061c0.101,0,0.101,0,0.2,0c0.3,0.177,0.1,0.441,0.2,0.796
				c0.6,0.265,1.1,0.53,2.1,0.53c0.8-0.53,0-1.061,0.8-1.504c1.801,0.443,3.801,0.708,5.4,1.238c-0.4,0-0.7,0.178-1.1,0.178
				c0.699,1.415,4.6,0.088,5.5,0.707c0,0,0-0.088,0.1-0.088c0.6,0,1.2,0.088,1.3,0.441c-0.2,0.354-1.2,0.09-1.6,0.266
				c-0.101,0-0.101,0-0.2,0c-1-0.441-1.5-0.441-2.8-0.53c0.3,0.442,0.8,0.442,1.3,0.619c-1.7,0.089-3.4,0.266-5.3,0.354
				c-0.2,0.619,1.8,0.707,1.899,0.176c2,1.063,5.7,0.531,7.5,0.443c0.101-0.531-0.5-0.531-0.899-0.708
				c0.3-0.354,0.5-0.708,0.399-1.327c-0.6,0-0.8-0.088-1-0.266c0.2-0.088,0.4-0.176,0.5-0.354c0.101,0,0.4,0,0.5,0.088
				c0.9,0.178,0.801-0.265,1.2-0.441c0.5,0.354,0.7,0.885,1,1.326c-0.2,0.531-0.8-0.088-1.2,0c0.5,1.063,2.301,1.15,3.301,1.857
				c-0.5,0.354,0.3,0.797,0,1.504c0.699,0,0.899-0.441,1.899-0.266c2,0.885,1.101,2.654,3.601,3.273
				c-0.301,0.442-0.2,0.885,0.699,0.973c0.101-0.354-0.399-0.354-0.199-0.795c0.699,0.176,0.3,0.707,1.199,0.354
				c0,0.441-0.199,1.061,0.2,1.326c0.4-0.53,0.9-0.176,1.7-0.176c0,0.176,0,0.354,0,0.619c1.9-1.239,4.3,0.53,6.3,0.441
				c0.3-0.088,0.9-0.531,1.2-0.531c0.2,0,0.4,0.531,0.9,0.531c0.199,0,0.8-0.354,1-0.354c0.6,0.177,1.3,1.062,2.1,0.531
				c-0.4-0.531-1.4-0.709-2.1-0.974c-0.101-0.354,0.399-0.53,0.699-0.619c-0.399-0.354-0.6-0.266-1.199-0.177
				c0.199-0.354,0.1-1.062,1-0.973c-0.301-0.266-1.9-0.178-2.2,0c-0.4,0.619,0.8,0.176,0.7,0.53c0,0.53-1.4,0.089-1.9,0
				c0.6-0.885-0.8-0.442-0.2-1.415c-0.8-0.266-0.2,0.441-1,0.266c-0.399-0.266,0.101-0.443,0.5-0.619
				c-0.7-0.354-1.6-0.354-1.899-0.885c-1.2,0.354-1.7,1.149-2,2.123c-0.801,0-1-0.266-1.2-0.531c0.3-0.619,0.5-1.15,0.5-1.592
				c3.6-0.089,6.8-0.354,10.1-1.504c0.8,0,0.7,0.707,1.4,0.796c1.1-0.089,1.5,0.265,1.7-0.442c0.8,0.442,1.6,0.266,2.6,0
				c-0.3-2.211-3.8-0.973-5-1.681c-0.3,0.442-0.6,0.974-1.9,0.796c-0.199-0.177-0.399-0.354-0.5-0.531
				c0.101-0.265,0.601-0.265,0.801-0.441c0.699-0.089,1.399,0,2.1-0.178c0.2-0.441-0.3-0.441-0.5-0.619
				c1.3-0.176,2.8-0.265,3.9-0.176c-0.601-0.619,1.1-0.885,1.3-1.504c0.2-0.178,0.399-0.443,0.899-0.443
				c0.2,0.531-0.8,0.178-0.5,0.797c1.9,0.441,2.9-0.354,4.601-0.708c0.7,0.53,1.899,0.62,2.399,1.239
				c-0.199,0.088-0.5,0.088-0.5,0.441c0.9,0.089,0.9,0.797,2.2,0.531c-0.1-0.266-0.399-0.354-1-0.354
				c-0.2-1.682,1.601-1.682,3-1.504c0.101,0.266,0.601,0.088,0.601,0.441c0.199-0.088,0.3-0.088,0.5,0
				c0.3,0.266,0.5,0.619,0.699,0.974c1.101-0.089,1-0.885,1.7-1.149c1,0.973,1.8,2.122,3.8,2.477c-0.699-0.443-0.5-0.619-0.699-1.15
				c0.3-0.619,2.8-0.442,2.1,0.707c0,0.266-0.3,0.354-0.9,0.354c0,0.442,0.2,1.149-0.5,1.149c0.4-0.088,1.5,0.619,1.9-0.176
				c0.6,0.707,1.1,1.592,1.6,2.477c1-0.354,2.7-0.178,2.9-0.974c0-0.53-0.8-0.442-1.4-0.53c1.301-0.354,2.601-0.708,3.9-0.619
				c-1.1-0.708,0.8-0.885,0-1.77c0.7-0.619,1.7-0.531,2.6-0.177c0.2,0.619-0.699,0.265-0.699,0.708c0.3,1.061,1.5,1.504,2.899,1.857
				c-0.1,0.796,0.3,1.238,0.7,1.68c0.9-0.441,2-0.619,3.1-0.176c0,0.176,0,0.354,0,0.619c-0.3,0.441-1.5,0.088-2.199,0.177
				c-0.801,0.265,1.199,0.089,1.199,0.354c-0.3,0.619,0,0.796-0.3,1.504c1.601-0.974,2.7-2.3,4.2-3.361c-1.5,0-2.5-0.265-4.1-0.177
				c-0.301-1.15,1.699-0.708,1.5-1.77c-0.601-0.266-1.301-0.441-2.101-0.531c-0.1-0.354,0.4-0.529,0.5-0.795
				c1.101,0.176,2.7,0.265,4.2,0.265c-0.2,0.089-0.3,0.177-0.6,0.177c0,0.266,0.399,0.354,0.3,0.619c0.7,0.178,0.7-0.176,1.2-0.266
				c-0.2-0.176-0.301-0.354-0.4-0.53c2.1,0.089,4.1,0,5.1-0.442c2.4,1.682,8.301-1.415,8.4,2.212c1.3-0.177,3.1,0.265,3.6,1.062
				c-0.899,0.354-2.199,0.266-3.399,0.796c-0.101,0.265,1,0.442,0.3,0.53c0,0.178,0.4,0.178,0.7,0.178
				c0.899,0-0.101-0.266,0.5-0.531c1.3,0.442,1.899,0.178,3.1-0.266c-0.2-1.326-0.7-1.592-0.7-2.918c0.801,0.088,1,0.354,1.2,0.707
				c0.8-0.354,2.1-0.354,2.2-1.15c0.699,0.178,0.8,0.531,0.5,0.973c1.899,0,4.199-0.354,6.5-0.529c-0.4,0,0,0.619-0.5,0.529
				c0.199,0.266,0.8,0.266,1.199,0.354c-0.1-0.265-0.699-0.265-0.5-0.796c-0.1-0.088-0.1-0.088-0.199-0.088
				c3.399-0.354,6.8-0.531,9.399,0.265c-0.399,0.619-0.899,1.149-1.899,0.619c0.8,0.796-1.2,0.089-1.4,0.974
				c1.3-0.443,2,0.088,1.9,0.795c1.699-0.265,2.199,0.443,3.8,0.354c0-0.089,0.2-0.177,0.3-0.265c0.301,0.529,0.101,1.326-0.6,1.592
				c0.8,0.177,1.3,0.619,2.2,0.354c0-0.177,0-0.442,0-0.619c0.899-0.177,1.6,0.619,2.1,0.177c0.1-0.53-1-0.265-0.9-0.796
				c0.2-0.354,0.801-0.531,1.7-0.442c-0.2-0.619-1.2-0.177-1.9-0.177c-0.6-0.531,1.7-1.062,0.301-1.681
				c1.1,0.53,1.3-0.266,1.899-0.62c0.4,0.62,2.101,0.354,1.9,1.328c1.3-0.266,2.6-0.266,4.1-0.089c-0.1-0.266,0-0.354,0.2-0.354
				c0.4-0.619-1.1,0-0.7-0.619c0.2-0.53,0.801,0.089,1.2,0c0-0.619-0.4-1.061-1-1.326c-0.1-0.354,1.1,0.177,0.7-0.442
				c3.6,0.974,7.8,0.177,12.1,0.089c0.4-0.443,0.9-0.708,1-1.328c1.2,0,0.7,1.504-0.3,1.328c0,0.441,0.6,0.619,0.9,0.973
				c0.699-0.178,1-0.708,1.199-1.15c0.801,0.266,1.601-0.354,1.7-1.15c1.8,0.443,5.3,0.531,3.601,2.035
				c2.899,0,0.699,2.035,1.199,2.3c-0.699,0.708-2.199-0.177-3.6,0.089c0.1-0.619-1-1.592,1-1.592c0.4,0,0.5,0.265,0.4,0.619
				c0.5-0.09,0.6-0.443,0.699-0.797c-0.8-0.177-1.6-0.354-2.399-0.531c-0.801,0.09-0.2,0.354,0,0.619
				c-0.601-0.265-0.7-0.265-1.601-0.176c-0.199,0-0.399-0.089-0.5-0.266c-0.5,0.531-1.1,0.177-1.699,0.441
				c-0.301,0.354,0.699,0.619,0,0.619c0.399,0.443,2.3,0,1.899,0.974c-0.3,0.53-2.1-0.708-1.899,0.442c-0.801,0,0-0.973-1.2-0.707
				c0.1-0.354,0.5-0.619,0-0.974c-0.8,0.089-1,0.53-1.7,0.619c-0.3,0.885,0.6,0.974,0.4,1.769c1.199-0.265,1.399,0.09,2.399,0.178
				c0.2,0.531-0.3,0.441-0.7,0.619c0,0.177,0.4,0.177,0.7,0.177c0.2,0.53-0.7,0.266-0.5,0.796c0.101,0.178,1.601,0.354,0.4,0.354
				c2.5,0.797,10.3-2.211,11.1,1.416c1.2-0.178,1.5-0.442,2.9-0.178c-0.2-0.265-0.4-0.529-1-0.529c0.7-0.709,0.899-1.416,0.3-2.123
				c0-0.354,0.9-0.09,1.2-0.178c0.2,0.708-0.3,1.238,0,1.504c2.2-0.619,5.6,1.238,6.3-0.442c-1.6,0.53-2.1-0.796-3.8-0.177
				c-0.601-0.088-0.2-0.885,0-0.973c0.3,0.266,1.1,0.266,1,0.707c0.399,0,0.2-0.53,0.5-0.619c0.5,0.354,1.899,0,2.1,0.531
				c0.4-0.354-0.6-0.442,0-1.15c-0.899-0.266-2-0.441-2.399-1.15c2.199-0.265,3.1,0.178,5.3,0.266c-1.2,0.443-0.2,1.416,0.2,2.123
				c-0.801,0-0.801,0.442-1,1.15c3.899,0.531,10,0.531,14.6,0.531c0.2-0.178,0-0.619,0.7-0.531c0.1-0.708-1.3-0.531-1.601-0.973
				c0-0.354,0.601,0.176,0.9-0.178c0-0.266,0-0.53,0-0.796c-1.1-0.265-3.1,0-4.1-0.354c1.1-1.238,5.399-0.265,7.199-1.061
				c1.4,0.441,2.801,0.707,4.601,0.531c0.3,0,0.1,0.354,0.2,0.619c-0.801,0.354-1.4,0.088-2.2,0.265
				c-0.2,1.149,1.6,0.796,2.899,0.885c0.101,0.884-1.899,0.177-1.899,0.974c-1.3-0.709-2.7-0.354-3.601,0.265
				c-0.6,0-0.1-0.708-0.899-0.53c0.2,0.619,1.2,0.707,1.399,1.326c1.601-0.266,2.601-0.531,3.601,0.354
				c0,0.443-0.101,0.708-0.8,0.708c0.399,0.442,1.1-0.177,1.699,0c-0.199-0.177-0.6-0.265-0.399-0.796
				c4.1-0.531,7.6,0.088,11.3-0.531c-0.7-0.354-0.2-0.619-0.5-0.973c-1.2-0.177-2.5-0.796-3.4-0.177c-0.399,0-0.5-0.266-0.399-0.619
				c0.6-0.354,2.199,0.089,2.399-0.62c0.9,0.09,0.7,0.885,1.101,1.328c0.6-0.178,1.399-0.619,2-0.178c0.1,0.708-0.801,0.708-1,1.15
				c3.399-0.266,9,0.619,13.699-0.354c1.5,0.441,3.7,0.53,4.4-0.443c0.6-0.265,2.2,0.797,2.6-0.265c-0.6,0-1.1,0-1.399-0.177
				c0.5-0.708,1.199-1.15,1.5-1.946c-0.4,0-0.801,0-1.2,0c0.2,0.619-0.3,0.796-0.3,1.327c-0.601-0.178-0.801-0.443-1.7-0.354
				c-0.3-0.09-0.8-0.709-0.2-0.797c-0.699-0.442-1.699,0.442-2.399,0.619c-0.5,0-0.101-0.707-0.5-0.796
				c-1.9,0.354-2.7-0.266-3.9,0.265c-0.1,0.531,0.7,0.354,0.5,0.974c-0.7-0.265-1.4-0.619-1.7-1.149
				c-3.1-0.089-8.699,0.441-12-0.089c0.5-0.177,1.301-0.266,1.601-0.619c0.199-0.089,0.399-0.089,0.6-0.089
				c3,0.885,7.3,0,10.3,0.089c-0.6-0.266-1.5-0.354-2.399-0.354c0-1.238,1.6-1.149,2.399-0.973c0.101,0.088,1.5,1.238,0.9,1.238
				c3.4,0.708,7-0.53,9.4,0.089c0-0.708-1.601-0.53-1.9-1.149c1.6-0.266,3.4,0.707,4.3,1.414c3.4-0.53,6.5,0,9.4-0.265
				c0-0.885-0.9-1.149-1.4-1.681c-1.1,0.177,0,0.973-1.2,1.15c-0.5-0.266-0.3-0.974-1-1.15c0.301,1.326-4.899,1.681-5.3,0.441
				c0-0.265,0.601-0.176,0.9-0.176c0-1.77-1.8-1.504-3.5-1.504c-0.101-0.354,0-0.619,0.2-0.797c2.199,0.797,4.699-0.619,7,0.089
				c0-0.53,0.899-0.354,0.699-0.974c1.2,0,2.9,0.354,3.4-0.441c0.4,0.531,2,0.354,2.4,0.885c-0.101,0.176-1.4-0.089-1.9,0.176
				c0,0.974,1,1.239,1.4,1.947c1.6,0.176,3,0.354,4.1-0.266c2,1.238,6.9,0.266,9.4,0.885c-0.5-0.531-0.2-0.619-0.5-1.15
				c-2.7-0.177-3.9-0.088-6.801-0.088c-0.199-0.178-0.399-0.354-0.5-0.531c0.801-0.266,2.9,0,3.801,0
				c1.1-0.973,3.5-1.238,4.899-2.035c0.3,0.178,0.601,0.266,0.7,0.531c-0.6,0.531-1.8,0.619-2.4,1.15
				c2.601,0.176,3.9,0.266,5.301,0.707c-1.2,0.708-1.301-0.177-3.4,0.266c-0.1,0.442-0.4,0.707-1,0.797c1,0.529,3.5-0.531,4.3,0.354
				c-1.8,0.885-4.399-0.178-6.6,0.707c0,0.354,0.399,0.442,0.5,0.797c0.899,0.176,0.899-0.354,1.5-0.443
				c5,0.619,12.5,0.885,17.1,0.531c0.2-0.619-1.2-0.177-1-0.797c0.601-0.354,2.101,0.178,3.101-0.619
				c0.899,0.619,4.8,0.619,5.6-0.265c1.3,0,2.9,0.53,4.1,0.177c0.2-0.531-0.8-0.266-1-0.531c-0.199-0.441,0.7-0.265,0.5-0.795
				C1913.699,157.308,1917.299,156.865,1919.999,157.396L1919.999,157.396L1919.999,157.396z"/>
		</g>
	</g>
	<rect id="svg_4" x="0.09" y="1.428" width="1919.91" height="152.888"/>
</g>
<rect x="0.09" y="-330.739" width="1919.91" height="352.482"/>
</svg>
