<?xml version="1.0" encoding="utf-8"?>
<!-- Generator: Adobe Illustrator 16.0.0, SVG Export Plug-In . SVG Version: 6.00 Build 0)  -->
<!DOCTYPE svg PUBLIC "-//W3C//DTD SVG 1.1//EN" "http://www.w3.org/Graphics/SVG/1.1/DTD/svg11.dtd">
<svg version="1.1" id="Layer_1" xmlns:svg="http://www.w3.org/2000/svg"
	 xmlns="http://www.w3.org/2000/svg" xmlns:xlink="http://www.w3.org/1999/xlink" x="0px" y="0px" width="1920px" height="501.04px"
	 viewBox="0 0 1920 501.04" enable-background="new 0 0 1920 501.04" xml:space="preserve">
<g>
	<g>
		<g>
			<path id="svg_3" d="M858.45,4.199c-0.2,0-0.4,0-0.7,0c0,0.354,0,0.798,0,1.15C858.149,5.084,858.649,4.818,858.45,4.199z
				 M907.049,5.536c0.2-0.796-1.8-0.531-2.1-0.178c-1.201,0-2.801-1.063-3.4-0.001C903.149,5.27,905.349,5.802,907.049,5.536z
				 M952.149,7.138c0.2-1.416-1.799-1.682-2.899-0.797C949.849,7.138,951.148,6.519,952.149,7.138z M705.349,3.991
				c-0.898-0.089-1.299,0.177-1.7,0.354c0.102,0.354,0.5,0.53,0.9,0.795C705.149,4.965,705.349,4.611,705.349,3.991L705.349,3.991z
				 M828.149,6.669c0.5,0.089,1.101,0.266,1.9,0.178C831.849,5.698,827.75,4.99,828.149,6.669z M655.049,4.07
				c-0.7,0.177-1.2,0.088-1.5-0.354C652.649,4.07,655.149,5.22,655.049,4.07z M750.049,5.77c0-0.176,0-0.354,0-0.619
				c-0.599-0.088-0.7,0.178-0.7,0.618C749.549,5.77,749.849,5.769,750.049,5.77z M751.95,6.301c-0.302,0-0.602,0-0.9,0
				c0-0.088,0-0.266,0-0.354c-1.4-0.178,0.099,0.707-1,0.619c0,0.531,1.2,0.266,1.9,0.355C751.549,6.565,752.049,6.742,751.95,6.301
				z M670.849,5.842c0-0.178,0-0.354,0-0.619c-0.7,0.265-1.299-0.443-1.7,0C669.349,5.666,669.849,5.93,670.849,5.842z
				 M601.849,7.244c0.8-0.354,1.4-0.884,2.2-1.149c-0.1-0.177-0.3-0.354-0.401-0.619C602.149,5.386,601.75,6.182,601.849,7.244
				L601.849,7.244z M709.049,7.089c-0.7,0.087-0.7-0.355-1.2,0c0,0.176,0,0.266,0,0.354C708.449,7.53,709.149,7.796,709.049,7.089z
				 M484.349,5.805c0.401-0.266,0.301-0.885,0.301-1.328c-2,0.619-3.5,0.619-5.6,0.265c0.3,0.443,1.5,0.354,1.5,0.974
				C481.649,4.742,482.349,6.069,484.349,5.805L484.349,5.805z M711.249,7.708c0.2-0.443-0.602-0.266-0.7-0.62
				c-0.6,0.088-1,0.795-0.5,1.15C710.549,8.238,711.049,8.149,711.249,7.708L711.249,7.708L711.249,7.708z M630.549,7.074
				c-0.2-0.267-0.401-0.444-0.5-0.708c-0.5,0-0.7,0.177-1,0.177C629.349,6.895,629.75,7.073,630.549,7.074L630.549,7.074z
				 M748.048,7.981c-0.399-0.266-0.9-0.09-1.4,0c0.101,0.176,0.2,0.265,0.2,0.529C747.548,8.601,748.148,8.601,748.048,7.981
				L748.048,7.981z M622.849,7.16c0.102-0.354-0.1-0.442-0.198-0.707c-0.4,0.087-0.5,0.354-0.5,0.708
				C622.349,7.16,622.649,7.159,622.849,7.16z M628.149,8.222c0-0.442-0.6-0.53-0.5-0.974c-1.2,0.266-0.7-0.62-1.601-0.531
				C626.35,7.425,626.949,7.958,628.149,8.222L628.149,8.222z M619.949,8.928c0.6,0.088,0.699-0.178,0.699-0.619
				c0.699,0,0.5,0.53,1.2,0.529c-0.3-0.442,0-0.795,0.5-1.148c-1.199-0.618-3-0.797-4.6-1.064
				C618.449,7.423,620.249,7.424,619.949,8.928L619.949,8.928L619.949,8.928z M550.35,6.349c-0.1-0.266-0.8-0.089-0.8-0.354
				c-0.1,0.089-0.199,0.178-0.399,0.178c0,0.088,0,0.266,0,0.354C549.75,6.525,550.049,6.525,550.35,6.349L550.35,6.349z
				 M613.85,8.662c0.899-1.238-0.3-2.3-2.101-1.682c0,0.265,0.4,0.354,0.899,0.354c0,0.62-1.199,0.442-1.199,1.149
				C612.548,8.396,612.949,8.749,613.85,8.662L613.85,8.662z M595.85,6.8c-1.199,0.266-1.699,0.354-2.899,0
				c-0.5,0.266-0.401,0.973-1,1.15c0.5,0.44,1.199,0.529,1.899,0.176c-0.601,0.974-2.101,1.15-3.899,1.063
				c0.799,0.529-0.401,0.706,0.199,1.325c1.301-0.354,2,0.001,2.699-0.618c0.801,0.089,0.301,0.619,0.2,0.973
				c0.401-0.088,0.4-0.529,1.2-0.354c-0.401-0.443-0.8-1.063,0.199-1.15c-0.699-0.973,0.7-1.326-0.5-1.857
				c0.5,0.089,1.5,0.354,1.9,0.001C595.349,7.242,595.45,7.154,595.85,6.8L595.85,6.8L595.85,6.8z M449.649,6.063
				c-0.399-0.265-1.1-0.354-1.899-0.354C447.45,6.77,449.15,6.239,449.649,6.063z M394.95,6.052c0-0.177-2-0.354-1.7,0.177
				C394.049,6.318,394.15,5.962,394.95,6.052z M626.149,10.7c1.2,0,1.2-0.797,1.7-1.328c0.8,0,0.8,0.62,1.9,0.531
				c0-1.238-1.101-0.619-2.2-0.707c-1.8-0.09-4.199-0.179-5.5-0.355c0,0.266,0.4,0.354,0.3,0.62c0,0.177-0.399,0.177-0.699,0.177
				c0.199,0.442,0.699,0.797,1.398,0.973C623.149,9.371,627.049,9.018,626.149,10.7L626.149,10.7L626.149,10.7z M597.449,8.834
				c-0.9,0.177-0.601-0.442-1.4-0.354c0.2,0.975-0.3,0.974-1,0.974c0.2,0.442,1,0.619,1,1.148c0.5-0.087,0.601-0.353,1.401-0.264
				C596.048,9.808,597.849,9.896,597.449,8.834z M617.249,9.194c-1,0.088-1,0.619-2.201,0.265c0.5,0.354,1.301,0.53,2.401,0.53
				C617.649,9.635,617.049,9.635,617.249,9.194L617.249,9.194L617.249,9.194z M582.949,12.105c1.099,0.088,1.399-0.441,2.199-0.62
				c0.001-0.266-0.6-0.176-0.399-0.619c-0.7,0.088-1.4,0.353-1.601,0.796c-0.5-0.265-1.899-0.266-1.6,0.266
				c0.6-0.089,0.9-0.178,1.5-0.088C583.048,11.929,582.849,12.016,582.949,12.105z M675.748,15.308c-0.201-0.53,0.299-0.53,1-0.442
				c-0.2-0.619-2.601,0.178-2.899-0.708c0.199-0.442,1.5,0,1.699-0.354c1,0.53,1.5,0.441,2.9,0.53c-1-1.238-3-0.885-4.4-1.15
				c-0.399,0.354-0.6,0.885-0.5,1.592C674.648,14.6,674.248,15.573,675.748,15.308L675.748,15.308L675.748,15.308z M242.148,12.655
				c0.3,0.709,3,1.063,3.601,0.179C244.349,12.922,243.249,12.126,242.148,12.655z M196.749,12.47c-0.3-0.443-1-0.531-1.899-0.532
				c0.099,0.62,0.899,0.708,1.199,1.15C196.548,13,196.349,12.47,196.749,12.47L196.749,12.47L196.749,12.47z M143.548,12.459
				c-0.3-0.708-1.5-0.089-2.399-0.179C141.349,13.344,142.648,12.37,143.548,12.459z M613.448,11.58c0.5-0.088,1.1,0.442,2.1,0.531
				c0.2-0.707-1.5-0.266-1.699-0.796C613.649,11.316,613.648,11.669,613.448,11.58L613.448,11.58z M640.649,11.498
				c-0.101,0-0.199,0-0.3,0c0.1,0.089,0.199,0.178,0.199,0.266C640.548,11.674,640.548,11.585,640.649,11.498L640.649,11.498z
				 M640.649,11.498c0.2,0,0.5,0.089,0.601-0.088C640.948,11.409,640.748,11.409,640.649,11.498z M636.648,12.823
				c0.4-0.442,1.101-0.708,1.5-1.148c0.9,0.088,1.5,0,2.201-0.178c-0.4-0.176-1.301-0.176-1-0.885c-1,0.53-1.6,0.354-3.1,0.265
				c0,0.267,0.1,0.532-0.201,0.532C636.849,11.761,636.949,12.027,636.648,12.823z M651.649,8.315c-2.399,0-6.5,0.174-7.699-1.858
				c-0.801,0.441-2.101,0.619-3.601,0.618c-0.101,0.265,0.101,0.354,0.399,0.354c-0.101,0.442-1.3,0.088-1.899,0.177
				c-0.199-0.089-0.199-0.354-0.199-0.975c-1,0.178-1.2-0.264-1.9-0.354c-0.7,0.089-1.399,0.266-1.199,0.973
				c-1.901,0.089-1.7-1.238-3.601-0.708c0.6,0.973-0.5,0.619-0.699,1.326c-0.901,0.09-1.601,0-2.2-0.176c0,0.44,1,0.354,1,0.795
				c4.5-1.856,4.499,2.479,7-0.439c2.5,0.531,3.999,0.62,6.5-0.087c0.601,0.088,0.301,0.707,0.899,0.707
				c-0.3,0.619-1.4-0.178-1.699,0.618c0.799-0.176,2.699-0.087,3.6,0.532c0.5-0.088,0.6-0.443,1-0.618
				c1.399,0.795,4.5,0.62,6.5,0.089C653.05,9.112,652.049,9.022,651.649,8.315L651.649,8.315L651.649,8.315z M603.949,8.217
				c-1.801,0.708-4-0.266-5.301,1.061c0.5,0.266,1.7,0,1.2,0.973c0.8,0.089,1,0.531,1.9,0.179c0.199,0.088,0.399,0.266,0.398,0.619
				c-1,0.618-2.699,0.354-4.6,0.44c0.9,0.178,0.7,0.53,0.5,1.15c0.801-0.178,1.4-0.442,1.9-0.796c1.899,0.796,4.3,0.001,6,0.355
				c-0.5-0.796-2.5-0.619-3.401-1.149c-0.099-0.531,0.801-0.354,0.5-0.974c-0.3,0-0.7,0-1,0
				C602.949,9.632,603.049,8.66,603.949,8.217L603.949,8.217z M631.648,12.203c0.301-0.177,1-0.177,1-0.619
				c0.399,0.267,1,0.354,1.2,0.708c0.699,0.088,0.5-0.532,1.399-0.354c0.201-0.443,0.101-0.619,0.5-1.149
				c-1.399,0.44-2.101-0.62-3.3-0.179c-0.9-0.53-0.2-0.884-0.5-1.68c-0.9,0.177-0.7,1.148-1,1.77c-1.001-0.443-2.201,0.175-2,1.148
				c1.199,0.001,1,0.089,2,0.001c0.3-0.178,0.099-0.796,0.699-0.796C632.649,11.23,631.449,11.583,631.648,12.203L631.648,12.203
				L631.648,12.203z M460.95,4.119c-0.2,0-0.4,0-0.7,0c0,0.354,0,0.797,0,1.149C460.65,5.004,461.15,4.738,460.95,4.119z
				 M509.65,5.456c0.2-0.796-1.8-0.53-2.101-0.178c-1.099,0-2.8-1.062-3.399,0C505.75,5.19,507.851,5.721,509.65,5.456z
				 M307.95,3.911c-0.9-0.089-1.301,0.177-1.701,0.354c0.101,0.354,0.5,0.53,0.899,0.795C307.75,4.885,307.95,4.532,307.95,3.911
				L307.95,3.911z M430.649,6.589c0.5,0.089,1.101,0.266,1.9,0.179C434.351,5.618,430.25,4.91,430.649,6.589z M257.55,3.99
				c-0.7,0.177-1.199,0.087-1.5-0.354C255.15,3.99,257.65,5.141,257.55,3.99z M352.65,5.689c0-0.176,0-0.354,0-0.619
				c-0.601-0.088-0.699,0.179-0.699,0.619C352.15,5.689,352.45,5.689,352.65,5.689z M354.549,6.221c-0.3,0-0.6,0-0.899,0
				c0-0.088,0-0.266,0-0.354c-1.399-0.177,0.1,0.708-1,0.619c0,0.531,1.2,0.267,1.899,0.354
				C354.15,6.486,354.549,6.663,354.549,6.221z M273.35,5.762c0-0.178,0-0.354,0-0.619c-0.699,0.265-1.301-0.443-1.699,0
				C271.95,5.586,272.449,5.85,273.35,5.762z M204.35,7.164c0.801-0.354,1.399-0.884,2.2-1.149c-0.1-0.177-0.3-0.354-0.399-0.619
				C204.65,5.306,204.35,6.103,204.35,7.164L204.35,7.164z M311.549,7.009c-0.699,0.088-0.699-0.354-1.199,0
				c0,0.176,0,0.265,0,0.354C311.049,7.45,311.649,7.716,311.549,7.009z M86.85,5.725c0.301-0.266,0.2-0.884,0.2-1.328
				c-1.899,0.618-3.4,0.618-5.5,0.265c0.3,0.443,1.5,0.354,1.5,0.973C84.15,4.663,84.85,5.99,86.85,5.725z M313.75,7.629
				c0.2-0.443-0.601-0.267-0.7-0.619c-0.601,0.088-1,0.795-0.5,1.148C313.149,8.158,313.649,8.069,313.75,7.629L313.75,7.629z
				 M233.15,6.994c-0.199-0.267-0.399-0.444-0.5-0.708c-0.5,0-0.699,0.176-1,0.177C231.85,6.815,232.35,6.993,233.15,6.994
				L233.15,6.994z M350.649,7.902c-0.399-0.267-0.899-0.09-1.399-0.001c0.1,0.176,0.2,0.266,0.199,0.529
				C350.149,8.521,350.749,8.521,350.649,7.902L350.649,7.902z M225.35,7.08c0.101-0.354-0.101-0.442-0.199-0.707
				c-0.401,0.087-0.5,0.354-0.5,0.707C224.949,7.08,225.149,7.08,225.35,7.08z M230.65,8.142c0-0.441-0.6-0.53-0.5-0.974
				c-1.2,0.266-0.7-0.619-1.6-0.531C228.85,7.345,229.55,7.878,230.65,8.142L230.65,8.142z M222.549,8.848
				c0.6,0.088,0.7-0.177,0.7-0.618c0.7,0,0.5,0.53,1.2,0.53c-0.3-0.442,0-0.796,0.5-1.149c-1.199-0.618-3-0.797-4.6-1.063
				C220.95,7.344,222.85,7.345,222.549,8.848L222.549,8.848L222.549,8.848z M140.149,6.356c0.001-1.238-2.299-0.354-3.6-0.532
				c0.1,0.177,1.3,0.355,0.5,0.62C137.45,6.442,138.949,5.559,140.149,6.356z M153.05,6.269c-0.101-0.265-0.801-0.088-0.801-0.354
				c-0.199,0.089-0.3,0.178-0.5,0.179c0,0.088-0.001,0.266-0.001,0.354C152.249,6.445,152.65,6.445,153.05,6.269z M216.449,8.582
				c0.9-1.238-0.3-2.3-2.1-1.681c0,0.265,0.4,0.354,0.9,0.354c0,0.621-1.2,0.442-1.201,1.149
				C215.149,8.315,215.55,8.668,216.449,8.582L216.449,8.582z M198.35,6.721c-1.199,0.265-1.699,0.354-2.899-0.001
				c-0.5,0.267-0.399,0.974-1,1.15c0.5,0.441,1.199,0.529,1.899,0.176c-0.6,0.973-2.1,1.15-3.899,1.063
				c0.801,0.53-0.4,0.706,0.199,1.326c1.301-0.354,2,0,2.701-0.619c0.8,0.088,0.299,0.619,0.199,0.973
				c0.4-0.088,0.401-0.53,1.2-0.354c-0.399-0.442-0.801-1.062,0.2-1.149c-0.699-0.974,0.701-1.326-0.5-1.857
				c0.5,0.089,1.5,0.354,1.9,0.001C197.85,7.163,197.949,7.074,198.35,6.721L198.35,6.721L198.35,6.721z M167.35,6.98
				c0-0.266-0.399-0.354-0.299-0.619c-0.5,0-0.601,0.088-0.901,0.176C166.35,6.891,166.55,7.156,167.35,6.98L167.35,6.98z
				 M159.549,8.924c0.4-0.266,1.199-0.266,1.2-0.795c-0.699,0.177-1.5,0-1.899,0.176c-1.101-0.354-0.4-0.974-0.2-1.681
				c-0.799-0.177-1.699-0.354-2.399-0.178c0.801,0.62,1.5,1.327,0.699,2.3c0.801,0.178,1,0.619,1.9,0.708
				c0.1,0.441-1.601-0.266-1.2,0.441c1.9-0.441,1.801,0.619,3.1,0.531c-0.601-0.442,0.399-0.087,0.301-0.619
				C159.949,9.897,160.149,9.102,159.549,8.924z M177.05,7.954c0-0.531-0.801-0.619-0.9-1.15c-0.6,0.442-1.1-0.178-1.5,0.178
				c0.6,0.973-1.301,0.885-1.5,1.768c1.4,0.62,1.9-0.795,3.601-0.441C176.649,8.132,176.749,8.042,177.05,7.954L177.05,7.954z
				 M52.15,5.983c-0.399-0.265-1.1-0.354-1.899-0.354C50.05,6.691,51.65,6.16,52.15,5.983z M187.249,8.842
				c-0.2-0.267-0.601-0.354-0.699-0.708c-0.601,0.088-1.5,0.265-1.1-0.53c-1.802,0.441-3.5,0.884-4.001,2.122
				c-0.6-0.619-3.601-1.151-4.3-0.354c0,0.53,1.1,0.266,1,0.796c0.801,0.089,0.101-0.796,1-0.619c0.801-0.177,0.301,0.531,0.7,0.619
				c1.7-0.354,4.8-0.795,5.601-1.591C185.949,8.663,186.449,8.841,187.249,8.842L187.249,8.842z M144.249,7.947
				c0-0.619-1-0.619-1.699-0.708c-0.401,0.53-0.601,1.062-0.301,1.327c0.801,0,0.2-0.266,0.5-0.797
				C143.55,7.683,143.449,8.125,144.249,7.947L144.249,7.947z M6.75,6.241C6.55,5.62,4.649,5.974,4.05,6.063
				c0.5,0.354,1.199,0.53,2.199,0.53C6.35,6.504,6.449,6.329,6.75,6.241z M228.649,10.62c1.201,0,1.2-0.797,1.701-1.328
				c0.8,0,0.799,0.62,1.899,0.531c0-1.238-1.101-0.619-2.2-0.708c-1.8-0.089-4.2-0.179-5.5-0.355c0,0.266,0.399,0.354,0.299,0.619
				c0,0.177-0.399,0.177-0.699,0.177c0.199,0.442,0.699,0.797,1.399,0.973C225.75,9.291,229.649,8.938,228.649,10.62L228.649,10.62
				L228.649,10.62z M200.05,8.754c-0.9,0.178-0.601-0.442-1.4-0.354c0.2,0.974-0.3,0.974-1,0.974c0.2,0.442,1,0.619,1,1.149
				c0.5-0.087,0.601-0.354,1.401-0.265C198.649,9.729,200.349,9.817,200.05,8.754z M219.849,9.114c-1,0.088-1,0.619-2.199,0.265
				c0.5,0.354,1.3,0.53,2.399,0.531C220.149,9.555,219.549,9.555,219.849,9.114L219.849,9.114L219.849,9.114z M167.349,8.837
				c0.5,0.177,1.101,0,1.9,0.354c0-0.266-0.4-0.354-0.301-0.62c-0.899,0-0.6,0.177-1.399,0
				C167.55,8.748,167.449,8.838,167.349,8.837z M100.649,8.116c-0.2,0-0.199,0.089-0.199,0.177s0,0.266,0,0.442
				c0.399-0.354,1.101-0.088,1.101,0.354c1,0.176,1.1-0.266,1.7-0.443C102.949,7.939,101.05,8.381,100.649,8.116z M146.349,9.099
				c-0.299-0.443-1.199-0.178-1.899,0c0.399,0.175,0.3,0.707,0.699,0.973C145.949,10.159,145.449,9.1,146.349,9.099L146.349,9.099z
				 M17.149,8.542c0.301-0.178,1-0.178,1-0.619c-1,0-1.3,0.266-1.898-0.178C15.449,8.099,17.149,8.276,17.149,8.542L17.149,8.542z
				 M25.449,8.631c-0.101,0-0.1,0.088-0.199,0.088c0.3-0.088,0.5,0,0.8,0.001C25.85,8.72,25.649,8.631,25.449,8.631L25.449,8.631z
				 M23.25,8.631c0.599,0.885,1.1,0.178,2,0.088C24.55,8.809,23.75,8.456,23.25,8.631z M26.05,8.72c2.5,0.266,5.7,1.416,7.799,0.354
				C31.75,8.191,28.75,8.457,26.05,8.72z M155.049,9.896c-0.4,0.884,1.599,1.238,1.4,0.177
				C155.75,10.161,155.75,9.808,155.049,9.896z M173.25,11.05c-0.102,0.797,1.1,0.619,1,1.326c0.699-0.708,1.099,0.09,2.398,0.001
				c-0.3-0.442-0.6-0.796-1-1.15C174.649,11.404,174.25,11.05,173.25,11.05z M184.148,11.848c0.801-0.178,0.901-0.353,1.9-0.177
				C186.148,11.14,183.75,11.229,184.148,11.848z M16.05,10.487c1,0.178,1.7,0,2.6,0.532c0.3-0.266,1.3-0.177,1.2-0.796
				C18.449,10.312,16.349,9.162,16.05,10.487L16.05,10.487L16.05,10.487z M12.149,9.956c-0.2,1.149,3,1.063,2.9,0.001
				C14.149,9.603,13.349,10.044,12.149,9.956z M10.75,10.398c-2-1.327-6.102-0.178-8.7-0.709c-0.501,0.885,1.5,1.149,1.7,0.531
				C6.349,10.928,8.049,10.576,10.75,10.398L10.75,10.398z M39.75,11.553c1.7-0.354,5.398,0.531,7-0.441
				c-1.4-1.062-4.301-0.355-6.7-0.53C39.949,11.2,39.35,11.022,39.75,11.553z M4.448,11.458c0.101,0.176,0.301,0.266,0.199,0.529
				c0.9-0.088,2.102,0.532,2.401-0.175c0.2-0.443-0.8-0.178-0.701-0.619C5.649,11.634,5.049,11.282,4.448,11.458z M139.249,12.635
				C139.349,12.634,139.349,12.634,139.249,12.635C139.349,12.634,139.249,12.635,139.249,12.635
				C139.349,12.634,139.349,12.634,139.249,12.635z M139.349,12.634c0.101,0.178,0.101,0.443,0.601,0.354
				C140.048,12.634,139.749,12.725,139.349,12.634z M215.948,11.5c0.5-0.088,1.101,0.442,2.101,0.531c0.2-0.707-1.5-0.266-1.7-0.796
				C216.149,11.236,216.249,11.589,215.948,11.5L215.948,11.5z M56.85,8.018c0.5-0.44,0.5-0.885,0-1.326
				c-3.6,0.618-7.699-0.18-11.1,0.528c-0.2-0.177-0.4-0.354-0.5-0.531c-7.102-0.001-15.5-0.622-23.101-0.271
				C18.75,5.533,11.649,6.063,7.75,5.797C9.55,7.479,14.85,6.33,17.148,6.685c0.701,0,1.2-0.178,1.701-0.442
				c2.4,0.53,4.3,0.531,6.2,1.239c4.899-0.618,8.9,1.24,12.5,0.003c0.8,0,0.1,0.974,1.2,0.708c0.3,0.441-0.5,0.973,0,0.974
				c1-0.354,1.599-0.354,2.099,0.354c1.101,0,1.601-0.441,2.901-0.266c0.299-0.441,0.198-0.53-0.2-0.973
				c0.7-0.088,1.399-0.265,1.899-0.619c0.5,0.267,0.699,0.707,1.6,0.708c-0.5,0.62-1.299,0.266-2.6,0.266
				c0.899,0.708-0.9,0.531-0.5,1.327c2.101-0.53,3.399-0.177,5.801,0.09c0.199-1.062,1.699-0.884,2.699-0.973
				c0.3-0.531,0-0.354,0-0.974C53.949,7.843,54.449,8.284,56.85,8.018z M243.25,11.418c-0.102,0-0.2,0-0.301,0
				c0.101,0.089,0.199,0.178,0.199,0.266C243.049,11.594,243.149,11.506,243.25,11.418L243.25,11.418z M243.25,11.418
				c0.199,0,0.5,0.089,0.6-0.088C243.549,11.33,243.349,11.33,243.25,11.418z M239.148,12.744c0.401-0.442,1.102-0.708,1.5-1.148
				c0.901,0.087,1.5,0,2.2-0.178c-0.4-0.176-1.299-0.176-0.999-0.885c-1.001,0.531-1.6,0.354-3.1,0.265
				c0,0.266,0.099,0.531-0.2,0.532C239.349,11.681,239.449,11.948,239.148,12.744z M54.349,14.565c0.301,0.619,0.699-0.09,1.2-0.178
				c-0.7-1.592,2-0.354,2.7-0.795c0-0.708-0.9-0.885-1.602-1.149c-0.699,0.529-1.398,0.618-2.398,0.618
				C54.648,13.237,55.848,14.653,54.349,14.565L54.349,14.565z M254.25,8.235c-2.4,0-6.5,0.175-7.7-1.858
				c-0.8,0.441-2.101,0.619-3.601,0.618c-0.2,0.265,0.1,0.354,0.399,0.354c-0.1,0.441-1.3,0.087-1.899,0.176
				c-0.199-0.088-0.199-0.354-0.199-0.974c-1,0.178-1.201-0.265-1.9-0.354c-0.699,0.089-1.4,0.266-1.199,0.973
				c-1.9,0.089-1.699-1.238-3.601-0.708c0.601,0.973-0.5,0.619-0.7,1.326c-0.898,0.09-1.6,0-2.198-0.176c0,0.441,1,0.354,1,0.795
				c4.5-1.856,4.5,2.479,7-0.44c2.5,0.532,4,0.62,6.5-0.086c0.599,0.088,0.3,0.707,0.898,0.707c-0.3,0.619-1.398-0.178-1.699,0.619
				c0.8-0.177,2.699-0.087,3.601,0.531c0.5-0.088,0.599-0.442,1-0.618c1.399,0.795,4.5,0.62,6.5,0.089
				C255.55,9.032,254.549,8.943,254.25,8.235L254.25,8.235L254.25,8.235z M206.449,8.137c-1.801,0.708-4-0.266-5.301,1.061
				c0.5,0.266,1.7,0,1.2,0.973c0.8,0.09,1,0.532,1.9,0.179c0.198,0.088,0.399,0.267,0.398,0.619c-1,0.619-2.7,0.354-4.6,0.44
				c0.899,0.178,0.7,0.531,0.5,1.15c0.799-0.177,1.399-0.441,1.899-0.796c1.899,0.797,4.301,0,6,0.355c-0.5-0.795-2.5-0.62-3.4-1.15
				c-0.1-0.531,0.8-0.354,0.501-0.974c-0.3,0-0.7,0-1,0C205.549,9.552,205.649,8.58,206.449,8.137L206.449,8.137z M63.75,7.845
				c-1,0.354-1.4,0-1.2-0.797c-2.3,0.353-2.799-0.797-4.3,0.087c0.398,1.416-0.9,1.682-1.5,2.3c1.199,0.442,3.6-0.177,5.299,0.268
				c0.2-0.531,0.601-0.797,1.5-0.796C63.35,8.373,63.75,8.286,63.75,7.845L63.75,7.845z M155.05,8.304
				c0.1-0.267,0.399-0.441,0.7-0.53c-0.602-0.354-2.102-0.088-1.9-0.885c-0.4,0.442-0.2,0.531-1.2,0.354
				c1.5,0.795-1.399,1.592,0.2,1.68c-0.201,0.266-1.401,0-2,0.089c-0.3-0.177-0.299-0.621-0.699-0.796
				c0.2-0.354,0.899-0.354,1.2-0.531c0-0.266-0.7-0.177-0.5-0.619c-1.099-0.088-2-0.088-2.6,0.265c-0.5-0.089-0.602-0.354-0.5-0.708
				c-0.2,0-0.602,0-0.901,0c0,0.266-0.1,0.354-0.3,0.354c1,0.795-0.2,1.414,0.899,1.857c-0.399,0.087-0.5,0.53-1,0.619
				c0.199,0.354,0.899,0.354,1.199,0.53c-0.6,1.504-1.898,0.529-3.399,0.795c1.3,1.504,3.6,0.354,5.6,0.09
				c0.299,0.089,0.4,0.354,0.5,0.619c0.5-0.265,1.5-0.265,0.9,0.354c0.3-0.178,0.699-0.266,1.199-0.178
				c0.102,0.355-0.198,0.354-0.5,0.354c0.2,0.178,0.601,0.178,0.5,0.531c1.5,0,1.602-0.973,2.5-1.416
				c-0.799-0.441-1.5-0.795-2.398-0.708c0.1-0.885,2.5-0.087,2-1.415c-0.302,0-0.602,0-0.9,0c0-0.089,0-0.267,0-0.354
				c0.601-0.354,1.8,0.267,2.101,0.709c0.399-0.089,0.699-0.177,0.699-0.619C155.649,8.923,155.449,8.57,155.05,8.304L155.05,8.304
				L155.05,8.304z M234.25,12.124c0.3-0.177,1-0.177,1-0.618c0.399,0.266,1,0.354,1.199,0.708c0.699,0.088,0.5-0.531,1.399-0.354
				c0.101-0.442,0.101-0.619,0.5-1.15c-1.399,0.441-2.1-0.619-3.3-0.179c-0.9-0.53-0.2-0.884-0.5-1.68
				c-0.901,0.176-0.7,1.148-1,1.77c-1-0.443-2.2,0.175-2.001,1.148c1.201,0,1,0.089,2,0.001c0.299-0.178,0.1-0.796,0.701-0.796
				C235.25,11.15,234.049,11.504,234.25,12.124L234.25,12.124L234.25,12.124z M1080.251,5.393c-0.001-0.354,0-0.797,0-1.15
				c-0.301,0-0.5,0-0.7,0C1079.449,4.862,1079.949,5.128,1080.251,5.393z M1036.45,5.384c-0.601-1.062-2.199,0-3.399-0.001
				c-0.2-0.354-2.301-0.619-2.102,0.177C1032.751,5.826,1034.95,5.296,1036.45,5.384z M988.851,6.348
				c-1.1-0.973-3.101-0.707-2.9,0.797C986.949,6.526,988.25,7.146,988.851,6.348z M1234.551,4.452c-0.401-0.266-0.8-0.442-1.7-0.354
				c-0.1,0.62,0.101,1.063,0.699,1.149C1233.95,4.982,1234.351,4.805,1234.551,4.452L1234.551,4.452z M1109.95,6.726
				c0.398-1.68-3.7-0.974-1.901,0.178C1108.851,6.903,1109.45,6.814,1109.95,6.726z M1284.65,3.842
				c-0.299,0.53-0.799,0.53-1.501,0.354C1282.95,5.346,1285.45,4.197,1284.65,3.842z M1188.05,5.857c0.2,0,0.5,0,0.7,0
				c0.1-0.441,0-0.707-0.699-0.619C1188.05,5.415,1188.051,5.681,1188.05,5.857z M1187.051,6.033c-0.001,0.088,0,0.266-0.001,0.354
				c-0.2,0-0.6,0-0.9,0c-0.101,0.441,0.4,0.266,0,0.619c0.7-0.088,1.901,0.178,1.9-0.354
				C1186.951,6.741,1188.351,5.946,1187.051,6.033z M1268.95,5.343c-0.398-0.531-0.999,0.176-1.7,0c0.001,0.176,0,0.354,0.001,0.619
				C1268.25,6.05,1268.75,5.785,1268.95,5.343z M1336.15,7.391c0.199-1.061-0.198-1.857-1.699-1.77
				c-0.101,0.265-0.302,0.354-0.399,0.619C1334.851,6.507,1335.45,7.036,1336.15,7.391L1336.15,7.391z M1230.25,7.546
				c0.001-0.089,0-0.266,0-0.354c-0.5-0.354-0.499,0.087-1.2,0C1228.95,7.9,1229.649,7.634,1230.25,7.546z M1459.051,4.85
				c-2.1,0.354-3.7,0.354-5.6-0.267c0.1,0.531-0.103,1.062,0.299,1.326c2.001,0.355,2.701-0.973,3.801,0.001
				C1457.55,5.291,1458.75,5.469,1459.051,4.85L1459.051,4.85z M1228.05,8.431c0.5-0.354,0.2-1.063-0.5-1.15
				c-0.1,0.266-0.9,0.088-0.7,0.62C1227.051,8.252,1227.549,8.342,1228.05,8.431L1228.05,8.431z M1309.05,6.677
				c-0.3-0.088-0.5-0.266-0.999-0.177c-0.101,0.264-0.3,0.442-0.501,0.708C1308.25,7.209,1308.75,7.031,1309.05,6.677L1309.05,6.677
				z M1191.45,8.07c-0.5-0.089-1-0.354-1.4,0c-0.1,0.529,0.5,0.529,1.2,0.53C1191.251,8.335,1191.35,8.246,1191.45,8.07z
				 M1315.95,7.299c0.1-0.443-0.102-0.619-0.499-0.707c-0.103,0.265-0.303,0.354-0.201,0.707
				C1315.45,7.299,1315.75,7.299,1315.95,7.299z M1312.05,6.854c-0.8-0.089-0.4,0.796-1.599,0.53c0,0.443-0.604,0.532-0.501,0.975
				C1311.15,8.095,1311.75,7.563,1312.05,6.854L1312.05,6.854z M1320.35,6.768c-1.7,0.266-3.399,0.53-4.601,1.062
				c0.502,0.354,0.801,0.707,0.501,1.149c0.699,0,0.5-0.53,1.2-0.53c-0.102,0.441,0.1,0.708,0.698,0.62
				C1317.75,7.564,1319.649,7.564,1320.35,6.768L1320.35,6.768L1320.35,6.768z M1404.15,5.989c-1.3,0.176-3.6-0.71-3.6,0.528
				c1.2-0.707,2.599,0.179,3.099,0.178C1402.751,6.431,1404.051,6.165,1404.15,5.989L1404.15,5.989L1404.15,5.989z M1388.85,6.693
				c0-0.178,0.001-0.266,0-0.354c-0.2,0-0.199-0.179-0.398-0.178c0,0.266-0.7,0.089-0.802,0.354
				C1388.05,6.693,1388.349,6.693,1388.85,6.693z M1326.55,8.626c0.099-0.707-1.1-0.53-1.2-1.149c0.499,0,0.901-0.089,0.9-0.354
				c-1.799-0.62-3,0.53-2.102,1.681C1325.149,8.891,1325.55,8.538,1326.55,8.626L1326.55,8.626z M1348.55,9.162
				c-1.801,0.178-3.301-0.089-3.899-1.063c0.699,0.354,1.399,0.266,1.899-0.177c-0.6-0.266-0.499-0.885-1-1.15
				c-1.2,0.354-1.701,0.266-2.9,0c0.201,0.443,0.301,0.531-0.199,0.796c0.399,0.355,1.4,0.089,1.899,0.001
				c-1.201,0.619,0.102,0.973-0.501,1.857c1.001,0.087,0.5,0.707,0.2,1.149c0.7-0.089,0.8,0.266,1.2,0.354
				c-0.2-0.354-0.601-0.886,0.201-0.973c0.697,0.619,1.397,0.265,2.6,0.619C1348.75,9.871,1347.449,9.781,1348.55,9.162
				L1348.55,9.162z M1374.45,6.867c-0.302-0.089-0.399-0.265-0.9-0.177c0,0.265-0.3,0.354-0.299,0.619
				C1374.05,7.398,1374.25,7.133,1374.45,6.867z M1384.351,6.78c-0.7-0.266-1.601,0-2.398,0.178c0.197,0.708,0.799,1.327-0.201,1.68
				c-0.4-0.265-1.2,0-1.9-0.176c0,0.529,0.8,0.53,1.2,0.795c-0.6,0.178-0.4,0.885-1.501,0.796c-0.1,0.531,0.9,0.177,0.301,0.619
				c1.3,0.088,1.199-0.973,3.1-0.53c0.4-0.62-1.198-0.001-1.199-0.442c0.899-0.088,1.101-0.53,1.898-0.707
				C1382.85,8.019,1383.55,7.4,1384.351,6.78L1384.351,6.78z M1367.648,8.989c-0.196-0.884-2.099-0.796-1.499-1.769
				c-0.398-0.354-0.898,0.175-1.5-0.179c-0.1,0.531-0.898,0.619-0.898,1.149c0.1,0.088,0.3,0.178,0.199,0.354
				C1365.648,8.28,1366.148,9.696,1367.648,8.989L1367.648,8.989z M1490.351,5.917c-0.801,0-1.5,0.09-1.898,0.354
				C1488.951,6.448,1490.55,6.979,1490.351,5.917z M1363.449,9.52c-0.601-0.886-3.699-0.268-4.302,0.353
				c-0.5-1.327-2.299-1.682-3.998-2.124c0.399,0.884-0.501,0.708-1.101,0.53c-0.101,0.354-0.4,0.443-0.7,0.708
				c0.799,0.09,1.4-0.088,1.9-0.176c0.8,0.885,3.897,1.327,5.6,1.593c0.4-0.088-0.1-0.796,0.699-0.619
				c0.901-0.177,0.2,0.708,1.001,0.619C1362.35,9.873,1363.55,10.05,1363.449,9.52L1363.449,9.52z M1398.35,8.819
				c0.199-0.266,0.102-0.884-0.3-1.327c-0.7,0.177-1.7,0.088-1.701,0.708c0.801,0.088,0.701-0.266,1.502-0.177
				C1398.149,8.553,1397.55,8.819,1398.35,8.819L1398.35,8.819z M1311.95,10.747c-0.9-1.592,3-1.237,3.1,0
				c0.699-0.176,1.2-0.44,1.4-0.972c-0.303,0-0.603,0-0.7-0.177c0.001-0.265,0.3-0.354,0.299-0.619
				c-1.199,0.177-3.7,0.264-5.499,0.353c-1.101,0.088-2.199-0.443-2.2,0.707c1.101,0.089,1.101-0.531,1.9-0.531
				C1310.75,9.952,1310.649,10.836,1311.95,10.747L1311.95,10.747z M1342.05,8.63c-0.8-0.088-0.501,0.531-1.401,0.353
				c-0.299,1.063,1.401,0.975,0,1.505c0.701-0.177,0.9,0.177,1.401,0.265c0.1-0.53,0.8-0.707,1-1.149
				C1342.249,9.603,1341.75,9.603,1342.05,8.63z M1320.648,10.13c1.103,0,1.9-0.176,2.401-0.53c-1.201,0.354-1.201-0.089-2.2-0.265
				C1321.049,9.776,1320.448,9.776,1320.648,10.13L1320.648,10.13z M1373.148,8.901c-0.698,0.178-0.5,0-1.398-0.001
				c0.001,0.267-0.299,0.354-0.301,0.619c0.7-0.266,1.399-0.175,1.9-0.354C1373.149,9.079,1373.05,8.99,1373.148,8.901z
				 M1396.249,9.35c-0.601-0.178-1.6-0.531-1.899,0c0.899-0.09,0.3,0.973,1.2,0.973C1395.948,10.145,1395.75,9.526,1396.249,9.35z
				 M1384.249,10.319c-0.301,1.061,1.8,0.708,1.398-0.177C1384.949,10.054,1384.949,10.407,1384.249,10.319z M1364.949,11.466
				c-0.4,0.354-0.7,0.707-1.001,1.148c1.302,0.09,1.699-0.619,2.4,0c-0.1-0.708,1.099-0.62,0.999-1.326
				C1366.35,11.289,1366.049,11.643,1364.949,11.466z M1354.648,11.905c1-0.176,1.103,0,1.9,0.179
				C1356.85,11.464,1354.449,11.374,1354.648,11.905z M1264.448,14.276c-0.302,0.885-2.698,0.087-2.899,0.706
				c0.699-0.087,1.199-0.087,1,0.443c1.3,0.266,0.899-0.708,2.099-0.53c0.103-0.707-0.1-1.238-0.499-1.592
				c-1.5,0.265-3.397-0.09-4.399,1.148c1.4-0.089,1.899-0.089,2.899-0.53C1262.849,14.276,1264.148,13.834,1264.448,14.276
				L1264.448,14.276L1264.448,14.276z M1695.948,12.947c-1.101-0.53-2.199,0.354-3.599,0.177
				C1693.049,14.008,1695.649,13.654,1695.948,12.947z M1401.249,12.888c-0.301,0-0.7,0-0.602,0.354
				C1401.148,13.33,1401.248,13.153,1401.249,12.888z M1401.249,12.888C1401.349,12.888,1401.349,12.888,1401.249,12.888
				L1401.249,12.888C1401.349,12.888,1401.349,12.888,1401.249,12.888z M1322.549,12.341c1-0.088,1.6-0.618,2.1-0.529
				c-0.199,0-0.199-0.266-0.397-0.354C1324.049,11.987,1322.349,11.458,1322.549,12.341L1322.549,12.341z M1297.35,11.629
				c-0.101-0.088-0.3-0.088-0.6-0.088C1296.849,11.717,1297.148,11.717,1297.35,11.629z M1297.75,11.629c-0.102,0-0.2,0-0.301,0
				c0.1,0.089,0.1,0.178,0.1,0.266C1297.549,11.806,1297.648,11.717,1297.75,11.629z M1301.349,13.134
				c-0.2-0.885-0.1-1.15,0.7-1.504c-0.199-0.088-0.2-0.266-0.199-0.53c-1.5,0.089-2.001,0.265-3.101-0.265
				c0.3,0.707-0.602,0.619-1,0.884c0.699,0.088,1.398,0.265,2.2,0.177C1300.35,12.337,1300.948,12.603,1301.349,13.134
				L1301.349,13.134L1301.349,13.134z M1308.949,7.917c-0.601,0.177-1.3,0.266-2.199,0.177c-0.102-0.709-1.301-0.443-0.7-1.329
				c-1.9-0.53-1.7,0.796-3.602,0.708c0.2-0.708-0.498-0.883-1.198-0.974c-0.7,0.09-0.9,0.531-1.9,0.354
				c0.001,0.53,0,0.885-0.2,0.974c-0.599-0.089-1.699,0.176-1.898-0.178c0.198-0.088,0.5-0.088,0.399-0.354
				c-1.601,0-2.801-0.088-3.601-0.532c-1.2,1.947-5.3,1.769-7.701,1.855c-0.199,0.619-1.299,0.708-2.099,0.884
				c2,0.444,5.099,0.709,6.499-0.086c0.399,0.088,0.501,0.531,1.001,0.619c0.897-0.618,2.8-0.706,3.599-0.53
				c-0.299-0.795-1.398,0-1.699-0.62c0.601-0.087,0.301-0.707,0.9-0.707c2.399,0.62,3.899,0.62,6.5,0.089
				c2.499,2.921,2.5-1.414,6.999,0.445C1308.051,8.181,1309.05,8.358,1308.949,7.917L1308.949,7.917L1308.949,7.917z
				 M1336.149,11.105c0-0.265,0.101-0.53,0.399-0.619c0.9,0.354,1.101-0.089,1.9-0.176c-0.399-0.885,0.699-0.708,1.198-0.973
				c-1.299-1.328-3.499-0.355-5.299-1.065c0.8,0.532,0.899,1.505,1.8,1.947c-0.3,0-0.699,0-1,0c-0.3,0.62,0.602,0.443,0.499,0.974
				c-0.898,0.53-2.897,0.265-3.397,1.149c1.698-0.354,4,0.442,6-0.353c0.499,0.354,1.1,0.709,1.897,0.797
				c-0.1-0.62-0.398-0.974,0.5-1.15C1338.75,11.549,1337.049,11.725,1336.149,11.105L1336.149,11.105L1336.149,11.105z
				 M1306.55,11.188c0.6,0,0.398,0.619,0.699,0.796c1,0.178,0.8,0,2,0c0.3-0.973-0.999-1.592-2-1.148
				c-0.301-0.62-0.101-1.594-0.999-1.771c-0.301,0.796,0.3,1.238-0.5,1.68c-1.2-0.442-1.901,0.619-3.302,0.177
				c0.399,0.531,0.301,0.707,0.5,1.15c0.801-0.179,0.601,0.44,1.4,0.354c0.198-0.354,0.8-0.442,1.199-0.707
				c-0.1,0.441,0.6,0.354,0.9,0.619C1306.648,11.719,1305.449,11.364,1306.55,11.188L1306.55,11.188L1306.55,11.188z M1517.45,5.48
				c0-0.354,0-0.797,0-1.149c-0.301,0-0.5,0-0.699,0C1516.55,4.95,1517.051,5.216,1517.45,5.48z M1473.551,5.472
				c-0.602-1.062-2.201,0-3.401,0c-0.198-0.354-2.299-0.619-2.099,0.177C1469.85,5.914,1472.05,5.384,1473.551,5.472z
				 M1671.651,4.54c-0.4-0.266-0.801-0.443-1.701-0.354c-0.1,0.619,0.101,1.063,0.7,1.148
				C1671.051,5.07,1671.45,4.893,1671.651,4.54L1671.651,4.54z M1721.751,3.93c-0.301,0.53-0.801,0.53-1.5,0.354
				C1720.051,5.433,1722.552,4.284,1721.751,3.93z M1625.15,5.944c0.199,0,0.5,0,0.699,0c0.101-0.441,0-0.707-0.698-0.62
				C1625.15,5.502,1625.15,5.769,1625.15,5.944z M1624.15,6.122c-0.001,0.087,0,0.266,0,0.354c-0.2,0-0.601,0-0.9,0
				c-0.1,0.441,0.4,0.266,0,0.619c0.7-0.087,1.9,0.179,1.9-0.354C1624.05,6.829,1625.55,6.033,1624.15,6.122z M1706.051,5.431
				c-0.401-0.531-1.001,0.176-1.7,0c-0.001,0.176,0,0.354-0.001,0.619C1705.351,6.137,1705.85,5.873,1706.051,5.431z M1773.25,7.479
				c0.2-1.061-0.2-1.857-1.699-1.77c-0.101,0.265-0.3,0.354-0.4,0.619C1771.95,6.594,1772.55,7.124,1773.25,7.479L1773.25,7.479z
				 M1667.35,7.634c0-0.089,0-0.266,0.001-0.354c-0.501-0.354-0.501,0.088-1.2,0C1666.05,7.988,1666.751,7.722,1667.35,7.634z
				 M1896.151,4.938c-2.102,0.354-3.701,0.354-5.601-0.267c0.099,0.531-0.101,1.062,0.3,1.326c2,0.354,2.7-0.972,3.799,0.001
				C1894.75,5.379,1895.851,5.557,1896.151,4.938z M1665.149,8.519c0.5-0.355,0.2-1.063-0.5-1.151c-0.1,0.266-0.9,0.088-0.699,0.62
				C1664.149,8.34,1664.649,8.43,1665.149,8.519L1665.149,8.519z M1746.151,6.765c-0.302-0.088-0.501-0.266-1.002-0.178
				c-0.1,0.266-0.299,0.443-0.5,0.709C1745.449,7.297,1745.85,7.119,1746.151,6.765L1746.151,6.765z M1628.55,8.157
				c-0.5-0.088-1-0.354-1.4,0c-0.101,0.529,0.5,0.53,1.199,0.53C1628.35,8.422,1628.45,8.333,1628.55,8.157L1628.55,8.157z
				 M1753.051,7.387c0.099-0.354-0.001-0.62-0.501-0.708c-0.1,0.265-0.3,0.354-0.201,0.708
				C1752.551,7.386,1752.85,7.386,1753.051,7.387z M1749.149,6.942c-0.799-0.09-0.398,0.796-1.6,0.53c0,0.443-0.601,0.531-0.5,0.974
				C1748.249,8.182,1748.851,7.65,1749.149,6.942L1749.149,6.942z M1757.45,6.855c-1.7,0.265-3.399,0.53-4.601,1.062
				c0.499,0.354,0.801,0.708,0.5,1.149c0.7,0,0.499-0.53,1.2-0.529c-0.1,0.44,0.1,0.707,0.7,0.619
				C1754.95,7.651,1756.75,7.651,1757.45,6.855L1757.45,6.855L1757.45,6.855z M1841.251,6.077c-1.301,0.175-3.6-0.71-3.6,0.528
				c1.198-0.707,2.599,0.178,3.099,0.178C1839.95,6.519,1841.151,6.253,1841.251,6.077L1841.251,6.077z M1826.05,6.781
				c0-0.178,0-0.267,0.001-0.354c-0.2,0-0.201-0.178-0.4-0.178c-0.001,0.266-0.7,0.088-0.801,0.354
				C1825.149,6.781,1825.449,6.781,1826.05,6.781z M1396.148,11.295c-1.6-0.267-2.898,0.707-3.398-0.797
				c0.301-0.177,1.001-0.266,1.2-0.53c-0.501-0.089-0.601-0.443-1-0.619c0.999-0.443-0.199-1.063,0.898-1.858
				c-0.199-0.089-0.398-0.177-0.299-0.354c-0.3,0-0.6,0-0.9,0c0,0.443-0.1,0.709-0.5,0.709c-0.5-0.267-1.5-0.354-2.599-0.267
				c0.2,0.442-0.501,0.267-0.501,0.62c0.3,0.266,1.001,0.267,1.2,0.531c-0.4,0.176-0.401,0.619-0.7,0.795
				c-0.6-0.088-1.801,0.266-2-0.088c1.599-0.087-1.3-0.974,0.199-1.681c-0.999,0.089-0.799,0.089-1.199-0.354
				c0.2,0.884-1.3,0.618-1.9,0.884c0.301,0.089,0.602,0.267,0.7,0.531c-0.399,0.177-0.6,0.441-1.399,0.354
				c-0.101,0.354,0.301,0.442,0.699,0.62c0.2-0.441,1.4-1.062,2.102-0.707c0,0.088-0.001,0.267,0,0.354c-0.2,0-0.602,0-0.9,0
				c-0.5,1.237,1.9,0.531,1.999,1.415c-0.898-0.089-1.599,0.266-2.399,0.708c0.9,0.354,1,1.415,2.5,1.416
				c-0.101-0.355,0.301-0.355,0.5-0.531c-0.302-0.088-0.602-0.089-0.5-0.354c0.501,0,0.899,0.088,1.2,0.177
				c-0.601-0.619,0.399-0.62,0.9-0.354c0.099-0.266,0.199-0.53,0.499-0.618c0.601,0,1.301,0.177,1.899,0.354
				c0.001,0.089,0.001,0.089,0.001,0.089c0.898,0.089,1.1,0.708,2.198,0.62c0.301-0.354,0.103-0.53-0.1-0.708
				C1395.149,11.561,1395.849,11.648,1396.148,11.295L1396.148,11.295z M1763.75,8.714c0.1-0.707-1.1-0.531-1.2-1.149
				c0.5,0,0.9-0.089,0.9-0.354c-1.801-0.619-3,0.531-2.101,1.682C1762.249,8.979,1762.65,8.626,1763.75,8.714L1763.75,8.714z
				 M1785.649,9.25c-1.8,0.178-3.3-0.089-3.9-1.063c0.701,0.354,1.4,0.266,1.9-0.176c-0.6-0.267-0.499-0.886-0.999-1.15
				c-1.201,0.354-1.7,0.266-2.899,0c0.199,0.443,0.299,0.531-0.2,0.796c0.398,0.355,1.399,0.089,1.899,0
				c-1.2,0.619,0.1,0.974-0.501,1.858c1,0.088,0.5,0.707,0.2,1.15c0.699-0.089,0.801,0.265,1.199,0.354
				c-0.199-0.354-0.6-0.885,0.2-0.973c0.701,0.62,1.4,0.266,2.601,0.62C1785.85,9.958,1784.55,9.869,1785.649,9.25L1785.649,9.25z
				 M1811.55,6.955c-0.299-0.089-0.399-0.264-0.9-0.177c0.001,0.266-0.299,0.354-0.3,0.619
				C1811.15,7.486,1811.351,7.221,1811.55,6.955z M1821.55,6.868c-0.699-0.265-1.601,0-2.399,0.178
				c0.199,0.707,0.799,1.325-0.2,1.68c-0.4-0.265-1.2,0-1.9-0.176c0,0.53,0.8,0.53,1.199,0.795c-0.6,0.178-0.4,0.885-1.499,0.796
				c-0.101,0.532,0.899,0.178,0.299,0.62c1.301,0.088,1.2-0.973,3.101-0.53c0.4-0.619-1.201,0-1.201-0.441
				c0.9-0.088,1.101-0.531,1.901-0.708C1819.95,8.106,1820.651,7.488,1821.55,6.868z M1804.75,9.076
				c-0.2-0.884-2.101-0.796-1.501-1.769c-0.399-0.355-0.899,0.176-1.499-0.179c-0.101,0.531-0.9,0.619-0.899,1.15
				c0.099,0.087,0.3,0.177,0.199,0.354C1802.75,8.368,1803.25,9.785,1804.75,9.076L1804.75,9.076z M1800.55,9.607
				c-0.601-0.886-3.7-0.267-4.3,0.353c-0.5-1.328-2.302-1.682-3.999-2.124c0.398,0.884-0.501,0.708-1.102,0.529
				c-0.1,0.354-0.398,0.443-0.701,0.708c0.802,0.09,1.401-0.088,1.9-0.176c0.801,0.885,3.901,1.327,5.601,1.593
				c0.399-0.088-0.101-0.796,0.7-0.62c0.9-0.176,0.199,0.709,1,0.62C1799.55,9.959,1800.649,10.138,1800.55,9.607z M1835.55,8.907
				c0.2-0.267,0.101-0.885-0.299-1.328c-0.701,0.177-1.702,0.088-1.701,0.708c0.8,0.088,0.7-0.265,1.499-0.177
				C1835.25,8.641,1834.65,8.907,1835.55,8.907L1835.55,8.907z M1749.049,10.834c-0.899-1.592,3.001-1.237,3.101,0
				c0.699-0.175,1.199-0.44,1.399-0.972c-0.299,0-0.6,0-0.7-0.177c0-0.265,0.302-0.354,0.302-0.62
				c-1.201,0.177-3.701,0.264-5.5,0.354c-1.101,0.088-2.2-0.444-2.201,0.706c1.101,0.089,1.101-0.53,1.9-0.53
				C1747.85,10.039,1747.75,10.923,1749.049,10.834L1749.049,10.834z M1779.149,8.718c-0.8-0.089-0.5,0.531-1.399,0.353
				c-0.3,1.062,1.399,0.975,0,1.504c0.699-0.177,0.899,0.177,1.399,0.265c0.101-0.53,0.8-0.707,1-1.148
				C1779.449,9.69,1778.949,9.69,1779.149,8.718L1779.149,8.718z M1757.749,10.217c1.1,0,1.9-0.176,2.4-0.53
				c-1.2,0.354-1.2-0.089-2.199-0.265C1758.149,9.864,1757.649,9.864,1757.749,10.217L1757.749,10.217z M1810.249,8.988
				c-0.699,0.178-0.499,0-1.399,0c0,0.266-0.301,0.354-0.3,0.619c0.699-0.266,1.4-0.176,1.899-0.354
				C1810.251,9.167,1810.149,9.078,1810.249,8.988z M1874.55,9.002c0.5,0.088,0.699,0.619,1.7,0.443c0-0.443,0.7-0.709,1.1-0.354
				c0-0.089,0-0.265,0-0.441c0-0.088,0-0.177-0.199-0.177C1876.749,8.737,1874.75,8.295,1874.55,9.002z M1833.35,9.438
				c-0.6-0.179-1.601-0.531-1.9,0c0.899-0.09,0.3,0.973,1.2,0.973C1833.05,10.232,1832.949,9.613,1833.35,9.438z M1821.349,10.407
				c-0.3,1.061,1.801,0.708,1.401-0.177C1822.049,10.142,1822.05,10.495,1821.349,10.407z M1802.05,11.554
				c-0.4,0.354-0.7,0.708-1.001,1.148c1.2,0.09,1.7-0.619,2.399,0c-0.1-0.708,1.101-0.619,1-1.326
				C1803.448,11.376,1803.149,11.73,1802.05,11.554z M1791.749,11.993c1.001-0.176,1.1,0,1.9,0.178
				C1794.05,11.553,1791.55,11.461,1791.749,11.993z M1701.548,14.364c-0.3,0.886-2.699,0.087-2.898,0.707
				c0.699-0.088,1.199-0.088,0.998,0.443c1.301,0.265,0.9-0.709,2.102-0.53c0.1-0.707-0.101-1.238-0.499-1.592
				c-1.501,0.265-3.401-0.089-4.401,1.148c1.4-0.089,1.9-0.089,2.9-0.529C1699.949,14.363,1701.249,13.922,1701.548,14.364
				L1701.548,14.364L1701.548,14.364z M1838.448,12.975L1838.448,12.975L1838.448,12.975L1838.448,12.975z M1838.349,12.975
				c-0.301,0-0.7,0-0.6,0.354C1838.348,13.418,1838.349,13.241,1838.349,12.975z M1759.649,12.43c1-0.088,1.6-0.619,2.101-0.53
				c-0.2,0-0.201-0.266-0.401-0.354C1761.149,12.075,1759.549,11.545,1759.649,12.43L1759.649,12.43z M1738.449,13.221
				c-0.199-0.885-0.101-1.15,0.7-1.503c-0.2-0.088-0.201-0.267-0.201-0.531c-1.499,0.089-2,0.265-3.1-0.266
				c0.301,0.708-0.6,0.62-1,0.885c0.701,0.089,1.4,0.265,2.201,0.177C1737.448,12.425,1738.148,12.689,1738.449,13.221
				L1738.449,13.221L1738.449,13.221z M1734.849,11.717c-0.1,0-0.199,0-0.299,0c0.099,0.089,0.1,0.178,0.099,0.266
				C1734.649,11.894,1734.749,11.804,1734.849,11.717z M1734.55,11.717c-0.101-0.088-0.301-0.088-0.601-0.088
				C1733.948,11.805,1734.249,11.805,1734.55,11.717z M1920.05,13.966v-0.442c-0.2,0.177-0.601,0.177-0.602,0.442
				C1919.549,14.054,1919.849,13.966,1920.05,13.966z M1746.05,8.092c-0.6,0.177-1.3,0.265-2.201,0.177
				c-0.099-0.708-1.299-0.442-0.699-1.328c-1.898-0.53-1.699,0.796-3.599,0.707c0.2-0.708-0.501-0.885-1.201-0.973
				c-0.699,0.087-0.898,0.529-1.899,0.354c-0.001,0.53,0,0.885-0.2,0.973c-0.6-0.088-1.7,0.176-1.901-0.177
				c0.201-0.089,0.502-0.088,0.401-0.354c-1.6,0-2.8-0.088-3.601-0.62c-1.2,1.947-5.301,1.769-7.699,1.855
				c-0.2,0.619-1.301,0.709-2.101,0.885c2,0.443,5.1,0.708,6.5-0.087c0.401,0.088,0.501,0.531,0.999,0.619
				c0.901-0.618,2.802-0.706,3.601-0.53c-0.3-0.795-1.399,0-1.699-0.62c0.599-0.088,0.3-0.707,0.9-0.707
				c2.399,0.619,3.9,0.62,6.499,0.089c2.5,2.921,2.5-1.415,7,0.444C1745.15,8.268,1746.149,8.446,1746.05,8.092L1746.05,8.092z
				 M1773.249,11.193c0.001-0.266,0.101-0.53,0.4-0.619c0.899,0.354,1.1-0.089,1.9-0.177c-0.4-0.885,0.7-0.708,1.2-0.973
				c-1.301-1.328-3.501-0.354-5.3-1.064c0.799,0.531,0.898,1.504,1.799,1.947c-0.3,0-0.699,0-1,0c-0.299,0.62,0.6,0.442,0.5,0.974
				c-0.9,0.53-2.9,0.266-3.4,1.149c1.7-0.354,4,0.443,6-0.353c0.5,0.354,1.1,0.709,1.9,0.797c-0.1-0.62-0.4-0.974,0.501-1.15
				C1775.849,11.637,1774.149,11.813,1773.249,11.193L1773.249,11.193L1773.249,11.193z M1920.05,9.896V8.392
				c-0.201-0.266-0.7-0.354-0.5-0.796c-1.5-0.974-2,0.177-4.4-0.177c0.3,0.885-0.2,1.15-1.101,0.884
				c0.001,0.354,0.4,0.441,0.201,0.973c0.899,0,1.3,0.266,1.5,0.797C1917.149,9.718,1918.75,9.983,1920.05,9.896L1920.05,9.896z
				 M1833.448,11.294c-1.6-0.266-2.899,0.707-3.398-0.797c0.299-0.177,1-0.266,1.2-0.531c-0.501-0.087-0.601-0.441-1-0.619
				c0.999-0.441-0.2-1.061,0.9-1.857c-0.2-0.087-0.401-0.176-0.301-0.354c-0.3,0-0.6,0-0.9,0c0,0.442-0.1,0.708-0.499,0.708
				c-0.501-0.267-1.501-0.354-2.6-0.267c0.2,0.442-0.5,0.266-0.501,0.62c0.301,0.266,1,0.266,1.201,0.53
				c-0.4,0.178-0.401,0.619-0.701,0.797c-0.6-0.089-1.801,0.265-2-0.089c1.601-0.09-1.3-0.974,0.2-1.682
				c-1,0.088-0.8,0.089-1.2-0.354c0.2,0.885-1.3,0.619-1.9,0.884c0.302,0.088,0.601,0.267,0.7,0.532
				c-0.399,0.176-0.6,0.441-1.399,0.353c-0.101,0.354,0.3,0.441,0.699,0.619c0.2-0.442,1.4-1.062,2.101-0.707
				c-0.001,0.089-0.001,0.265,0,0.354c-0.2,0-0.601,0-0.9,0c-0.5,1.238,1.9,0.53,2,1.414c-0.9-0.088-1.6,0.266-2.4,0.708
				c0.899,0.354,1,1.415,2.501,1.415c-0.102-0.354,0.299-0.354,0.499-0.53c-0.301-0.088-0.6-0.089-0.499-0.354
				c0.5,0,0.899,0.09,1.199,0.178c-0.601-0.619,0.399-0.619,0.899-0.354c0.101-0.267,0.2-0.531,0.501-0.619
				C1829.849,11.559,1832.049,12.798,1833.448,11.294L1833.448,11.294L1833.448,11.294z M1743.149,12.071
				c-0.9,0.09-1.601,0.09-1.9,0.531c0.5,0.089,0.2,0.619,0.7,0.708c0.3-0.442,1.2-0.53,1.2-1.149
				c0.199,0.088,0.299,0.088,0.399,0.176c0.2-0.619-1-0.973,0.001-1.149c0.6,0,0.398,0.62,0.699,0.796c1,0.178,0.799,0,2,0
				c0.3-0.972-1-1.592-1.999-1.15c-0.3-0.619-0.101-1.592-1-1.77c-0.301,0.796,0.3,1.238-0.5,1.681
				c-1.2-0.442-1.901,0.619-3.3,0.177c0.398,0.53,0.299,0.708,0.498,1.148c0.801-0.176,0.602,0.443,1.4,0.354
				c0.2-0.354,0.801-0.441,1.201-0.708C1742.549,12.071,1742.849,12.162,1743.149,12.071L1743.149,12.071L1743.149,12.071z
				 M0.049,12.519l-0.001,5.13l1920,0.385v-3.539c-2,0.089-4.1-0.62-5.898,0.088c-0.201-0.178-0.302-0.442-0.2-0.796
				c1.7,0,3.5,0.267,3.5-1.504c-0.3,0-0.8,0.088-0.899-0.178c0.199-0.794,2-0.794,3.499-0.44v-0.885
				c-1.399,0.087-2.6,0.176-4.1-0.088c-0.9,0.707-2.7,1.679-4.3,1.147c0.299-0.619,1.899-0.354,1.899-1.148
				c-2.399,0.618-5.999-0.533-9.399,0.085c0.6,0-0.9,1.238-0.9,1.238c-0.801,0.178-2.4,0.265-2.4-0.973
				c0.9,0,1.801-0.089,2.401-0.354c-3,0.087-7.3-0.798-10.301,0.085c-0.2,0-0.4,0-0.601-0.088c-0.3-0.354-1.1-0.354-1.599-0.619
				c3.3-0.442,8.899,0.002,11.999-0.087c0.301-0.53,0.901-0.795,1.6-1.148c0.201,0.619-0.6,0.441-0.499,0.972
				c1.301,0.531,1.999-0.088,3.9,0.267c0.5-0.089,0.001-0.708,0.5-0.796c0.699,0.179,1.599,1.062,2.399,0.62
				c-0.601,0,0-0.707,0.2-0.796c0.9,0.09,1.2-0.177,1.7-0.353c0,0.531,0.501,0.708,0.3,1.327c0.4,0,0.8,0.001,1.2,0
				c-0.301-0.797-1-1.239-1.5-1.947c0.199-0.176,0.799-0.176,1.4-0.176c-0.301-1.063-1.9,0-2.601-0.354
				c-0.698-0.974-2.899-0.884-4.399-0.443c-4.699-0.974-10.199-0.089-13.699-0.356c0.199,0.441,1.098,0.441,0.998,1.15
				c-0.699,0.354-1.4,0-1.999-0.178c-0.4,0.441-0.2,1.237-1.101,1.326c-0.1-0.619-1.801-0.266-2.399-0.619
				c-0.1-0.354,0.001-0.53,0.399-0.619c0.9,0.619,2.2,0.001,3.399-0.176c0.301-0.354-0.199-0.619,0.502-0.972
				c-3.701-0.621-7.2-0.002-11.301-0.534c-0.3-0.531,0.101-0.619,0.401-0.796c-0.601,0.177-1.301-0.531-1.701,0
				c0.701,0,0.801,0.266,0.801,0.708c-1.001,0.885-2.001,0.62-3.601,0.354c-0.2,0.619-1.3,0.706-1.4,1.326
				c0.699,0.089,0.301-0.619,0.899-0.531c0.901,0.621,2.3,0.975,3.602,0.267c-0.001,0.797,2,0.089,1.898,0.974
				c-1.3,0.089-3.1-0.177-2.899,0.883c0.8,0.179,1.399-0.175,2.199,0.266c0,0.267,0.101,0.62-0.2,0.62
				c-1.8-0.266-3.2,0.088-4.6,0.53c-1.801-0.797-6.1,0.176-7.2-1.063c1.101-0.266,3.001-0.088,4.101-0.354c0-0.265,0-0.53,0-0.795
				c-0.3-0.443-0.801,0.176-0.899-0.179c0.3-0.441,1.699-0.265,1.601-0.972c-0.701,0.087-0.501-0.354-0.802-0.62
				c-4.599,0.086-10.698,0.086-14.6,0.528c0.301,0.708,0.2,1.238,1,1.149c-0.499,0.708-1.4,1.681-0.2,2.122
				c-2.2,0.09-3,0.531-5.301,0.265c0.4-0.707,1.5-0.884,2.401-1.149c-0.5-0.708,0.399-0.795,0-1.148
				c-0.101,0.53-1.601,0.265-2.101,0.529c-0.301-0.088-0.1-0.618-0.499-0.618c-0.001,0.53-0.7,0.442-1,0.708
				c-0.101-0.09-0.5-0.886,0-0.975c1.699,0.708,2.199-0.619,3.8-0.177c-0.7-1.68-4.101,0.177-6.3-0.442
				c-0.399,0.265,0.199,0.885-0.001,1.503c-0.399-0.089-1.199,0.177-1.199-0.177c0.6-0.708,0.399-1.416-0.301-2.123
				c0.601,0,0.801-0.266,1.001-0.532c-1.399,0.178-1.7,0-2.899-0.177c-0.801,3.537-8.701,0.618-11.102,1.413
				c1.2,0.089-0.199,0.266-0.399,0.354c-0.199,0.442,0.599,0.265,0.1,0.62c-0.3,0-0.6,0-0.7,0.176
				c0.4,0.088,0.901,0.088,0.699,0.619c-1.099,0.088-1.199,0.442-2.399,0.177c0.2,0.795-0.7,0.885-0.4,1.769
				c0.7,0.089,1.001,0.53,1.7,0.62c0.5-0.266,0.1-0.619,0.001-0.974c1.199,0.178,0.399-0.707,1.2-0.707
				c-0.2,1.15,1.599-0.177,1.898,0.442c0.4,0.974-1.499,0.443-1.9,0.973c0.6,0-0.3,0.267,0.001,0.62
				c0.601,0.266,1.3-0.089,1.7,0.441c-0.001-0.088,0.2-0.177,0.5-0.266c0.899,0.089,0.899,0.089,1.601-0.175
				c-0.201,0.265-0.801,0.441-0.001,0.619c0.801-0.178,1.6-0.354,2.4-0.531c0-0.354-0.2-0.708-0.7-0.797
				c0.101,0.354,0,0.619-0.399,0.62c-2.001,0.089-0.9-0.974-1-1.593c1.399,0.178,2.899-0.706,3.6,0.09
				c-0.499,0.265,1.699,2.3-1.201,2.299c1.7,1.592-1.8,1.592-3.6,2.035c-0.001-0.797-0.8-1.416-1.699-1.15
				c-0.201-0.531-0.5-0.973-1.2-1.151c-0.3,0.267-0.901,0.442-0.9,0.974c1.1-0.177,1.601,1.416,0.299,1.328
				c-0.198-0.62-0.699-0.885-0.999-1.328c-4.3-0.089-8.6-0.975-12.1,0.086c0.4-0.529-0.699-0.089-0.7-0.442
				c0.6-0.266,1.001-0.62,1-1.326c-0.399-0.089-1,0.441-1.2,0c-0.4-0.531,1.101,0,0.7-0.619c-0.099-0.089-0.3-0.179-0.199-0.354
				c-1.501,0.177-2.801,0.265-4.1-0.09c0.198,0.974-1.501,0.708-1.901,1.328c-0.499-0.354-0.799-1.15-1.899-0.621
				c1.3-0.708-0.9-1.149-0.3-1.68c0.601,0,1.6,0.442,1.9-0.177c-0.899,0.088-1.5-0.089-1.701-0.442
				c-0.099-0.532,1.001-0.266,0.9-0.796c-0.4-0.442-1.199,0.354-2.1,0.177c0.001-0.177,0.001-0.354,0-0.619
				c-0.9-0.266-1.399,0.176-2.2,0.353c0.7,0.267,0.9,1.064,0.6,1.592c-0.1,0-0.199-0.088-0.299-0.265
				c-1.601-0.089-2.101,0.619-3.801,0.354c0.101,0.619-0.601,1.149-1.9,0.794c0.2,0.885,2.2,0.178,1.501,0.974
				c0.898-0.529,1.399,0,1.899,0.62c-3.4,1.062-8.2,0.44-12.501-0.002c0.101-0.088,0.301,0,0.301-0.177
				c-0.5,0.088-0.799,0.177-1.2,0.088c-0.8-0.088-1.8-0.266-2.5-0.267c0.3,0.443,0.2,0.797-0.501,0.974
				c0.001-0.883-1.398-0.796-2.2-1.149c-0.198,0.354-0.399,0.707-1.198,0.707c0-1.325,0.5-1.503,0.699-2.919
				c-1.098-0.441-1.799-0.619-3.1-0.266c-0.6-0.266,0.401-0.531-0.499-0.531c-0.301,0.088-0.7,0-0.7,0.176
				c0.6,0.09-0.4,0.266-0.301,0.53c1.1,0.531,2.5,0.443,3.4,0.798c-0.5,0.796-2.3,1.326-3.6,1.06c-0.102,3.54-6.002,0.53-8.4,2.21
				c-1.701-0.796-7.101-0.531-9.801-0.267c-0.1-0.266-0.5-0.353-0.5-0.796c0.7-0.177,1.401-0.354,2.101-0.531
				c0.2-1.061-1.8-0.619-1.5-1.769c1.601,0.089,2.6-0.177,4.1-0.176c-1.499-1.063-2.599-2.389-4.199-3.362
				c0.301,0.708,0,0.885,0.301,1.504c-0.001,0.266-2.001,0.087-1.2,0.354c0.699,0.088,1.9-0.176,2.199,0.178
				c0.001,0.177,0,0.354,0,0.62c-1.1,0.44-2.199,0.264-3.1-0.179c-0.5,0.441-0.801,0.885-0.7,1.681
				c-1.501,0.354-2.6,0.796-2.9,1.857c-0.101,0.53,0.899,0.176,0.7,0.708c-0.801,0.266-1.802,0.442-2.601-0.178
				c0.2-0.177,0.201-0.354,0.2-0.53c0.1,0,0.1,0.087,0.4,0c-0.201-0.531,0.399-0.442,0.5-0.797c-0.5,0.178-1,0.178-1.201,0.354
				c-0.199-0.177-0.398-0.441,0.101-0.796c-1.399,0.089-2.7-0.265-3.898-0.619c0.599-0.089,1.398-0.089,1.399-0.53
				c-0.3-0.885-2-0.62-2.9-0.973c-0.4,0.884-1,1.768-1.6,2.476c-0.3-0.885-1.5-0.089-1.9-0.178c0.6,0,0.399,0.708,0.5,1.15
				c0.5,0,0.799,0.088,0.898,0.354c0.801,1.151-1.799,1.327-2.1,0.708c0.201-0.53,0.001-0.708,0.701-1.149
				c-2,0.354-2.802,1.502-3.801,2.477c-0.701-0.267-0.6-1.151-1.701-1.151c-0.299,0.532-0.199,1.15-0.999,1.326
				c-1.399,0.266-4.1,0.619-3.899-1.415c0.6,0,1-0.089,1-0.354c-1.301-0.177-1.301,0.442-2.199,0.53
				c-0.102,0.266,0.299,0.266,0.498,0.443c-1.1,1.148-2.1,2.477-5,2.476c-0.3-0.797-1.3-1.238-2.199-1.15
				c1.5-1.061-2.301-1.151-1.501-1.945c-1.999,0.175-5.399,0.086-6.299-1.417c0.1-0.266,0.3-0.441,0.499-0.531
				c1.301-0.175,1.501,0.354,1.901,0.797c0.898-0.441,2.8,0.001,3.999-0.441c0,0.266-0.299,0.355-0.299,0.62
				c0.499-0.089,0.3,0.442,0.999,0.266c0.101-0.177,0.3-0.354,0.501-0.62c-0.501-0.088-0.5-0.441-1.101-0.354
				c0.5-0.177,0.8-0.53,0.899-1.149c-0.998-0.266-1.699-0.442-2.6,0c-0.199-0.708-0.6-0.266-1.699-0.442
				c-0.701,0.088-0.601,0.796-1.399,0.796c-3.2-1.15-6.401-1.417-10.101-1.505c0-0.443-0.2-0.973-0.5-1.593
				c0.2-0.354,0.4-0.619,1.2-0.53c0.3,0.973,0.8,1.769,2,2.123c0.3-0.531,1.199-0.619,1.899-0.884
				c-0.399-0.089-0.899-0.354-0.499-0.62c0.8-0.266,0.199,0.441,1,0.266c-0.6-0.884,0.8-0.53,0.2-1.415
				c0.499-0.088,1.801-0.531,1.899,0c0.101,0.442-1.1,0-0.7,0.531c0.301,0.175,1.9,0.354,2.2,0c-0.9,0.088-0.8-0.619-0.999-0.974
				c0.6,0.089,0.799,0.265,1.199-0.177c-0.301-0.088-0.699-0.177-0.699-0.619c0.7-0.266,1.699-0.441,2.101-0.973
				c-0.801-0.531-1.401,0.441-2.101,0.529c-0.2,0-0.801-0.354-1-0.354c-0.5,0.089-0.7,0.531-0.9,0.531c-0.3,0-0.899-0.532-1.2-0.531
				c-1.999-0.001-4.499,1.681-6.301,0.441c0.001,0.176,0.001,0.354,0.001,0.619c-0.799,0-1.3,0.354-1.699-0.178
				c-0.4,0.266-0.201,0.885-0.201,1.326c-0.9-0.264-0.5,0.178-1.2,0.354c-0.199-0.443,0.3-0.443,0.2-0.797
				c-0.899,0-1,0.442-0.7,0.974c-2.501,0.53-1.601,2.3-3.601,3.272c-1,0.266-1.199-0.267-1.899-0.267
				c0.3,0.708-0.501,1.149-0.001,1.504c-1,0.708-2.799,0.885-3.3,1.857c0.399,0.089,1-0.441,1.2,0c-0.4,0.443-0.5,0.972-1,1.327
				c-0.4-0.089-0.301-0.619-1.201-0.442c-0.5,1.15-5.3,0.796-5.5-0.089c-0.101,0-0.399,0-0.499,0.088
				c-0.701-0.267-1.5-0.354-2.501-0.089c-0.199,0.441,0.201,0.441,0.4,0.53c-0.101,0.088-0.2,0.089-0.3,0.089
				c-0.601,0-1.2,0-1.101-0.443c-0.5,0-1.1,0-1.398-0.176c0,0.265,0.099,0.53-0.201,0.53c0-0.089,0-0.265,0-0.442
				c-0.5-0.088-0.699,0.087-1,0.088c-0.1-0.177,0-0.265-0.199-0.354c-1.001,0-1.5,0.266-2.1,0.531
				c-0.101,0.441,0.698,0.796-0.201,0.972c-1-0.266-0.199-0.795-0.7-1.326c-0.8,0.354-2.1,0.44-1.999-0.619
				c0.7-0.178,1.1,0.53,1-0.178c-0.901-0.089-1.501-0.089-2.4,0.177c0.301,0.441,0.3,0.973-0.199,1.326
				c-0.9,0.178-0.9-0.266-1.701-0.266c-0.1,0.797-1.399,0.884-2,1.416c-0.2,0-0.2,0.088-0.4,0.088c-0.4-0.266-0.3-0.885-0.2-1.504
				c0.102-0.088,0-0.266,0.301-0.354c0.301,0.266,0.601,0.442,0.899,0.619c0.9-0.706,1.701-1.15,3.102-1.149
				c-0.4-0.795,0.6-0.707,0.6-1.325c0.1-0.088,0.199-0.088,0.398-0.089c-0.099,0.088-0.098,0.176-0.199,0.265
				c0.399,0,0.4-0.176,0.699-0.265c0.201,1.15,1.801,0.796,3.103,0.885c-0.201-0.53,0.898-0.177,0.698-0.796
				c-1.1-0.266-2.199-0.266-3.4-0.267c0.602-0.266,1.4-0.44,1.802-0.884c0.2,0.266,0.8,0.266,1.199,0.354
				c0.001-0.707-0.4-0.883,0.501-1.148c1.099,0.354,2.399-0.529,4.299-0.176c0,0.354,0.301,0.619,0.199,1.15
				c1.602,0.001,1.901-0.884,3.301-0.972c0.5,1.147,1.701-0.178,2.901,0c0.698,0.089,0.6,0.707,1.198,0.974
				c0.201-0.619,0.9-0.973,2.101-0.973c-0.7-1.416,2.3-0.796,1.4-1.858c0.7-0.088,1.2-0.264,1.601-0.529
				c-0.699-1.504,1.6-1.15,1.602-2.301c-3.101-0.088-4.602,1.503-7.502,0.088c0.401-0.53-0.3-0.974-0.3-1.327
				c-0.499,0.619-1.699,0.177-2.399,0c0.1,0.885-1.301,0.708-1.9,0.354c0.201,0.797-1.1-0.088-1,0.354
				c0.299,0,0.501,0.177,0.5,0.442c-2.1,0.531-0.899,2.654,0.999,2.654c0.501-0.266,0.601-0.619,1.501-0.531
				c1.399,0.885,3.199,1.505,4.8,0.62c0.5,2.123-3.8,1.414-5.3,0.53c-2.301,1.326-5.201,0.706-7.002,0.883
				c0.502-0.884,1.902-1.062,2.402-1.857c-1.4-0.265-1.9-0.354-2.9-0.266c0.201-0.974,2.7-0.443,3.6-0.973
				c-0.699-0.089-0.999-0.53-1.699-0.619c-0.101,0.708-1-0.442-2.4,0.354c0.9,1.946-3,1.327-5.5,1.326c0.1-0.354,0-0.619-0.2-0.796
				c1.8,0,2.7-0.53,2.9-1.503c-1.699-0.885-3.499-0.266-5.8-0.443c-0.3,0.177-0.001,0.707-0.4,0.707
				c-1.7-0.44-2.899,0.266-4.299,0.178c-0.502-0.354,0.199-0.531-0.2-0.797c-1.899-0.267-3.201,0.265-4.601,0.707
				c-0.102,0.53,0.398,0.53-0.001,0.796c-0.699-0.178-1.499-0.177-2.199-0.267c0.699,0.62-0.6,1.682,0.8,1.77
				c0-0.354-0.5-0.441-0.301-0.973c1.901-0.619,2.801,0.089,4.3,0.089c-0.6,0.708-0.199,0.885,0.5,1.417
				c-0.6,0.266-1.1,0.707-2.1,0.706c-0.6-0.265-1.199-0.53-2.399-0.442c0.101,0.974-1.7-0.177-1.7,0.796
				c-0.6-0.089-1.7,0.177-1.899-0.177c-0.101-0.619,1-0.354,1-0.974c-0.5-0.531-1.4-0.796-2.7-0.797c-0.2,0.354,1,0.441,0.3,0.62
				c-0.3,0-0.3,0.176-0.5,0.176c-1.201-0.265-0.4-1.062-1.701-1.415c1.002-0.619,1.502-0.885,0.701-1.682
				c-0.799,0.089-1.3,0.265-2.101-0.001c-0.799,0.531-1.299,1.15-2.399,1.503c0.7,1.771-2.9,2.478-3.3,0.884
				c-1.3,0.354-2.2-0.088-2.699-0.796c0.599-0.089,0.899-0.265,1.699-0.177c0.1-0.885-1.9-0.354-2.199-0.974
				c-0.001-0.266,0.3-0.354,0.2-0.708c0.599,0,1.198,0,1.199-0.354c-2.601,0.885-6.3-0.001-5.6-2.211
				c-1.8,0.265-4.1,0.971-5.5,0.706c-0.3,0.443-0.801,0.797-1.6,0.974c-0.7,0-0.4-0.619-1-0.619c-0.7,1.062-2.6,1.238-4.1,1.679
				c-0.7-0.707-0.001-1.504,0.199-2.123c-1.7,0.442-1.9,0.178-3.4-0.089c-0.101,0.267,0.3,0.266,0.5,0.441
				c-1.8,0.178-1.7,2.565-4.001,1.856c0.001,0.531,0.5,0.885,1.401,0.797c1.1-1.062,3.1,0.355,3.699,1.151
				c-0.5,0.266-1.3,0.441-2.4,0.353c0.6-0.531-0.799-0.796-1.699-0.797c1.1,0.619,0.699,1.329,1.999,1.947
				c-3.1,1.238-3.699-1.594-6.3-0.268c-1.1-0.885-3-0.266-3.399-1.77c-0.5,0-1,0-1.399,0c-0.401-0.797-1.301-1.15-2.7-1.239
				c-0.6-0.973,0.001-1.416-0.5-2.301c-0.9,0.266-0.399-0.088-1.2-0.176c-0.399,1.68-0.8,2.917-1.4,4.245
				c-3.901,0.175-10,1.413-12.8-0.71c1.001-1.326,5.3-0.619,7.501-0.706c-0.201-1.238,1.897-1.061,2.8-1.149
				c-0.599-1.592-4.301-0.708-5.8-1.946c-0.4,0.177,0,0.973-0.7,0.973c-1-0.441-1.8,0.178-2.601,0.354
				c0-0.441-0.802-0.355-1.4-0.442c-0.899,0.619-2.999,0.529-3.401,1.504c0.104-0.531-0.599,0.087-1.196-0.267
				c-0.803,0.796-0.102,1.681-1.701,1.945c-0.499-0.176-1.2-0.265-1.2-0.795c-1.499,0.44-1.9-0.444-2.699-0.975
				c3.199-1.062-1.7-2.389-3.201-1.239c0.501,1.063,0,1.504-1.398,1.681c0.001-0.354,0-0.619,0-0.973
				c-0.9,0.088-1.899-0.885-2.399-0.001c0.499,0.267,0.699,0.62,1.9,0.441c-0.001,0.797,0.7,1.151,0.799,1.771
				c-0.6-0.088-0.401,0.353-0.9,0.353c-0.3-0.353-0.397-0.796-1.199-0.795c-0.899,0.177-0.801,1.062-1.899,1.149
				c-1.7-0.62-2.5-0.089-3.199-1.593c0.699-0.441,0.499-1.415-0.3-1.945c1.6-0.178,0.7-0.353,0.4-0.708c1,0.177,1.6,0,1.5-0.885
				c-0.201,0-0.4,0-0.7,0c0.3,0.619-0.7,0.53-0.8,0.885c-0.102-0.089-0.4-0.177-0.102-0.354c-1.001,0.088-0.999-0.441-1.899-0.354
				c0.001,0.797,0.199,0.797-0.499,1.149c-3.499-0.885-5.7-0.179-8.701-0.267c0.601-0.885-0.602-1.15,0.502-1.681
				c-0.801-0.089-1.202,0.089-1.701,0.176c-0.2,0.797,0.6,0.798,0.5,1.504c-0.901-0.088-0.9-0.797-1.9-0.797
				c-0.801,0.443,0,1.239-1.501,0.708c0.303,0.708,1.901,0.708,1.5,1.592c-1.397-0.885-3.299-1.857-6.299-2.036
				c-0.301,0.443-0.6,0.797-1.2,0.974c-1.3-0.266-3-1.15-4.601-0.442c-0.399-0.177-0.499-0.62-0.999-0.798
				c-1.5,0-1.301,0.354-3.001,0.354c0.2,1.238-0.599,1.769-0.4,2.919c1.803,0.088,0.302,1.416,0.802,1.504
				c-1.103-0.177,0-0.973-1-0.973c-0.303-0.354-1,0.441-1.4,0.529c-0.399-0.265-0.9-0.53-1.699-0.619
				c-0.302,0.531-2.399,0.974-2.601,0.177c0.301-0.177,0.899-0.177,0.898-0.53c-0.397-0.089-0.697-0.354-1-0.62
				c0.7-0.088,0.9,0.266,1.602,0.178c0,0.088,0.1,0.266,0.398,0.442c0.802,0.089,1.4-0.089,1.9-0.177
				c0.3-1.328-1.999-1.15-2.3-0.532c-0.2-0.354-1.5-0.177-1.603,0c-0.998-0.707-1.599-1.504-3.099-1.771
				c-0.799,0.089-0.399,0.532-0.7,0.619c-2.099-1.062-2.3,0.974-4.2,1.238c-0.199,0-0.3,0-0.398,0
				c0.3-0.088,0.701-0.088,0.398-0.529c-1.299-0.885-2.698,0.707-3.799-0.09c-0.3,0.089-0.399,0.265-0.6,0.353
				c-1.8,0-3.7,0.089-5.8,0.088c-0.303-0.089-0.603-0.178-0.803-0.267c-0.3,0.354-0.8,0.267-1.198,0.354
				c-1.602,0.088-3.4,0.088-4.499,0.354c-3.803-0.176-7.5-0.001-11.401,0.086c-0.1-0.264-0.4-0.53-0.299-0.973
				c-1.3-0.088-1.603-0.177-2.901-0.001c0,0.709-1.099,0.708-1.701,0.973c-1.697-0.619-3.396-0.796-4.799,0.088c-0.5,0-1.2,0-1.8,0
				c-0.299-0.178-0.7-0.354-0.8-0.708c-1.101,0.088-1.301,0.618-1.7,1.062c-2.7-0.267-5.699-0.089-8.499-0.444
				c-1.4-0.089-2.2-0.442-3.801-0.53c-0.601-0.354-1-0.886-1.2-1.593c-1.199,0.885-2.599,1.592-4,2.388c-0.5,0.09-1,0.265-1.3,0.089
				c-0.5-0.709-1.8-0.444-3-0.354c-0.899-0.09-1.9-0.266-2.399-0.797c-1.5,0.441-3.399,0.266-5.001,0.266
				c-2.897-0.001-5.7,0.175-7.7-0.002c0.201,0.354,0.803,0.531,0.9,0.973c-0.3,0-0.6,0.088-0.9,0.088c-0.3-0.088-0.6,0-0.898-0.088
				l-0.102,0.088c-0.1-0.089-0.197-0.176-0.198-0.266c0.198,0,0.399,0,0.601,0c0.299-0.354-0.202-0.619,0.499-0.974
				c-3.7-0.62-7.2-0.001-11.3-0.532c-0.299-0.53,0.1-0.619,0.399-0.796c-0.601,0.177-1.301-0.53-1.698,0
				c0.698,0.001,0.8,0.267,0.8,0.708c-0.701,0.619-1.602,0.353-2.501,0.265V5.734c-1.4-0.178-2.9-0.089-3.799,0.53
				c-0.201,0.53,0.599,0.266,0.698,0.619c-0.3,0.265-0.199,0.708-0.899,0.708c-0.101-0.354,0-0.443,0-0.619
				c0.001-0.089,0.101-0.089,0.101-0.089c-0.1,0-0.001-0.089-0.101-0.089c0-0.088-0.102-0.088,0.001-0.266c-0.201,0-0.201,0-0.4,0
				c0-0.089-0.1-0.088-0.201-0.176c-4.3-0.001-9.898,0.085-13.8,0.438c1-0.529,2.301,0.001,2.8-0.794
				c-1.099-0.974-3.1-0.709-2.898,0.794c-0.199,0.089-0.601,0.088-0.799,0.089c0.198,0.442,0.397,0.619,0.697,0.796
				c-1.198-0.088-2.3-0.177-3.698,0.177c-0.501-0.089-1-0.267-1.7-0.266c0.8-0.089,1.5-0.53,2.7-0.178
				c-0.601-1.414-3.2-0.354-5.303-0.442c0.002-0.089,0.103-0.266,0.104-0.442c-1.103,0.265-1.801,0-2.603-0.177l0.001-0.089
				c0.601,0,0.802-0.265,1-0.53c-1.399,0.176-1.698,0-2.898-0.178c-0.801,3.539-8.602,0.617-11.103,1.414
				c1.2,0.088-0.198,0.266-0.397,0.354c-0.201,0.442,0.699,0.267,0.499,0.797c-0.301,0-0.602,0-0.7,0.175
				c0.3,0.09,0.602,0.179,0.601,0.531c0,0,0,0,0,0.088c-0.899,0.178-1.102,0.443-2.2,0.178c0.2,0.796-0.699,0.885-0.4,1.769
				c0.6,0.089,0.9,0.53,1.601,0.621l0,0l0,0l0,0l0,0c0.5,0,0.899,0.088,1.2,0.265c-0.001,0.089-0.101,0.089,0,0.177
				c0.601,0.266,1.299-0.088,1.699,0.442c0-0.089,0.2-0.089,0.301-0.177c0.399-0.354,1.1-0.354,1.601-0.266c0.1,0,0.1,0,0.199,0
				c-0.7,0.53-1.399,0.53-1.2,1.327c-0.898-0.177-0.899,0.264-1.101,0.53c-0.2,0-0.2-0.177-0.3-0.178c-0.2-0.354-0.5-0.53-0.9-0.795
				c-0.1-0.354-0.398-0.531-0.699-0.974c-3.101-0.089-5.899,0.972-9.101,0.794c-1.899-0.177-2.399,0.265-2.8,0.883
				c-0.5,0-1.1-0.088-1.501,0.088c0.402-0.529-0.699-0.089-0.7-0.442c0.602-0.266,1.001-0.619,1.002-1.326
				c-0.4-0.089-1.001,0.441-1.201,0c-0.398-0.531,1.102,0,0.7-0.618c-0.099-0.089-0.3-0.179-0.2-0.354
				c-1.499,0.176-2.8,0.265-4.099-0.091c0.199,0.974-1.501,0.709-1.901,1.328c-0.5-0.354-0.799-1.15-1.898-0.619
				c1.301-0.708-0.899-1.149-0.3-1.682c0.601,0,1.601,0.442,1.899-0.177c-0.9,0.088-1.5-0.089-1.7-0.442
				c-0.1-0.531,1-0.266,0.901-0.795c-0.4-0.442-1.201,0.354-2.102,0.176c0.001-0.177,0.001-0.354,0.001-0.619
				c-0.9-0.267-1.4,0.176-2.201,0.353c0.7,0.267,0.9,1.064,0.601,1.594c-0.1,0-0.201-0.089-0.3-0.266
				c-1.6-0.089-2.101,0.619-3.8,0.353c0.099,0.619-0.601,1.149-1.901,0.795c0.2,0.885,2.201,0.178,1.5,0.975
				c0.899-0.53,1.4,0,1.9,0.619c-4.4,1.237-11.2-0.18-15.9-0.357c0.3,0.443,0.199,0.797-0.5,0.974
				c-0.001-0.884-1.399-0.797-2.199-1.15c-0.2,0.354-0.399,0.708-1.2,0.707c0.001-1.325,0.5-1.503,0.7-2.918
				c-1.1-0.442-1.801-0.62-3.1-0.266c-0.6-0.266,0.4-0.531-0.5-0.531c-0.299,0.088-0.7,0-0.701,0.177
				c0.602,0.089-0.398,0.265-0.299,0.531c1.1,0.531,2.5,0.443,3.399,0.797c-0.5,0.796-2.301,1.326-3.602,1.061
				c-0.1,3.539-5.999,0.53-8.398,2.211c-1.701-0.797-7.102-0.532-9.801-0.268c-0.101-0.265-0.5-0.353-0.5-0.796
				c0.699-0.177,1.399-0.354,2.102-0.53c0.199-1.061-1.8-0.62-1.501-1.77c1.601,0.089,2.601-0.177,4.101-0.177
				c-1.501-1.063-2.6-2.389-4.201-3.362c0.302,0.708,0.001,0.885,0.303,1.504c-0.001,0.266-2.001,0.088-1.199,0.354
				c0.697,0.089,1.897-0.176,2.198,0.179c0,0.176-0.001,0.354-0.001,0.619c-1.101,0.44-2.198,0.265-3.1-0.179
				c-0.5,0.441-0.8,0.885-0.7,1.682c-1.5,0.354-2.601,0.795-2.899,1.856c-0.103,0.53,0.898,0.176,0.699,0.708
				c-0.802,0.266-1.801,0.441-2.602-0.178c0.801-0.795-1.098-0.974,0.001-1.769c-1.398,0.088-2.7-0.266-3.898-0.619
				c0.6-0.09,1.398-0.091,1.399-0.532c-0.3-0.884-2-0.619-2.898-0.973c-0.401,0.884-1.002,1.769-1.603,2.477
				c-0.3-0.885-1.5-0.089-1.898-0.178c0.601,0,0.398,0.708,0.499,1.149c0.5,0,0.801,0.088,0.9,0.354
				c0.799,1.15-1.802,1.327-2.101,0.708c0.2-0.53,0.001-0.708,0.701-1.149c-2.001,0.354-2.802,1.503-3.802,2.477
				c-0.699-0.267-0.602-1.151-1.699-1.151c-0.302,0.531-0.201,1.15-1,1.327c-1.401,0.265-4.103,0.618-3.899-1.416
				c0.6,0,0.999-0.089,0.999-0.354c-1.3-0.178-1.301,0.441-2.2,0.529c-0.101,0.266,0.3,0.266,0.5,0.443
				c-1.101,1.149-2.101,2.477-5.001,2.476c-0.3-0.796-1.299-1.238-2.199-1.15c1.5-1.06-2.3-1.15-1.5-1.945
				c-2.001,0.175-5.399,0.087-6.3-1.417c0.101-0.265,0.299-0.441,0.501-0.531c1.299-0.176,1.499,0.354,1.899,0.797
				c1.2-0.619,4.699,0.532,5.001-1.68c-1-0.265-1.7-0.442-2.602,0c-0.198-0.708-0.6-0.265-1.699-0.442
				c-0.699,0.088-0.602,0.797-1.4,0.797c-3.2-1.151-6.399-1.417-10.099-1.506c-0.001-0.443-0.199-0.974-0.501-1.593
				c0.2-0.354,0.399-0.619,1.2-0.53c0.301,0.973,0.801,1.769,1.999,2.124c0.301-0.531,1.2-0.618,1.9-0.884
				c-0.399-0.09-0.9-0.354-0.5-0.619c0.8-0.266,0.2,0.441,1,0.266c-0.6-0.885,0.8-0.531,0.2-1.416c0.501-0.088,1.8-0.531,1.898,0
				c0.102,0.442-1.1,0-0.697,0.53c0.299,0.177,1.897,0.354,2.198,0.001c-0.9,0.088-0.801-0.619-1.001-0.975
				c0.602,0.089,0.801,0.266,1.2-0.177c-0.299-0.088-0.7-0.177-0.7-0.619c0.7-0.265,1.7-0.441,2.103-0.972
				c-0.801-0.531-1.4,0.441-2.103,0.529c-0.198,0-0.799-0.354-0.999-0.354c-0.501,0.09-0.699,0.531-0.899,0.531
				c-0.3,0-0.899-0.532-1.2-0.531c-2-0.001-4.5,1.681-6.299,0.441c0,0.176-0.001,0.354,0,0.62c-0.8,0-1.3,0.354-1.701-0.179
				c-0.399,0.266-0.2,0.885-0.2,1.328c-0.898-0.266-0.5,0.176-1.198,0.354c-0.199-0.442,0.301-0.443,0.198-0.797
				c-0.898,0-0.999,0.443-0.699,0.974c-2.5,0.53-1.601,2.301-3.601,3.272c-1,0.266-1.201-0.266-1.9-0.266
				c0.301,0.708-0.5,1.15,0,1.503c-1,0.708-2.801,0.885-3.301,1.856c0.4,0.089,1-0.441,1.199,0c-0.399,0.444-0.499,0.975-1,1.328
				c-0.399-0.09-0.299-0.62-1.2-0.443c-0.6,1.149-5.398,0.795-5.599-0.089c-1.602,0.707-4.001,0.884-6,1.325
				c-0.8-0.441,0-0.973-0.8-1.503c-1.001,0-1.501,0.266-2.102,0.53c-0.101,0.441,0.699,0.797-0.201,0.973
				c-1-0.267-0.198-0.796-0.698-1.326c-0.801,0.354-2.102,0.44-1.999-0.62c0.698-0.178,1.1,0.53,1-0.178
				c-0.9-0.089-1.5-0.088-2.4,0.177c0.3,0.441,0.3,0.974-0.2,1.326c-0.899,0.178-0.899-0.266-1.7-0.266
				c-0.199,0.974-2,0.797-2.398,1.682c-0.601-0.266-0.8-1.771-0.301-2.302c0.1,0.443,0.801,0.532,1.2,0.797
				c0.899-0.708,1.699-1.15,3.1-1.149c-0.399-0.973,0.9-0.707,0.701-1.504c-1.2,0.089-2.399,0.088-2.7-0.441
				c0.7-1.063,2.399-1.592,4-1.237c-0.6,0.53-0.7,1.325-1.2,1.944c1.699,0,2.3-0.707,2.901-1.326c0.198,0.266,0.8,0.266,1.198,0.354
				c0-0.708-0.399-0.884,0.501-1.149c1.1,0.354,2.398-0.53,4.3-0.176c0,0.354,0.301,0.619,0.199,1.149
				c1.601,0,1.899-0.885,3.302-0.972c0.499,1.149,1.699-0.177,2.898,0c0.699,0.088,0.602,0.708,1.2,0.973
				c0.199-0.619,0.9-0.973,2.1-0.973c-0.698-1.415,2.302-0.796,1.4-1.856c0.701-0.088,1.199-0.266,1.601-0.531
				c-0.698-1.504,1.601-1.148,1.601-2.298c-3.1-0.089-4.601,1.502-7.5,0.086c0.4-0.531-0.299-0.973-0.3-1.326
				c-0.499,0.619-1.699,0.176-2.4-0.001c0.101,0.885-1.299,0.707-1.9,0.354c0.2,0.796-1.1-0.09-1,0.354
				c0.301,0,0.501,0.177,0.5,0.442c-2.099,0.529-0.898,2.653,0.999,2.653c0.501-0.266,0.603-0.619,1.502-0.53
				c1.398,0.884,3.199,1.504,4.8,0.62c0.499,2.123-3.801,1.415-5.3,0.529c-2.302,1.326-5.2,0.707-7.001,0.883
				c0.5-0.885,1.9-1.062,2.399-1.856c-1.398-0.267-1.899-0.354-2.899-0.267c0.2-0.972,2.7-0.44,3.601-0.972
				c-0.698-0.088-0.998-0.532-1.699-0.62c-0.101,0.708-1-0.442-2.399,0.354c0.899,1.946-2.999,1.327-5.5,1.326
				c0.102-0.354,0-0.62-0.199-0.796c1.8,0,2.7-0.53,2.899-1.503c-1.699-0.885-3.501-0.267-5.801-0.443
				c-0.3,0.176,0,0.708-0.399,0.708c-1.7-0.443-2.899,0.265-4.3,0.175c-0.502-0.354,0.199-0.53-0.199-0.795
				c-1.9-0.266-3.2,0.265-4.601,0.706c-0.102,0.532,0.398,0.531,0,0.797c-0.602-0.178-1.4-0.178-2.602-0.091
				c0.698,0.62-0.602,1.682,0.8,1.771c0.001-0.354-0.499-0.441-0.3-0.973c1.899-0.619,2.801,0.089,4.302,0.089
				c-0.603,0.707-0.202,0.885,0.499,1.416c-0.602,0.266-1.102,0.707-2.102,0.706c-0.6-0.266-1.2-0.53-2.399-0.441
				c0.101,0.973-1.699-0.178-1.7,0.795c-0.601-0.088-1.7,0.177-1.898-0.177c-0.101-0.619,0.999-0.354,1-0.974
				c-0.5-0.53-1.4-0.796-2.7-0.796c-0.301,0.354,1,0.442,0.301,0.619c-0.301,0-0.302,0.177-0.501,0.177
				c-1.199-0.265-0.399-1.062-1.699-1.415c1.001-0.618,1.5-0.885,0.7-1.68c-0.801,0.088-1.3,0.264-2.101,0
				c-0.8,0.529-1.301,1.148-2.399,1.502c0.699,1.77-2.901,2.477-3.301,0.884c-1.3,0.354-2.199-0.088-2.699-0.795
				c0.599-0.09,0.899-0.266,1.7-0.178c0.1-0.885-1.9-0.354-2.2-0.974c0-0.266,0.3-0.354,0.199-0.708c0.602,0,1.201,0.001,1.2-0.354
				c-2.6,0.883-6.301-0.001-5.6-2.213c-1.8,0.266-4.101,0.972-5.5,0.707c-0.3,0.442-0.8,0.795-1.602,0.973
				c-0.699,0-0.398-0.619-0.999-0.619c-0.7,1.061-2.601,1.237-4.101,1.679c-0.701-0.707,0.001-1.504,0.2-2.123
				c-1.701,0.443-1.9,0.178-3.401-0.088c-0.099,0.266,0.302,0.266,0.5,0.441c-1.8,0.178-1.7,2.566-4,1.857
				c0,0.53,0.5,0.884,1.4,0.796c1.1-1.062,3.1,0.355,3.7,1.15c-0.499,0.266-1.3,0.441-2.401,0.354
				c0.603-0.53-0.799-0.797-1.699-0.797c1.102,0.619,0.7,1.328,2,1.947c-3.1,1.238-3.698-1.593-6.301-0.267
				c-1.1-0.885-2.999-0.267-3.398-1.77c-0.5,0-1,0-1.399,0c-0.398-0.796-1.299-1.15-2.7-1.239c-0.6-0.973,0.001-1.416-0.499-2.3
				c-0.9,0.264-0.4-0.089-1.199-0.178c-0.399,1.681-0.801,2.919-1.4,4.246c-3.9,0.175-10,1.414-12.802-0.71
				c1.002-1.327,5.302-0.619,7.502-0.707c-0.2-1.238,1.899-1.061,2.8-1.148c-0.6-1.594-4.3-0.709-5.8-1.948
				c-0.399,0.177,0,0.973-0.699,0.973c-1-0.441-1.801,0.178-2.601,0.354c0-0.441-0.801-0.354-1.399-0.441
				c-0.901,0.619-3.001,0.53-3.4,1.504c0.1-0.531-0.6,0.088-1.2-0.267c-0.8,0.796-0.101,1.682-1.7,1.945
				c-0.5-0.176-1.2-0.266-1.198-0.795c-1.5,0.441-1.9-0.443-2.701-0.975c3.2-1.061-1.7-2.389-3.2-1.238
				c0.501,1.062-0.001,1.503-1.398,1.68c-0.001-0.354-0.001-0.619,0-0.973c-0.899,0.088-1.899-0.885-2.399,0
				c0.5,0.266,0.799,0.618,1.898,0.44c0,0.797,0.7,1.15,0.801,1.771c-0.601-0.088-0.4,0.354-0.9,0.354
				c-0.299-0.354-0.399-0.795-1.199-0.796c-0.9,0.177-0.801,1.062-1.9,1.15c-1.698-0.621-2.5-0.09-3.199-1.594
				c0.699-0.441,0.501-1.415-0.301-1.945c1.602-0.178,0.701-0.354,0.399-0.708c1.001,0.177,1.602,0,1.501-0.885
				c-0.199,0-0.399,0-0.699,0c0.3,0.619-0.7,0.529-0.802,0.884c-0.099-0.089-0.398-0.178-0.099-0.354c-1,0.089-1-0.441-1.9-0.355
				c0,0.797,0.2,0.797-0.5,1.15c-3.5-0.886-5.7-0.179-8.699-0.268c0.601-0.885-0.601-1.15,0.5-1.681
				c-0.802-0.09-1.2,0.089-1.7,0.177c-0.2,0.796,0.601,0.797,0.5,1.503c-0.9-0.088-0.899-0.796-1.898-0.796
				c-0.801,0.442-0.002,1.238-1.501,0.708c0.301,0.707,1.898,0.707,1.5,1.592c-1.399-0.885-3.3-1.858-6.3-2.036
				c-0.302,0.443-0.601,0.797-1.2,0.974c-1.3-0.265-3-1.15-4.601-0.443c-0.4-0.177-0.501-0.619-1-0.796
				c-1.5,0-1.3,0.354-2.899,0.176c0.199,1.238-0.601,1.77-0.4,2.919c1.801,0.09,0.3,1.415,0.8,1.504c-1.1-0.177,0-0.974-1-0.975
				c-0.3-0.354-1,0.443-1.399,0.531c-0.399-0.266-0.9-0.531-1.699-0.62c-0.301,0.531-2.4,0.972-2.601,0.178
				c0.301-0.178,0.9-0.178,0.899-0.531c-1.799-0.442-2.101-2.036-4.1-2.39c-0.8,0.087-0.4,0.531-0.699,0.619
				c-2.4-1.15-2.102,1.856-4.802,1.503c-0.101-0.442,0.899-0.176,0.701-0.707c-1.301-0.885-2.701,0.707-3.801-0.089
				c-1.5,0.265-1.7,1.148-2.603,1.502c-0.798-0.795-3.299-0.708-4.598-1.239c-1.301,1.682-3.7,0.266-6.001,1.063
				c0,0.794-0.999,0.884-3.3,2.122c-1.001-0.797-2.7-1.238-4.899-1.239c0.299,0.44,0.199,0.619-0.501,0.795
				c-1.6,0-2.3-0.265-3.599-0.001c-0.302-0.529-0.603-1.061-0.5-1.945c-1.301-0.088-1.602-0.179-2.901,0
				c0,0.708-1.099,0.707-1.7,0.973c-1.999-0.708-3.8-1.062-5.3,0.176c-0.2-0.531-0.7-0.09-1.199,0c-0.4-0.178-0.9-0.354-1.001-0.798
				c-1.699,0.088-2.399,0.707-2.7,1.681c-2.699-1.327-6.698-1.328-11.398-1.505c-0.601-0.354-0.999-0.885-1.2-1.593
				c-1.5,0.973-3.199,1.856-4.801,2.83c-1.398-0.708-4.699,0-5.999-1.417c-3.001,0.972-5.801,0.705-9.899,0.617
				c-0.2,0.973-2.5,0.619-3.801,0.884c-0.4-0.177,0-0.974-0.699-0.974c-0.7,0.531-2.7,0.619-3.9,0.354
				c-0.1,0.442-0.499,0.707-0.698,1.15c0.499,0.354,0.897,0.266,0.499,0.795c-1.601-0.088-4.5,0.265-5.2,1.238
				c-0.9-0.089-2.3,0.265-2.4-0.354c0.7-0.53,1.601-1.061,2.801-1.326c0.2-0.885-1.4-0.619-1.199-1.592
				c-1.399,0-1.2-0.089-2.398-0.267c-0.001-0.354-0.103-0.619-0.302-0.797c-1.399-0.177-2.899-0.088-3.801,0.53
				c-0.199,0.531,0.602,0.266,0.701,0.619c-0.301,0.266-0.201,0.707-0.9,0.707c-0.199-0.441-0.199-0.53,0-0.973
				c-1.601-0.177-1.699-0.354-2.602,0c-0.199,0.973-0.898,1.77-0.398,2.301c-1.699,0.264-1.398-0.886-2.9-0.797
				c-0.8,0.53,0.5,0.796,0.5,1.416c-0.4,0.441-0.9,0.884-1.9,0.883c-0.299-0.088-0.6-0.265-0.698-0.53
				c0.398-0.618,1.3-0.884,1.398-1.681c-4.999-0.177-7.599-1.416-11.599-0.356c-1.2-0.441-3.602-0.089-4.301-0.796
				c-0.101-0.266,0.199-0.354,0.199-0.62c-1.399,0.265-2.397,0-3.599-0.266c-0.803,0.441,0.099,1.149,0.298,1.769
				c-0.2,0-0.6,0.089-0.898,0.089c-0.601-0.354-1-0.885-2.301-0.797c-0.301,0.619-1.398,0.708-2.398,0.796
				c-1-0.089-2.102-0.178-2.4-0.797c-1.3-0.088-1.7,0.441-2.3,0.796c-0.3,0-0.7-0.089-0.9-0.089c0.2-0.619,1.2-1.328,0.301-1.769
				c-1.2,0.265-2.101,0.529-3.601,0.265c0,0.265,0.3,0.354,0.201,0.619c-0.701,0.796-3.101,0.354-4.301,0.795
				c-4-1.062-6.7,0.176-11.601,0.351c0.2,0.797,1,1.063,1.4,1.682c-0.101,0.266-0.4,0.441-0.7,0.53c-1,0-1.5-0.442-1.899-0.884
				c-0.101-0.619,1.3-0.797,0.5-1.416c-1.5-0.089-1.199,1.061-2.899,0.796c0.5-0.62-0.101-1.329-0.4-2.302
				c-0.899-0.354-1-0.177-2.6,0c0.2,0.442,0.2,0.531,0,0.973c-0.6,0-0.6-0.529-0.899-0.707c0-0.266,0.9-0.088,0.7-0.619
				c-0.8-0.619-2.399-0.708-3.8-0.531c-0.2,0.178-0.3,0.442-0.299,0.796c-1.102,0.178-1,0.267-2.401,0.267
				c0.2,0.973-1.399,0.619-1.2,1.591c1.1,0.267,2,0.797,2.8,1.327c-0.101,0.619-1.5,0.266-2.4,0.354
				c-0.6-1.063-3.5-1.416-5.199-1.24c-0.4-0.529,0-0.441,0.5-0.794c-0.2-0.444-0.601-0.708-0.7-1.151
				c-1.2,0.266-3.301,0.266-3.898-0.354c-0.7,0-0.301,0.796-0.701,0.973c-1.2-0.354-3.6,0.087-3.799-0.885
				c-4.102,0.087-6.9,0.264-9.901-0.621c-1.299,1.416-4.599,0.706-6,1.415c-1.6-0.974-3.3-1.857-4.799-2.832
				c-0.201,0.708-0.5,1.237-1.2,1.593c-4.701,0.175-8.701,0.086-11.4,1.5c-0.301-0.974-1.101-1.594-2.7-1.682
				c-0.199,0.354-0.602,0.619-1.001,0.797c-0.5-0.09-1-0.532-1.199,0c-1.5-1.238-3.399-0.886-5.3-0.179
				c-0.699-0.267-1.699-0.267-1.699-0.974c-1.2-0.178-1.601-0.001-2.901,0c0.2,0.884-0.2,1.415-0.5,1.944
				c-1.299-0.176-2,0.089-3.599,0c-0.701-0.176-0.801-0.354-0.5-0.795c-2.201-0.001-3.901,0.353-4.901,1.237
				c-0.799-0.267-1.898-0.355-1.898-1.151c-2.4-0.798-4.701,0.618-6-1.064c-1.301,0.531-3.701,0.354-4.602,1.238
				c-0.898-0.354-1.1-1.238-2.6-1.504c-1.1,0.708-2.4-0.797-3.8,0.088c-0.199,0.531,0.8,0.266,0.7,0.707
				c-2.701,0.354-2.399-2.653-4.8-1.504c-0.3-0.089,0.101-0.531-0.699-0.619c-2,0.353-2.301,1.946-4.101,2.387
				c0,0.354,0.601,0.354,0.9,0.531c-0.201,0.796-2.301,0.354-2.602-0.179c-0.8,0-1.3,0.354-1.699,0.619
				c-0.4-0.087-1.101-0.885-1.4-0.531c-1,0,0.1,0.797-1,0.975c0.5-0.089-1-1.416,0.701-1.504c0.2-1.063-0.7-1.682-0.399-2.919
				c-1.6,0.177-1.4-0.177-2.9-0.177c-0.5,0.176-0.601,0.619-1,0.795c-1.6-0.707-3.3,0.178-4.6,0.442
				c-0.6-0.178-0.899-0.531-1.2-0.974c-3,0.176-4.899,1.061-6.3,2.032c-0.399-0.885,1.2-0.795,1.5-1.591
				c-1.6,0.441-0.701-0.267-1.5-0.708c-1,0-1,0.707-1.9,0.794c-0.1-0.707,0.7-0.794,0.5-1.504c-0.6-0.088-0.899-0.265-1.7-0.176
				c1.201,0.62,0,0.795,0.5,1.68c-3,0.088-5.199-0.531-8.699,0.265c-0.7-0.354-0.601-0.354-0.5-1.15
				c-0.9-0.088-0.901,0.443-1.901,0.354c0.3,0.177,0,0.265-0.1,0.354c-0.101-0.353-1.1-0.265-0.8-0.885c-0.3,0-0.5,0-0.699,0
				c-0.102,0.885,0.5,1.061,1.5,0.885c-0.301,0.355-1.101,0.441,0.399,0.708c-0.801,0.531-1,1.504-0.301,1.945
				c-0.699,1.504-1.5,0.973-3.199,1.592c-1.101-0.089-1-0.973-1.899-1.149c-0.801,0-0.9,0.441-1.201,0.796
				c-0.5,0-0.2-0.442-0.899-0.354c0.2-0.619,0.9-0.973,0.801-1.769c1.1,0.265,1.399-0.177,1.898-0.442
				c-0.499-0.796-1.5,0.087-2.398,0c0,0.354,0,0.619,0,0.973c-1.4-0.177-1.9-0.62-1.4-1.68c-1.6-1.15-6.5,0.175-3.2,1.237
				c-0.8,0.53-1.199,1.415-2.699,0.972c0,0.531-0.701,0.619-1.2,0.797c-1.601-0.267-0.9-1.063-1.7-1.947
				c-0.6,0.266-1.199-0.354-1.2,0.266c-0.399-0.973-2.5-0.796-3.399-1.504c-0.5,0.089-1.4-0.088-1.4,0.441
				c-0.699-0.178-1.599-0.884-2.599-0.355c-0.701,0-0.301-0.708-0.7-0.974c-1.5,1.238-5.201,0.353-5.8,1.945
				c0.899,0.088,2.899-0.089,2.799,1.149c2.2,0.091,6.5-0.618,7.5,0.71c-2.8,2.123-9,0.882-12.8,0.705
				c-0.6-1.327-1.1-2.565-1.399-4.247c-0.9,0.088-0.3,0.442-1.199,0.178c-0.4,0.884,0.1,1.326-0.501,2.299
				c-1.399,0.089-2.301,0.442-2.701,1.237c-0.399,0-0.899,0-1.399,0c-0.4,1.504-2.3,0.885-3.4,1.769
				c-2.601-1.326-3.2,1.504-6.3,0.265c1.3-0.53,0.9-1.327,2-1.945c-0.899,0-2.2,0.266-1.7,0.796
				c-1.101,0.089-1.899-0.088-2.399-0.355c0.7-0.796,2.6-2.21,3.7-1.149c0.899,0.089,1.301-0.266,1.399-0.795
				c-2.3,0.619-2.099-1.682-4-1.859c0.2-0.088,0.5-0.088,0.5-0.442c-1.5,0.178-1.7,0.441-3.4,0.088
				c0.101,0.619,0.899,1.416,0.199,2.123c-1.5-0.441-3.5-0.708-4.1-1.681c-0.601,0-0.3,0.619-1,0.619
				c-0.7-0.089-1.3-0.443-1.6-0.973c-1.4,0.264-3.601-0.444-5.5-0.71c0.699,2.212-3.001,3.096-5.602,2.211
				c0,0.354,0.601,0.354,1.2,0.354c-0.101,0.354,0.199,0.441,0.199,0.707c-0.301,0.619-2.301,0.088-2.2,0.972
				c0.8-0.088,1.1,0.089,1.699,0.179c-0.399,0.707-1.399,1.149-2.699,0.795c-0.301,1.503-3.9,0.884-3.301-0.885
				c-1.1-0.354-1.6-0.974-2.398-1.503c-0.7,0.264-1.301,0.088-2.101-0.001c-0.8,0.795-0.301,1.149,0.699,1.68
				c-1.3,0.266-0.399,1.063-1.7,1.416c-0.199,0-0.199-0.178-0.5-0.178c-0.601-0.088,0.6-0.175,0.301-0.618
				c-1.301-0.001-2.101,0.265-2.7,0.796c0,0.53,1.2,0.354,1,0.973c-0.1,0.442-1.3,0.088-1.899,0.177
				c0-0.974-1.801,0.266-1.699-0.796c-1.101-0.088-1.7,0.177-2.401,0.441c-1,0-1.399-0.442-2.099-0.708
				c0.6-0.531,1.1-0.619,0.5-1.415c1.5,0.089,2.299-0.708,4.299-0.088c0.2,0.532-0.3,0.619-0.3,0.973c1.5-0.087,0.1-1.149,0.8-1.769
				c-0.7,0.089-1.5,0.088-2.101,0.265c-0.399-0.266,0.101-0.266,0-0.795c-1.399-0.354-2.699-0.975-4.601-0.709
				c-0.399,0.265,0.4,0.442-0.199,0.796c-1.4,0.088-2.601-0.619-4.301-0.178c-0.4-0.089-0.1-0.619-0.4-0.708
				c-2.199,0.177-4-0.441-5.799,0.441c0.199,0.973,1.1,1.504,2.898,1.504c-0.2,0.176-0.299,0.442-0.2,0.795
				c-2.5,0-6.399,0.618-5.5-1.327c-1.399-0.797-2.3,0.354-2.399-0.354c-0.7,0.088-1.001,0.53-1.7,0.619
				c0.9,0.531,3.399,0.001,3.6,0.974c-1-0.178-1.5,0-2.899,0.266c0.5,0.885,1.898,0.973,2.398,1.857
				c-1.898-0.178-4.699,0.44-7-0.886c-1.5,0.885-5.8,1.68-5.299-0.532c1.6,0.885,3.399,0.268,4.8-0.618
				c0.9-0.087,1.101,0.266,1.5,0.531c1.9-0.087,3.102-2.122,1-2.654c0-0.266,0.2-0.354,0.5-0.44c0.102-0.442-1.199,0.441-1-0.354
				c-0.5,0.354-2,0.529-1.898-0.354c-0.701,0.176-1.9,0.619-2.401,0c-0.1,0.354-0.799,0.796-0.3,1.327c-3,1.414-4.5-0.179-7.5-0.091
				c-0.101,1.149,2.199,0.708,1.599,2.3c0.4,0.266,0.9,0.442,1.6,0.531c-0.9,1.061,2.101,0.441,1.399,1.857
				c1.101,0,1.901,0.267,2.101,0.973c0.5-0.266,0.5-0.884,1.199-0.972c1.2-0.178,2.4,1.061,2.9,0c1.4,0.089,1.699,0.974,3.3,0.974
				c-0.1-0.531,0.101-0.796,0.201-1.15c1.799-0.354,3.198,0.531,4.299,0.179c1,0.266,0.5,0.442,0.5,1.15
				c0.401-0.09,1.001-0.089,1.201-0.354c0.699,0.619,1.199,1.327,2.899,1.328c-0.5-0.531-0.601-1.417-1.199-1.946
				c1.5-0.354,3.3,0.266,4,1.238c-0.301,0.442-1.5,0.442-2.601,0.442c-0.199,0.796,1.199,0.53,0.699,1.504
				c1.401,0,2.2,0.441,3.101,1.15c0.399-0.266,1.1-0.354,1.199-0.796c0.5,0.53,0.2,1.237-0.4,1.503
				c-0.399-0.885-2.199,0.087-2.3-0.885c-0.8-0.088-0.8,0.354-1.699,0.266c-0.5-0.354-0.5-0.885-0.199-1.326
				c-0.9-0.266-1.5-0.267-2.4-0.179c-0.1,0.707,0.301,0,1,0.178c0.101,1.061-1.2,0.973-2,0.619c-0.399,0.529,0.3,1.061-0.7,1.326
				c-0.899-0.177-0.101-0.442-0.199-0.973c-0.601-0.266-1.1-0.531-2.101-0.531c-0.801,0.531,0,1.062-0.801,1.504
				c-2-0.442-4.399-0.62-6-1.327c-0.2,0.884-4.9,1.236-5.5,0.086c-0.899-0.178-0.8,0.266-1.199,0.441c-0.5-0.354-0.7-0.885-1-1.326
				c0.2-0.531,0.799,0.088,1.199,0c-0.5-1.062-2.299-1.15-3.299-1.857c0.5-0.354-0.3-0.797,0-1.504c-0.7,0-0.901,0.441-1.901,0.266
				c-2-0.885-1.099-2.654-3.599-3.274c0.3-0.441,0.199-0.885-0.7-0.973c-0.1,0.353,0.4,0.354,0.2,0.795
				c-0.7-0.177-0.3-0.708-1.2-0.354c0-0.442,0.201-1.062-0.199-1.327c-0.4,0.531-0.899,0.178-1.7,0.178c0-0.178,0-0.354,0-0.62
				c-1.899,1.239-4.299-0.531-6.299-0.443c-0.301,0.089-0.899,0.531-1.201,0.531c-0.199,0-0.399-0.531-0.899-0.531
				c-0.2,0-0.8,0.354-1,0.354c-0.601-0.176-1.3-1.061-2.101-0.531c0.399,0.53,1.399,0.708,2.1,0.975
				c0.101,0.354-0.399,0.531-0.7,0.619c0.4,0.354,0.602,0.266,1.2,0.176c-0.2,0.354-0.101,1.063-1,0.974
				c0.3,0.267,1.899,0.177,2.2,0c0.4-0.619-0.8-0.177-0.7-0.53c0-0.532,1.399-0.089,1.899,0c-0.601,0.885,0.801,0.441,0.2,1.415
				c0.799,0.265,0.199-0.442,1-0.266c0.4,0.265-0.101,0.442-0.5,0.62c0.699,0.354,1.601,0.354,1.899,0.884
				c1.2-0.354,1.7-1.149,2-2.123c0.8,0,1,0.267,1.201,0.53c-0.302,0.62-0.5,1.151-0.501,1.594c-3.6,0.088-6.801,0.353-10.101,1.502
				c-0.801,0-0.699-0.708-1.399-0.797c-1.101,0.088-1.5-0.266-1.701,0.44c-0.8-0.44-1.599-0.265-2.6,0c0.3,2.211,3.8,0.975,5,1.683
				c0.299-0.443,0.599-0.974,1.898-0.797c0.2,0.178,0.4,0.354,0.5,0.531c-0.899,1.591-4.3,1.591-6.3,1.414
				c0.799,0.796-3,0.884-1.501,1.945c-0.899,0-2.3-0.354-2.601,0.44c-2.899,0-3.5-0.53-4.601-1.77c0.201-0.09,0.5-0.089,0.5-0.442
				c-0.899-0.088-0.899-0.796-2.199-0.532c0.101,0.267,0.4,0.354,1,0.354c0.198,2.034-2.5,1.68-3.9,1.414
				c-0.901-0.177-0.801-0.796-1-1.326c-1.1,0.087-1,0.884-1.7,1.149c-1-0.975-1.8-2.124-3.799-2.479
				c0.699,0.442,0.5,0.619,0.699,1.149c-0.299,0.618-2.799,0.442-2.101-0.708c0-0.266,0.301-0.354,0.901-0.354
				c0-0.443-0.2-1.15,0.5-1.149c-0.401,0.088-1.5-0.619-1.9,0.176c-0.6-0.708-1.1-1.593-1.6-2.477c-1,0.354-2.7,0.176-2.9,0.973
				c0,0.529,0.8,0.441,1.4,0.529c-1.3,0.354-2.601,0.708-3.901,0.619c1.101,0.708-0.8,0.884,0,1.769
				c-0.699,0.619-1.699,0.531-2.6,0.177c-0.199-0.619,0.701-0.265,0.701-0.708c-0.3-1.062-1.499-1.504-2.899-1.858
				c0.101-0.795-0.3-1.238-0.7-1.68c-0.899,0.441-2,0.618-3.099,0.176c0-0.177,0-0.353,0-0.619c0.3-0.441,1.5-0.089,2.201-0.176
				c0.799-0.266-1.201-0.089-1.2-0.354c0.299-0.62,0-0.797,0.3-1.504c-1.6,0.973-2.701,2.299-4.202,3.36
				c1.5,0,2.5,0.267,4.102,0.177c0.299,1.15-1.7,0.708-1.5,1.77c0.6,0.266,1.3,0.442,2.1,0.532c0.1,0.354-0.399,0.53-0.5,0.795
				c-2.6-0.266-8-0.532-9.8,0.263c-2.4-1.681-8.301,1.414-8.4-2.213c-1.3,0.178-3.1-0.266-3.599-1.062
				c0.899-0.354,2.199-0.266,3.399-0.797c0.1-0.265-1-0.442-0.3-0.531c0-0.176-0.4-0.176-0.7-0.176c-0.899,0,0.101,0.265-0.5,0.53
				c-1.301-0.442-1.899-0.178-3.101,0.264c0.2,1.417,0.7,1.682,0.699,2.92h-0.101c-0.6-0.089-1-0.267-1.1-0.62
				c-0.4,0.177-0.5,0.354-0.9,0.441c-0.6-0.088-1.199-0.088-1.801-0.176c0-0.089-0.099-0.09-0.099-0.179
				c-0.2,0-0.601,0.089-0.801,0.089c-0.899-0.177-1.8-0.266-2.699-0.266c-0.2,0.266-0.301,0.354-0.4,0.53
				c-1.1,0.089-2.1,0.178-3.199,0.265c-0.301-0.087-0.301-0.354-0.601-0.619c0.601-0.176,1.4-0.087,1.9,0.355
				c1.5,0,1.8-0.795,3.2-0.794c0-0.531-0.399-1.15-0.699-1.77c1.699-0.354,3.6-0.708,4.2-1.327c0.5,0.089,1.101,0.177,1.899,0.178
				c-0.201-0.266-0.6-0.354-0.7-0.708c-0.6,0.088-1.5,0.267-1.1-0.531c-1.8,0.441-3.5,0.885-4,2.122c0-0.088-0.3-0.088-0.4-0.177
				c-0.1-0.266-0.198-0.266-0.3-0.619c-1.6-0.354-1.898-1.593-4.3-1.505l0,0c-0.2-0.089-0.4-0.266-0.4-0.53
				c-0.6,0.44-1.099-0.178-1.5,0.176c0.5,0.797-0.399,0.974-1,1.416c-1.699,0.087-3.6-0.179-5-0.268
				c0.201-0.619,1.201-1.325,0.301-1.77c-0.6,0.089-1.199,0-1.699,0.088l0,0c-0.301,0-0.4,0.089-0.5,0.089
				c-0.4,0-0.801,0.177-1.401,0.088c0,0.266,0.3,0.354,0.201,0.619c-0.701,0.797-3.102,0.354-4.301,0.796
				c-0.899-0.179-1.601,0-2.3-0.089c-0.2-0.354-0.3-0.708-0.1-1.239c-0.599-0.177-1.2-0.177-1.799-0.177
				c-0.401-0.886-1.601-1.063-2.5-0.354c0.399,0.53,1.199,0.441,2,0.53c0.3,0.354,0.2,0.708,0.3,1.062c-0.399,0.088-0.9-0.088-1.3,0
				c-0.601-0.178-1.601-0.088-1.5-0.708c-0.401,0.441-0.201,0.53-1.2,0.354c0.5,0.176,0.2,0.441,0.101,0.619
				c-0.701,0.088-1.399,0.176-2.301,0.266c0.201-0.179,0.701-0.266,1-0.443c0-0.266-0.699-0.175-0.5-0.618
				c-1.1-0.089-2-0.089-2.6,0.265c-0.5-0.089-0.601-0.354-0.5-0.707c-0.2,0-0.601,0-0.9,0c0,0.265-0.1,0.354-0.3,0.354
				c0.8,0.532,0.5,1.062,0.699,1.415c-0.4,0.178-0.699,0.442-1.5,0.354c0.5-0.619-0.101-1.329-0.399-2.301
				c-0.9-0.354-1-0.178-2.601-0.001c0.199,0.354,0.101,0.531,0,0.708c-0.101,0-0.1-0.088-0.199-0.089c0,0.088,0,0.088,0,0.177
				c-0.301-0.088-0.5-0.265-0.7-0.442c0-0.265,0.9-0.088,0.7-0.62c-0.7-0.529-1.9-0.53-3.101-0.441
				c-0.699-0.266-1.899-0.089-2.899-0.178c0.1,0.177,1.3,0.354,0.5,0.619c0.3-0.088,0.9-0.265,1.6-0.354
				c-0.1,0.178-0.2,0.266-0.199,0.531c-1.101,0.176-1,0.266-2.4,0.265c0.1,0.265-0.2,0.354-0.3,0.441
				c-2.7,0.266-5.302,0.353-5.7-1.681c-1.2,0.176-1.5,0.44-2.9,0.176c0.2,0.266,0.4,0.531,1,0.531c-0.2,0.177,0,0.354-0.1,0.531
				c-0.8,0-1.8,0.176-2.101-0.179c-0.301,0-0.301,0.267-0.3,0.442c-1.3,0-2.399,0.088-3.5,0.088c-0.3-0.089-0.799-0.089-0.8-0.354
				c-4.101,0.087-6.9,0.263-9.9-0.621c-0.3,0.354-0.899,0.265-1.3,0.441c-2.2-0.088-4.399-0.089-6.399-0.089l0,0
				c-1-0.531-2.1-1.15-3-1.771c-0.101,0.531-0.5,0.884-0.899,1.237c-1.301,0.178-2.301,0.441-3.201-0.354
				c0-0.442,0.101-0.707,0.8-0.707c-0.398-0.443-1.099,0.177-1.699,0c0.199,0.176,0.601,0.266,0.399,0.795
				c-3.8,0.53-7.1,0.087-10.5,0.529c-0.1,0,0-0.088-0.1-0.087c0,0.088-0.101,0.088-0.101,0.088c-0.199,0-0.399,0-0.601-0.001
				c0.301,0.088,0.201,0.267,0.201,0.354c-0.201,0.089-0.201,0.266-0.4,0.354c-0.199,0-0.3,0.09-0.5,0
				c0.301-0.088,0.401-0.354,0.5-0.53c-0.799,0.089-1.898,0-2.898,0c-0.602-0.089-1.2-0.089-1.802,0c-0.898,0-1.5,0-2.398,0
				c-0.5-0.089-1.101-0.177-1.101-0.619c-1.198-0.177-1.6,0-2.899-0.001c0,0.354-0.2,0.619-0.301,0.885
				c-0.801,0.089-1.601-0.001-2.399,0.177c-0.601-0.178-1.101,0.176-1.801,0.176c0-0.089-0.199-0.089-0.101-0.177
				c-0.5,0-0.699,0.177-1.1,0.266c-0.5,0.177-1.201-0.089-1.4,0.177c-0.6,0.265-2.299-0.796-2.6,0.265c0.599,0,1.099,0,1.399,0.178
				c-0.101,0-0.101,0.088-0.101,0.088c-0.3,0.09-0.899,0.089-1.1,0.266c-0.2-0.088-0.2-0.176-0.301-0.176c0-0.09,0-0.09,0-0.09
				c-0.899,0.354-1.399,0-1.199-0.796c-0.102,0-0.2,0-0.301,0c0-0.089-0.199,0-0.199-0.089c-2.4-0.796-4.7,0.618-6-1.063
				c-1.2,0.53-3.101,0.529-4.2,1.148c-0.2,0-0.4,0-0.6,0c-0.7-0.441-1-1.149-2.4-1.416c-1.1,0.707-2.4-0.797-3.8,0.087
				c-0.2,0.531,0.8,0.266,0.7,0.708c-2.7,0.354-2.399-2.654-4.801-1.505c-0.3-0.089,0.101-0.53-0.699-0.619
				c-2,0.353-2.301,1.945-4.101,2.388c0,0.089,0.101,0,0.2,0.089c-1.9-0.089-3.601-0.09-5.5-0.09c0.1,0,0-0.089,0.1-0.089
				c0.2-1.061-0.699-1.681-0.399-2.919c-1.601,0.177-1.4-0.177-2.899-0.178c-0.5,0.177-0.601,0.619-1,0.796
				c-1.6-0.708-3.299,0.176-4.6,0.441c-0.601-0.177-0.9-0.532-1.199-0.974c-3,0.177-4.901,1.061-6.302,2.033
				c-0.399-0.884,1.201-0.796,1.5-1.593c-1.6,0.443-0.698-0.265-1.499-0.708c-1,0-1,0.707-1.9,0.797
				c-0.101-0.709,0.7-0.798,0.5-1.504c-0.5-0.09-0.899-0.266-1.7-0.178c1.201,0.619,0,0.797,0.5,1.683c-3,0.087-5.2-0.533-8.7,0.263
				c-0.699-0.354-0.6-0.354-0.5-1.149c-0.899-0.089-0.899,0.441-1.899,0.354c0.299,0.177,0,0.266-0.101,0.354
				c-0.1-0.354-1.101-0.266-0.8-0.885c-0.3,0-0.5,0-0.699,0c-0.101,0.885,0.5,1.063,1.5,0.885c-0.301,0.354-1.101,0.442,0.399,0.708
				c-0.8,0.531-1,1.503-0.3,1.947c-0.701,1.503-1.5,0.972-3.201,1.591c-1.1-0.088-1-0.973-1.898-1.15c-0.801,0-0.9,0.442-1.2,0.797
				c-0.5,0-0.2-0.443-0.901-0.354c0.201-0.62,0.901-0.974,0.801-1.77c1.101,0.267,1.4-0.178,1.9-0.443c-0.5-0.795-1.5,0.09-2.4,0
				c0,0.354,0,0.62,0,0.974c-1.398-0.178-1.898-0.62-1.397-1.682c-1.602-1.15-6.501,0.176-3.201,1.237
				c-0.8,0.531-1.2,1.416-2.7,0.972c0,0.532-0.699,0.62-1.199,0.797c-1.601-0.266-0.899-1.062-1.699-1.946
				c-0.601,0.266-1.2-0.354-1.2,0.266c-0.399-0.975-2.5-0.796-3.399-1.505c-0.5,0.088-1.399-0.09-1.399,0.441
				c-0.7-0.178-1.6-0.886-2.601-0.354c-0.7,0-0.3-0.708-0.699-0.974c-1.5,1.239-5.199,0.353-5.801,1.945
				c0.9,0.088,2.9-0.088,2.8,1.151c2.2,0.088,6.5-0.618,7.5,0.708c-2.8,2.123-9,0.883-12.8,0.705
				c-0.6-1.327-0.999-2.565-1.398-4.246c-0.9,0.088-0.301,0.441-1.201,0.177c-0.399,0.885,0.101,1.326-0.5,2.3
				c-1.399,0.088-2.3,0.441-2.7,1.239c-0.398,0-0.898,0-1.398-0.001c-0.401,1.503-2.302,0.883-3.401,1.768
				c-2.6-1.327-3.2,1.503-6.3,0.265c1.301-0.53,0.9-1.326,2.001-1.945c-0.9,0-2.2,0.266-1.701,0.796
				c-1.099,0.089-1.899-0.09-2.399-0.354c0.699-0.796,2.601-2.211,3.699-1.149c0.901,0.09,1.301-0.264,1.4-0.796
				c-2.301,0.619-2.1-1.681-4-1.858c0.199-0.088,0.5-0.088,0.5-0.441c-1.5,0.176-1.7,0.441-3.4,0.088
				c0.1,0.619,0.899,1.414,0.2,2.123c-1.601-0.443-3.5-0.709-4.1-1.683c-0.601,0-0.301,0.619-1,0.619
				c-0.699-0.088-1.3-0.441-1.601-0.974c-1.398,0.266-3.599-0.442-5.499-0.708c0.7,2.211-3.001,3.097-5.6,2.21
				c0,0.354,0.6,0.355,1.199,0.355c-0.101,0.354,0.199,0.442,0.199,0.708c-0.299,0.619-2.299,0.089-2.199,0.974
				c0.801-0.089,1.101,0.088,1.699,0.177c-0.399,0.708-1.398,1.15-2.699,0.797c-0.302,1.503-3.9,0.883-3.301-0.887
				c-1.1-0.354-1.599-0.973-2.398-1.504c-0.7,0.266-1.302,0.087-2.102,0c-0.8,0.796-0.3,1.149,0.7,1.681
				c-1.3,0.266-0.401,1.063-1.701,1.416c-0.199,0-0.199-0.177-0.5-0.178c-0.6-0.089,0.602-0.177,0.301-0.619
				c-1.301-0.001-2.101,0.265-2.699,0.795c0,0.531,1.199,0.354,1,0.974c-0.101,0.442-1.3,0.089-1.9,0.177
				c0-0.973-1.8,0.265-1.699-0.797c-1.1-0.088-1.699,0.177-2.399,0.442c-1,0-1.4-0.443-2.1-0.708c0.601-0.53,1.101-0.62,0.5-1.415
				c1.5,0.088,2.301-0.708,4.301-0.089c0.199,0.53-0.301,0.62-0.301,0.975c1.5-0.09,0.101-1.15,0.801-1.77
				c-0.701,0.088-1.5,0.087-2.102,0.266c-0.5-0.266,0.102-0.266,0.001-0.797c-1.398-0.354-2.699-0.973-4.6-0.708
				c-0.4,0.267,0.399,0.441-0.2,0.796c-1.399,0.089-2.599-0.621-4.3-0.178c-0.4-0.089-0.101-0.619-0.4-0.708
				c-2.2,0.177-4-0.442-5.8,0.441c0.2,0.973,1.101,1.504,2.899,1.504c-0.199,0.177-0.3,0.441-0.2,0.796
				c-2.5,0-6.4,0.618-5.499-1.329c-1.4-0.795-2.3,0.354-2.4-0.354c-0.7,0.088-1,0.531-1.7,0.619c0.899,0.531,3.399,0,3.6,0.973
				c-1-0.176-1.5,0-2.9,0.266c0.5,0.885,1.9,0.973,2.4,1.857c-1.9-0.176-4.7,0.442-7-0.887c-1.5,0.885-5.8,1.681-5.3-0.531
				c1.6,0.885,3.398,0.267,4.8-0.618c0.899-0.089,1.099,0.265,1.5,0.53c1.899-0.088,3.1-2.123,1-2.653
				c0-0.265,0.201-0.354,0.5-0.442c0.1-0.441-1.201,0.441-1-0.355c-0.5,0.354-2,0.531-1.9-0.354c-0.7,0.176-1.9,0.619-2.4,0
				c0,0.354-0.7,0.795-0.199,1.326c-3,1.416-4.5-0.178-7.5-0.09c-0.101,1.15,2.2,0.708,1.599,2.299c0.4,0.266,0.9,0.443,1.601,0.531
				c-0.9,1.063,2.1,0.443,1.398,1.858c1.102,0,1.9,0.266,2.102,0.975c0.5-0.266,0.5-0.885,1.199-0.974c1.2-0.176,2.399,1.063,2.9,0
				c1.399,0.089,1.7,0.975,3.3,0.974c-0.1-0.53,0.102-0.795,0.2-1.148c1.8-0.354,3.2,0.529,4.3,0.177
				c0.999,0.266,0.5,0.442,0.5,1.149c0.4-0.088,1-0.087,1.2-0.354c0.7,0.619,1.3,1.326,2.899,1.327
				c-0.101-0.088-0.101-0.178-0.199-0.266c0.199,0.178,0.299,0.354,0.599,0.531l0,0c0.301,0.178,0.7,0.354,0.401,0.885
				c1.399,0,2.198,0.442,3.099,1.15c0.4-0.267,1.101-0.354,1.201-0.796c0.5,0.531,0.299,2.035-0.301,2.3
				c-0.4-0.885-2.301-0.709-2.4-1.682c-0.799-0.089-0.799,0.354-1.699,0.265c-0.5-0.354-0.5-0.884-0.199-1.326
				c-0.9-0.266-1.5-0.266-2.4-0.178c-0.1,0.707,0.3,0,1,0.178c0.1,1.062-1.2,0.973-2,0.619c-0.4,0.441-0.1,0.795-0.6,1.061
				c-0.102,0-0.102,0-0.2,0c-0.3-0.176-0.1-0.441-0.2-0.796c-0.599-0.265-1.099-0.53-2.099-0.53c-0.8,0.53,0,1.061-0.801,1.504
				c-1.8-0.443-3.801-0.708-5.399-1.24c0.399,0,0.701-0.177,1.1-0.177c-0.699-1.416-4.601-0.089-5.5-0.708c0,0,0,0.088-0.1,0.088
				c-0.601,0-1.2-0.088-1.3-0.441c0.199-0.354,1.2-0.089,1.6-0.266c0.101,0,0.101,0,0.2,0c1,0.441,1.5,0.441,2.799,0.531
				c-0.3-0.443-0.8-0.443-1.3-0.62c1.7-0.088,3.4-0.265,5.3-0.353c0.2-0.619-1.799-0.708-1.899-0.176c-2-1.063-5.7-0.533-7.5-0.446
				c-0.101,0.532,0.5,0.532,0.899,0.709c-0.3,0.354-0.5,0.708-0.4,1.327c0.601,0,0.799,0.088,1,0.266
				c-0.2,0.088-0.4,0.175-0.5,0.354c-0.101,0-0.399,0-0.5-0.089c-0.899-0.178-0.8,0.266-1.201,0.441
				c-0.5-0.354-0.699-0.886-0.999-1.326c0.2-0.532,0.8,0.088,1.2,0c-0.5-1.063-2.301-1.15-3.301-1.857c0.5-0.354-0.3-0.797,0-1.504
				c-0.699,0-0.899,0.44-1.899,0.266c-2-0.886-1.1-2.654-3.6-3.274c0.301-0.441,0.2-0.885-0.699-0.973
				c-0.101,0.354,0.399,0.354,0.199,0.795c-0.699-0.175-0.299-0.707-1.199-0.354c0-0.441,0.199-1.061-0.2-1.326
				c-0.399,0.53-0.899,0.176-1.699,0.176c0-0.176,0-0.354,0-0.619c-1.901,1.239-4.3-0.531-6.3-0.442c-0.3,0.087-0.9,0.53-1.2,0.53
				c-0.2,0-0.4-0.531-0.9-0.531c-0.199,0-0.8,0.354-1,0.354c-0.6-0.177-1.299-1.062-2.1-0.532c0.4,0.532,1.399,0.709,2.1,0.975
				c0.101,0.354-0.399,0.53-0.699,0.619c0.399,0.354,0.6,0.266,1.199,0.177c-0.2,0.354-0.1,1.063-1,0.973c0.3,0.266,1.9,0.178,2.2,0
				c0.399-0.619-0.8-0.177-0.7-0.53c0-0.53,1.4-0.089,1.9,0c-0.601,0.885,0.8,0.443,0.199,1.416c0.801,0.266,0.201-0.441,1-0.266
				c0.399,0.265-0.101,0.443-0.5,0.619c0.701,0.354,1.601,0.354,1.899,0.885c1.201-0.353,1.701-1.148,2-2.122
				c0.801,0,1,0.266,1.2,0.531c-0.3,0.619-0.5,1.15-0.5,1.592c-3.6,0.088-6.8,0.353-10.101,1.501c-0.801,0-0.7-0.707-1.4-0.796
				c-1.099,0.089-1.5-0.265-1.7,0.441c-0.8-0.441-1.6-0.266-2.6,0c0.3,2.21,3.8,0.974,5,1.682c0.3-0.442,0.6-0.974,1.899-0.796
				c0.199,0.177,0.399,0.354,0.5,0.531c-0.101,0.265-0.601,0.265-0.801,0.44c-0.699,0.089-1.399,0-2.1,0.178
				c-0.2,0.441,0.3,0.441,0.5,0.619c-1.301,0.176-2.801,0.264-3.901,0.176c0.602,0.618-1.1,0.884-1.3,1.503
				c-0.2,0.178-0.399,0.443-0.899,0.443c-0.199-0.531,0.801-0.178,0.5-0.797c-1.899-0.441-2.9,0.353-4.601,0.707
				c-0.701-0.531-1.899-0.621-2.399-1.24c0.199-0.088,0.499-0.088,0.5-0.44c-0.899-0.089-0.899-0.797-2.199-0.532
				c0.1,0.267,0.398,0.354,1,0.355c0.199,1.682-1.602,1.681-3,1.502c-0.101-0.266-0.601-0.088-0.601-0.441
				c-0.2,0.088-0.3,0.087-0.5,0c-0.299-0.266-0.5-0.62-0.699-0.974c-1.101,0.089-1,0.885-1.7,1.148c-1-0.973-1.8-2.123-3.8-2.478
				c0.699,0.443,0.5,0.619,0.699,1.15c-0.3,0.619-2.8,0.441-2.1-0.708c0-0.266,0.3-0.354,0.899-0.354c0-0.442-0.199-1.149,0.5-1.149
				c-0.399,0.089-1.5-0.619-1.899,0.176c-0.601-0.708-1.1-1.593-1.6-2.478c-1,0.354-2.699,0.177-2.899,0.973
				c0,0.53,0.8,0.442,1.399,0.53c-1.3,0.354-2.6,0.708-3.899,0.619c1.1,0.708-0.801,0.885,0,1.77c-0.7,0.619-1.7,0.53-2.601,0.176
				c-0.2-0.619,0.699-0.265,0.699-0.708c-0.3-1.062-1.5-1.505-2.899-1.858c0.101-0.796-0.299-1.238-0.699-1.68
				c-0.9,0.441-2,0.619-3.101,0.176c0-0.176,0-0.354,0-0.62c0.301-0.44,1.5-0.087,2.199-0.176c0.801-0.265-1.199-0.089-1.199-0.354
				c0.301-0.619,0-0.796,0.301-1.504c-1.602,0.975-2.701,2.3-4.2,3.36c1.5,0,2.5,0.266,4.099,0.177
				c0.3,1.151-1.699,0.708-1.501,1.771c0.602,0.266,1.301,0.441,2.103,0.531c0.099,0.354-0.401,0.528-0.501,0.795
				c-1.101-0.176-2.7-0.266-4.2-0.266c0.2-0.089,0.3-0.177,0.6-0.177c0-0.266-0.398-0.354-0.3-0.619
				c-0.7-0.178-0.701,0.176-1.2,0.266c0.2,0.177,0.302,0.354,0.4,0.53c-2.101-0.089-4.101-0.001-5.101,0.441
				c-2.399-1.682-8.302,1.414-8.399-2.213c-1.3,0.177-3.101-0.266-3.6-1.063c0.899-0.354,2.199-0.265,3.399-0.795
				c0.101-0.265-1-0.442-0.299-0.53c0-0.178-0.401-0.178-0.7-0.178c-0.899,0,0.1,0.266-0.5,0.531
				c-1.3-0.442-1.899-0.179-3.099,0.265c0.2,1.326,0.699,1.592,0.699,2.918c-0.802-0.088-1-0.354-1.2-0.707
				c-0.8,0.354-2.101,0.354-2.2,1.149c-0.699-0.178-0.8-0.531-0.5-0.973c-1.899-0.001-4.199,0.353-6.5,0.528
				c0.4,0,0-0.619,0.5-0.529c-0.199-0.267-0.8-0.267-1.199-0.354c0.1,0.265,0.699,0.266,0.5,0.796
				c0.101,0.088,0.101,0.088,0.199,0.089c-3.399,0.354-6.8,0.529-9.399-0.268c0.4-0.619,0.9-1.148,1.899-0.619
				c-0.8-0.795,1.2-0.088,1.4-0.973c-1.3,0.442-2-0.089-1.9-0.796c-1.699,0.265-2.199-0.443-3.799-0.355c0,0.09-0.2,0.178-0.3,0.265
				c-0.301-0.528-0.101-1.326,0.6-1.591c-0.8-0.178-1.3-0.619-2.2-0.354c0,0.177,0,0.442,0,0.619c-0.899,0.177-1.6-0.62-2.1-0.177
				c-0.101,0.53,1,0.265,0.899,0.796c-0.199,0.354-0.801,0.53-1.699,0.441c0.199,0.619,1.199,0.177,1.899,0.178
				c0.601,0.531-1.7,1.062-0.301,1.681c-1.1-0.531-1.3,0.265-1.9,0.619c-0.399-0.62-2.101-0.354-1.899-1.328
				c-1.299,0.266-2.6,0.265-4.101,0.089c0.101,0.265,0,0.354-0.199,0.354c-0.401,0.619,1.099,0,0.699,0.619
				c-0.199,0.53-0.801-0.089-1.2,0c0,0.619,0.399,1.061,1,1.326c0.1,0.354-1.1-0.177-0.701,0.442c-3.6-0.975-7.8-0.178-12.1-0.092
				c-0.399,0.443-0.9,0.708-1,1.328c-1.2,0-0.699-1.503,0.301-1.328c0-0.441-0.601-0.62-0.9-0.974c-0.699,0.178-1,0.708-1.199,1.15
				c-0.801-0.266-1.601,0.353-1.699,1.149c-1.801-0.444-5.301-0.532-3.601-2.036c-2.899-0.001-0.7-2.036-1.2-2.3
				c0.699-0.708,2.2,0.177,3.601-0.088c-0.101,0.619,1,1.592-1,1.592c-0.4,0-0.5-0.265-0.4-0.62c-0.5,0.09-0.6,0.443-0.699,0.797
				c0.8,0.177,1.6,0.354,2.398,0.532c0.801-0.091,0.2-0.354,0-0.619c0.602,0.265,0.7,0.265,1.602,0.177
				c0.198,0,0.398,0.088,0.5,0.266c0.5-0.531,1.1-0.177,1.698-0.44c0.302-0.355-0.698-0.62,0-0.62c-0.398-0.443-2.299,0-1.898-0.974
				c0.3-0.53,2.1,0.708,1.898-0.442c0.802,0,0,0.973,1.2,0.707c-0.1,0.354-0.5,0.62,0,0.974c0.8-0.088,1-0.529,1.7-0.619
				c0.3-0.885-0.6-0.974-0.399-1.769c-1.2,0.265-1.4-0.09-2.399-0.179c-0.199-0.53,0.301-0.44,0.7-0.619
				c0-0.177-0.399-0.177-0.7-0.177c-0.199-0.53,0.7-0.266,0.5-0.796c-0.101-0.178-1.601-0.354-0.399-0.354
				c-2.5-0.798-10.301,2.209-11.101-1.418c-1.199,0.178-1.5,0.441-2.899,0.177c0.2,0.266,0.399,0.53,1,0.529
				c-0.701,0.709-0.9,1.416-0.3,2.123c0,0.354-0.901,0.09-1.2,0.178c-0.201-0.708,0.3-1.238,0-1.504
				c-2.201,0.619-5.6-1.239-6.3,0.44c1.6-0.529,2.1,0.796,3.8,0.178c0.601,0.088,0.2,0.885,0,0.973c-0.299-0.267-1.1-0.267-1-0.708
				c-0.399,0-0.2,0.53-0.5,0.619c-0.5-0.354-1.899-0.001-2.101-0.532c-0.398,0.354,0.601,0.442,0,1.15
				c0.899,0.266,2,0.442,2.399,1.151c-2.199,0.265-3.1-0.179-5.299-0.267c1.2-0.443,0.2-1.416-0.2-2.124c0.801,0,0.801-0.442,1-1.15
				c-3.899-0.531-10-0.532-14.6-0.533c-0.2,0.178,0,0.619-0.7,0.531c-0.1,0.708,1.3,0.531,1.601,0.974
				c0,0.353-0.601-0.177-0.899,0.177c0,0.267,0,0.53,0,0.796c1.099,0.266,3.1,0.001,4.099,0.355c-1.1,1.238-5.398,0.264-7.199,1.06
				c-1.399-0.441-2.801-0.708-4.601-0.531c-0.3,0-0.1-0.355-0.2-0.62c0.801-0.353,1.4-0.087,2.201-0.265
				c0.2-1.149-1.6-0.796-2.899-0.885c-0.101-0.884,1.899-0.176,1.9-0.974c1.299,0.709,2.7,0.354,3.6-0.265
				c0.601,0.001,0.101,0.708,0.899,0.531c-0.2-0.619-1.2-0.707-1.399-1.327c-1.601,0.266-2.601,0.53-3.601-0.354
				c0-0.443,0.101-0.708,0.8-0.708c-0.399-0.442-1.1,0.177-1.7,0c0.199,0.177,0.601,0.265,0.399,0.796
				c-4.099,0.53-7.599-0.09-11.3,0.528c0.7,0.354,0.201,0.62,0.5,0.974c1.2,0.177,2.5,0.797,3.4,0.178
				c0.398,0,0.5,0.266,0.398,0.619c-0.6,0.354-2.199-0.089-2.398,0.62c-0.901-0.09-0.7-0.885-1.102-1.328
				c-0.6,0.177-1.398,0.619-2,0.177c-0.1-0.708,0.801-0.708,1-1.15c-3.399,0.266-9-0.62-13.699,0.352
				c-1.5-0.441-3.7-0.531-4.4,0.442c-0.601,0.264-2.2-0.798-2.601,0.264c0.601,0,1.101,0,1.399,0.177c-0.5,0.708-1.2,1.15-1.5,1.946
				c0.4,0,0.801,0,1.2,0c-0.2-0.619,0.3-0.796,0.3-1.327c0.601,0.179,0.8,0.443,1.7,0.355c0.299,0.089,0.799,0.709,0.199,0.796
				c0.699,0.442,1.699-0.441,2.4-0.618c0.5,0,0.1,0.707,0.5,0.796c1.9-0.354,2.7,0.267,3.9-0.264c0.1-0.532-0.7-0.354-0.5-0.975
				c0.7,0.266,1.399,0.62,1.7,1.149c3.1,0.089,8.698-0.438,12,0.091c-0.5,0.177-1.302,0.266-1.602,0.619
				c-0.2,0.088-0.399,0.089-0.6,0.088c-3-0.885-7.301-0.001-10.301-0.091c0.6,0.267,1.5,0.354,2.399,0.354
				c0,1.237-1.6,1.148-2.399,0.972c-0.101-0.087-1.5-1.238-0.899-1.238c-3.4-0.709-7,0.529-9.4-0.091c0,0.708,1.601,0.531,1.9,1.15
				c-1.601,0.265-3.401-0.708-4.3-1.415c-3.401,0.529-6.5-0.001-9.4,0.263c-0.001,0.885,0.9,1.148,1.399,1.681
				c1.1-0.177,0-0.973,1.2-1.15c0.5,0.266,0.3,0.974,1,1.15c-0.301-1.326,4.9-1.68,5.3-0.44c0,0.265-0.602,0.176-0.9,0.176
				c0,1.77,1.799,1.504,3.5,1.504c0.101,0.354,0,0.619-0.2,0.796c-2.198-0.797-4.699,0.618-7-0.09c0,0.53-0.898,0.354-0.699,0.974
				c-1.2,0-2.9-0.354-3.4,0.44c-0.4-0.531-2-0.355-2.4-0.886c0.101-0.175,1.4,0.089,1.9-0.175c0-0.974-1-1.239-1.4-1.947
				c-1.599-0.177-3-0.355-4.1,0.264c-2-1.238-6.9-0.267-9.4-0.887c0.5,0.531,0.2,0.62,0.5,1.15c2.7,0.178,3.901,0.088,6.801,0.089
				c0.199,0.179,0.399,0.354,0.5,0.531c-0.8,0.267-2.899,0-3.801,0c-1.1,0.973-3.5,1.237-4.899,2.034
				c-0.3-0.178-0.601-0.266-0.7-0.531c0.6-0.531,1.8-0.619,2.399-1.15c-2.601-0.176-3.899-0.267-5.3-0.708
				c1.2-0.708,1.3,0.177,3.4-0.266c0.1-0.441,0.401-0.708,1-0.797c-1-0.529-3.5,0.53-4.3-0.355c1.8-0.884,4.398,0.179,6.6-0.705
				c0-0.354-0.4-0.442-0.5-0.797c-0.899-0.176-0.899,0.354-1.5,0.443c-5-0.621-12.5-0.888-17.099-0.535
				c-0.201,0.62,1.199,0.178,1,0.798c-0.602,0.354-2.102-0.179-3.102,0.618c-0.898-0.619-4.8-0.62-5.6,0.264
				c-1.3,0-2.9-0.53-4.1-0.177c-0.2,0.531,0.8,0.266,1,0.531c0.199,0.441-0.699,0.265-0.5,0.795
				C6.349,12.608,2.749,13.05,0.049,12.519L0.049,12.519L0.049,12.519z"/>
		</g>
	</g>
	<rect id="svg_4" x="0.032" y="15.792" width="1919.91" height="152.888"/>
</g>
<rect x="-0.015" y="148.364" width="1919.91" height="352.483"/>
</svg>
